<?xml version="1.0" encoding="utf-8"?>
<!-- Generator: Adobe Illustrator 18.0.0, SVG Export Plug-In . SVG Version: 6.00 Build 0)  -->
<!DOCTYPE svg PUBLIC "-//W3C//DTD SVG 1.1//EN" "http://www.w3.org/Graphics/SVG/1.1/DTD/svg11.dtd">
<svg version="1.1"
	 id="svg3004" xmlns:cc="http://creativecommons.org/ns#" xmlns:dc="http://purl.org/dc/elements/1.1/" xmlns:svg="http://www.w3.org/2000/svg" xmlns:rdf="http://www.w3.org/1999/02/22-rdf-syntax-ns#"
	 xmlns="http://www.w3.org/2000/svg" xmlns:xlink="http://www.w3.org/1999/xlink" x="0px" y="0px" viewBox="0 0 354.4 354.4"
	 enable-background="new 0 0 354.4 354.4" xml:space="preserve">
<path id="path3006" fill="#263F64" d="M20.5,156.4c-6.2,0-12.5,2.8-12.5,2.8V137H0v67.7c0,0,10.1,1,15.6,1
	c16.7,0,22.3-8.8,22.3-25.5C38,165.5,33,156.4,20.5,156.4L20.5,156.4z M15.5,198.7c-2.4,0-7.5-0.4-7.5-0.4v-32.4
	c0,0,5.4-2.3,11.6-2.3c7.5,0,10,6.8,10,16.8C29.7,190.6,27.6,198.7,15.5,198.7L15.5,198.7z M50.4,204.7h8V137h-8V204.7z M91.1,156.4
	c-15.2,0-20.2,9-20.2,24.1c0,15.8,4.5,25.2,20.2,25.2c15.5,0,19.9-9.9,19.9-25.1C111,165.7,105.7,156.4,91.1,156.4z M91.1,198.8
	c-10,0-11.9-6.6-11.9-18.2c0-11.4,2.7-17.1,11.9-17.1c8.7,0,11.7,6.2,11.7,17.2C102.9,191.6,101.1,198.8,91.1,198.8z M141.1,227.5
	c12.2,0,21-5,21-16.2c0-10.7-5.6-13.5-18.6-13.5c-9.8,0-10.5-0.6-10.5-4.1c0-1.2,1.6-5.2,1.6-5.2c0.9,0.2,3.1,0.4,4.1,0.4
	c11.3,0,18.1-4.5,18.1-16.1c0-4.2-1.4-6.9-2.9-8.7h8.3v-6.6l-14.5,0.3c0,0-4.5-1.2-8.7-1.2c-9.8,0-17.6,5.6-17.6,16.3
	c0,8,3.5,11.8,7.3,14.1c0,0-3.3,5.8-3.3,7.7c0,2.9,0.9,5.3,2.7,6.5c-4.5,3.4-7.4,6.7-7.4,11.8C120.7,223.7,128.3,227.5,141.1,227.5
	L141.1,227.5z M142.9,204.6c7.6,0,11.1,0.9,11.1,7c0,5.8-4.5,8.7-12.8,8.7c-8,0-12.5-2.4-12.5-8.2c0-3.4,1.8-5.4,4.8-8
	C133.5,204.2,139.7,204.6,142.9,204.6z M138.7,182.3c-6.2,0-9.3-3.4-9.3-9.6c0-6,3.2-9.6,9.5-9.6c6.6,0,9.9,3.1,9.9,9.6
	C148.8,179.4,145.1,182.3,138.7,182.3L138.7,182.3z M180.7,204.7v-39.1c0,0,6.7-4,13.8-4c9.2,0,10.7,5.7,10.7,18.6v24.5h5.7v-24.6
	c0-16.7-2.9-23.6-15.7-23.6c-7.2,0-14.5,4.3-14.5,4.3v-3.4H175v47.3H180.7L180.7,204.7z M240.6,156.5c-14.7,0-19.5,8-19.5,23.8
	c0,17,4.3,25.4,19.5,25.4c15.2,0,19.2-9.3,19.2-25.3C259.8,164.8,254.3,156.5,240.6,156.5L240.6,156.5z M240.6,200.7
	c-11.5,0-13.7-6.9-13.7-20.4c0-13.2,3.4-18.8,13.7-18.8c9.7,0,13.4,6.2,13.4,18.8S252.1,200.7,240.6,200.7z M276.7,204.7v-39.1
	c0,0,6.7-4,13.8-4c9.2,0,10.7,5.7,10.7,18.6v24.5h5.7v-24.6c0-16.7-2.9-23.6-15.7-23.6c-7.2,0-14.5,4.3-14.5,4.3v-3.4H271v47.3
	H276.7L276.7,204.7z M335.6,200.6c-9.8,0-12.7-7.6-12.8-17.1h31.3l0.2-4.5c0-15.5-6.6-22.3-18.2-22.3c-11.6,0-19.1,7.5-19.1,24.7
	c0,14.9,4.6,24.4,18.3,24.4c7.6,0,17.3-1.3,17.3-1.3l-0.2-4.6C352.5,199.7,342.3,200.6,335.6,200.6L335.6,200.6z M322.8,178.8
	c0-12.3,5.5-17.3,13.4-17.3c8.2,0,12.5,4.8,12.5,17.3H322.8z"/>
<path id="path3008" fill="#5A9038" d="M179.1,132.3v-1.4h-2.7v-2.8h-1.6v2.8h-1.2v1.4h1.2v4.7c0,2.5,0.7,3.4,2.6,3.4
	c0.6,0,1.7-0.2,1.7-0.2l-0.1-1.3c0,0-1,0.1-1.5,0.1c-1,0-1.2-0.7-1.2-2.4v-4.2H179.1L179.1,132.3z M184.6,139
	c-1.7,0-2.3-1.2-2.3-2.8h5.8l0.1-1.2c0-2.9-1.3-4.3-3.7-4.3c-2.4,0-3.8,1.6-3.8,4.9c0,3,1,4.8,3.7,4.8c1.6,0,3.4-0.4,3.4-0.4l0-1.2
	C187.9,138.8,186,139,184.6,139L184.6,139z M182.4,134.9c0-2,0.8-2.9,2.3-2.9c1.4,0,2.1,0.9,2.1,2.9H182.4z M194,130.7
	c-2.7,0-3.8,1.5-3.8,4.7c0,3.4,0.9,5,3.8,5c1.1,0,2.5-0.2,2.5-0.2l-0.1-1.3c0,0-1.4,0.1-2.1,0.1c-2.1,0-2.6-1.1-2.6-3.5
	c0-2.2,0.6-3.2,2.6-3.2c0.7,0,2,0.1,2,0.1l0.1-1.3C196.5,131,195.1,130.7,194,130.7L194,130.7z M200.5,140.2v-7.5
	c0,0,1.3-0.5,2.4-0.5c1.5,0,1.8,1.1,1.8,3.2v4.8h1.6v-4.8c0-3.1-0.6-4.6-3.1-4.6c-1.1,0-2.6,0.6-2.6,0.6v-4.4h-1.6v13.3L200.5,140.2
	L200.5,140.2z M215.4,140.2v-7.4c0,0,1.2-0.6,2.4-0.6c1.5,0,1.8,1.1,1.8,3.2v4.8h1.6v-4.8c0-3.1-0.6-4.6-3.1-4.6
	c-1.2,0-2.6,0.8-2.6,0.8v-0.6h-1.6v9.3L215.4,140.2L215.4,140.2z M227.5,139c-1.7,0-2.3-1.2-2.3-2.8h5.8l0.1-1.2
	c0-2.9-1.3-4.3-3.7-4.3c-2.4,0-3.8,1.6-3.8,4.9c0,3,1,4.8,3.7,4.8c1.6,0,3.4-0.4,3.4-0.4l0-1.2C230.8,138.8,228.8,139,227.5,139
	L227.5,139z M225.2,134.9c0-2,0.8-2.9,2.3-2.9c1.4,0,2.1,0.9,2.1,2.9H225.2z M232.5,130.9l2.1,9.3h2.7l1.7-7l1.7,7h2.7l2.1-9.3H244
	l-1.7,7.8h-0.4l-2-7.7h-1.7l-2,7.7h-0.4l-1.7-7.8H232.5L232.5,130.9z M253.7,131.1c0,0-1.9-0.4-3.3-0.4c-1.7,0-3.3,0.7-3.3,2.8
	c0,1.8,1.1,2.3,3.2,2.7c1.7,0.3,2.1,0.5,2.1,1.4c0,1.1-0.7,1.5-2.1,1.5c-0.9,0-3-0.3-3-0.3l-0.1,1.3c0,0,2,0.4,3.2,0.4
	c2.1,0,3.5-0.7,3.5-2.9c0-1.8-0.9-2.3-3.2-2.7c-1.7-0.3-2.1-0.6-2.1-1.3c0-1,0.8-1.3,1.8-1.3c1.1,0,3.2,0.3,3.2,0.3L253.7,131.1
	L253.7,131.1z M265.5,132.3v-1.4h-2.7v-2.8h-1.6v2.8H260v1.4h1.2v4.7c0,2.5,0.7,3.4,2.6,3.4c0.6,0,1.7-0.2,1.7-0.2l-0.1-1.3
	c0,0-1,0.1-1.5,0.1c-1,0-1.2-0.7-1.2-2.4v-4.2H265.5L265.5,132.3z M269.4,140.2v-7.5c0,0,1.3-0.5,2.4-0.5c1.5,0,1.8,1.1,1.8,3.2v4.8
	h1.6v-4.8c0-3.1-0.6-4.6-3.1-4.6c-1.1,0-2.6,0.6-2.6,0.6v-4.4h-1.6v13.3L269.4,140.2L269.4,140.2z M284.7,133.7c0-2.1-1-3-2.9-3
	c-1.4,0-3.6,0.4-3.6,0.4l0.1,1.3c0,0,1.9-0.2,3.5-0.2c0.9,0,1.4,0.5,1.4,1.6v0.7l-2.6,0.2c-1.8,0.1-2.9,1-2.9,2.8
	c0,1.7,1.1,2.9,2.7,2.9c1.6,0,3-0.7,3-0.7c0.5,0.5,1.1,0.7,2.3,0.7l0.1-1.3c-0.6-0.1-0.9-0.3-1.1-0.9L284.7,133.7L284.7,133.7z
	 M283.1,135.7v2.8c0,0-1.3,0.5-2.6,0.5c-0.8,0-1.3-0.7-1.3-1.6c0-0.9,0.4-1.5,1.5-1.6L283.1,135.7z M292.3,132.3v-1.4h-2.7v-2.8
	h-1.6v2.8h-1.2v1.4h1.2v4.7c0,2.5,0.7,3.4,2.6,3.4c0.6,0,1.7-0.2,1.7-0.2l-0.1-1.3c0,0-1,0.1-1.5,0.1c-1,0-1.2-0.7-1.2-2.4v-4.2
	H292.3L292.3,132.3z M293.2,131.5h1.4l0.1-4.3h-1.5L293.2,131.5L293.2,131.5z M302.6,131.1c0,0-1.9-0.4-3.3-0.4
	c-1.7,0-3.3,0.7-3.3,2.8c0,1.8,1.1,2.3,3.2,2.7c1.7,0.3,2.1,0.5,2.1,1.4c0,1.1-0.7,1.5-2.1,1.5c-0.9,0-3-0.3-3-0.3l-0.1,1.3
	c0,0,2,0.4,3.2,0.4c2.1,0,3.5-0.7,3.5-2.9c0-1.8-0.9-2.3-3.2-2.7c-1.7-0.3-2.1-0.6-2.1-1.3c0-1,0.8-1.3,1.8-1.3
	c1.1,0,3.2,0.3,3.2,0.3L302.6,131.1L302.6,131.1z M308.8,130.9l2.1,9.3h2.7l1.7-7l1.7,7h2.7l2.1-9.3h-1.6l-1.7,7.8h-0.4l-2-7.7h-1.7
	l-2,7.7h-0.4l-1.7-7.8H308.8L308.8,130.9z M327.3,130.7c-3,0-4,1.8-4,4.7c0,3.1,0.9,4.9,4,4.9c3,0,3.9-1.9,3.9-4.9
	C331.1,132.5,330.1,130.7,327.3,130.7z M327.3,139c-2,0-2.3-1.3-2.3-3.6c0-2.2,0.5-3.4,2.3-3.4c1.7,0,2.3,1.2,2.3,3.4
	C329.6,137.6,329.2,139,327.3,139L327.3,139z M333.7,140.2h1.6v-6.7c0,0,1.3-0.8,3-1.1v-1.7c-1.7,0.3-3,1.4-3,1.4v-1.1h-1.6V140.2
	L333.7,140.2z M344.7,132.3v-1.4H342v-2.8h-1.6v2.8h-1.2v1.4h1.2v4.7c0,2.5,0.7,3.4,2.6,3.4c0.6,0,1.7-0.2,1.7-0.2l-0.1-1.3
	c0,0-1,0.1-1.5,0.1c-1,0-1.2-0.7-1.2-2.4v-4.2H344.7L344.7,132.3z M348.6,140.2v-7.5c0,0,1.3-0.5,2.4-0.5c1.5,0,1.8,1.1,1.8,3.2v4.8
	h1.6v-4.8c0-3.1-0.6-4.6-3.1-4.6c-1.1,0-2.6,0.6-2.6,0.6v-4.4H347v13.3L348.6,140.2L348.6,140.2z"/>
</svg>
