<?xml version="1.0" encoding="UTF-8" standalone="no"?>
<!-- Created with Inkscape (http://www.inkscape.org/) -->

<svg
   xmlns:dc="http://purl.org/dc/elements/1.1/"
   xmlns:cc="http://creativecommons.org/ns#"
   xmlns:rdf="http://www.w3.org/1999/02/22-rdf-syntax-ns#"
   xmlns:svg="http://www.w3.org/2000/svg"
   xmlns="http://www.w3.org/2000/svg"
   version="1.1"
   width="354.35001"
   height="354.35001"
   viewBox="0 0 354.35001 354.35001"
   id="svg3004">
  <metadata
     id="metadata3014">
    <rdf:RDF>
      <cc:Work
         rdf:about="">
        <dc:format>image/svg+xml</dc:format>
        <dc:type
           rdf:resource="http://purl.org/dc/dcmitype/StillImage" />
        <dc:title></dc:title>
      </cc:Work>
    </rdf:RDF>
  </metadata>
  <defs
     id="defs3012" />
  <path
     d="m 20.549,156.434 c -6.25,0 -12.5,2.841 -12.5,2.841 l 0,-22.254 -8.049,0 0,67.709 c 0,0 10.132,1.042 15.625,1.042 16.667,0 22.348,-8.807 22.348,-25.474 0,-14.773 -5.019,-23.864 -17.424,-23.864 z M 15.53,198.67 c -2.367,0 -7.481,-0.379 -7.481,-0.379 l 0,-32.387 c 0,0 5.398,-2.273 11.648,-2.273 7.481,0 10.038,6.819 10.038,16.762 0,10.227 -2.178,18.277 -14.205,18.277 z m 34.877,6.06 7.955,0 0,-67.709 -7.955,0 0,67.709 z M 91.14,156.434 c -15.246,0 -20.171,8.997 -20.171,24.148 0,15.815 4.451,25.19 20.171,25.19 15.53,0 19.886,-9.943 19.886,-25.095 0,-14.96199 -5.303,-24.24299 -19.886,-24.24299 z m 0,42.33 c -10.038,0 -11.932,-6.629 -11.932,-18.182 0,-11.363 2.746,-17.14 11.932,-17.14 8.712,0 11.742,6.25 11.742,17.235 0,10.89 -1.799,18.087 -11.742,18.087 z m 49.933,28.694 c 12.216,0 21.023,-5.019 21.023,-16.194 0,-10.7 -5.587,-13.541 -18.561,-13.541 -9.754,0 -10.511,-0.569 -10.511,-4.072 0,-1.231 1.61,-5.209 1.61,-5.209 0.947,0.19 3.125,0.379 4.072,0.379 11.269,0 18.087,-4.546 18.087,-16.099 0,-4.166 -1.42,-6.913 -2.936,-8.712 l 8.334,0 0,-6.629 -14.489,0.284 c 0,0 -4.545,-1.231 -8.712,-1.231 -9.849,0 -17.614,5.588 -17.614,16.288 0,7.955 3.504,11.838 7.292,14.11 0,0 -3.315,5.777 -3.315,7.671 0,2.936 0.947,5.303 2.747,6.534 -4.451,3.409 -7.387,6.724 -7.387,11.837 0,10.796 7.576,14.584 20.36,14.584 z m 1.799,-22.822 c 7.576,0 11.08,0.947 11.08,7.007 0,5.777 -4.545,8.712 -12.784,8.712 -7.955,0 -12.5,-2.367 -12.5,-8.238 0,-3.409 1.799,-5.398 4.829,-7.955 0,0 6.156,0.474 9.375,0.474 z m -4.166,-22.349 c -6.25,0 -9.281,-3.409 -9.281,-9.565 0,-5.966 3.22,-9.564 9.47,-9.564 6.629,0 9.943,3.125 9.943,9.564 0,6.629 -3.693,9.565 -10.132,9.565 z m 41.978,22.443 0,-39.11 c 0,0 6.724,-3.977 13.826,-3.977 9.186,0 10.701,5.682 10.701,18.561 l 0,24.526 5.682,0 0,-24.621 c 0,-16.667 -2.936,-23.58 -15.72,-23.58 -7.197,0 -14.489,4.261 -14.489,4.261 l 0,-3.40899 -5.682,0 0,47.34899 5.682,0 z m 59.908,-48.201 c -14.678,0 -19.508,7.955 -19.508,23.769 0,16.951 4.262,25.379 19.508,25.379 15.152,0 19.224,-9.28 19.224,-25.284 0,-15.625 -5.493,-23.864 -19.224,-23.864 z m 0,44.129 c -11.458,0 -13.731,-6.913 -13.731,-20.36 0,-13.163 3.409,-18.75 13.731,-18.75 9.659,0 13.353,6.25 13.353,18.845 0,12.595 -1.894,20.265 -13.353,20.265 z m 36.137,4.072 0,-39.11 c 0,0 6.723,-3.977 13.826,-3.977 9.185,0 10.701,5.682 10.701,18.561 l 0,24.526 5.681,0 0,-24.621 c 0,-16.667 -2.935,-23.58 -15.719,-23.58 -7.197,0 -14.489,4.261 -14.489,4.261 l 0,-3.40899 -5.682,0 0,47.34899 5.682,0 z m 58.866,-4.166 c -9.848,0 -12.689,-7.576 -12.784,-17.141 l 31.345,0 0.19,-4.545 c 0,-15.531 -6.629,-22.349 -18.183,-22.349 -11.553,0 -19.129,7.481 -19.129,24.716 0,14.868 4.641,24.432 18.277,24.432 7.576,0 17.33,-1.326 17.33,-1.326 l -0.189,-4.64 c 0,0 -10.133,0.853 -16.857,0.853 z m -12.784,-21.781 c 0,-12.311 5.493,-17.33 13.352,-17.33 8.239,0 12.501,4.83 12.501,17.33 l -25.853,0 z"
     id="path3006" />
  <path
     d="m 179.123,132.29 0,-1.391 -2.69,0 0,-2.82 -1.558,0 0,2.82 -1.243,0 0,1.391 1.243,0 0,4.656 c 0,2.486 0.742,3.413 2.615,3.413 0.65,0 1.744,-0.204 1.744,-0.204 l -0.074,-1.298 c 0,0 -0.965,0.092 -1.484,0.092 -1.002,0 -1.243,-0.667 -1.243,-2.411 l 0,-4.248 2.69,0 z m 5.525,6.678 c -1.706,0 -2.263,-1.206 -2.263,-2.801 l 5.843,0 0.093,-1.169 c 0,-2.856 -1.28,-4.303 -3.691,-4.303 -2.412,0 -3.84,1.632 -3.84,4.897 0,2.986 0.983,4.767 3.747,4.767 1.614,0 3.45,-0.352 3.45,-0.352 l -0.037,-1.206 c 0,0 -1.985,0.167 -3.302,0.167 z m -2.281,-4.025 c 0.018,-1.985 0.835,-2.913 2.263,-2.913 1.447,0 2.115,0.891 2.115,2.913 l -4.378,0 z m 11.683,-4.248 c -2.671,0 -3.802,1.521 -3.802,4.674 0,3.413 0.946,4.99 3.784,4.99 1.057,0 2.504,-0.241 2.504,-0.241 l -0.056,-1.336 c 0,0 -1.354,0.13 -2.059,0.13 -2.059,0 -2.578,-1.131 -2.578,-3.543 0,-2.244 0.63,-3.227 2.578,-3.227 0.705,0 2.041,0.148 2.041,0.148 l 0.055,-1.33499 c 0,0 -1.391,-0.26 -2.467,-0.26 z m 6.434,9.46 0,-7.531 c 0,0 1.317,-0.501 2.356,-0.501 1.54,0 1.8,1.113 1.8,3.209 l 0,4.823 1.576,0 0,-4.841 c 0,-3.098 -0.649,-4.619 -3.116,-4.619 -1.132,0 -2.616,0.593 -2.616,0.593 l 0,-4.396 -1.576,0 0,13.263 1.576,0 z m 14.91,0 0,-7.401 c 0,0 1.243,-0.631 2.374,-0.631 1.54,0 1.8,1.132 1.8,3.228 l 0,4.804 1.558,0 0,-4.823 c 0,-3.116 -0.631,-4.637 -3.098,-4.637 -1.243,0 -2.634,0.779 -2.634,0.779 l 0,-0.575 -1.577,0 0,9.256 1.577,0 z m 12.072,-1.187 c -1.706,0 -2.263,-1.206 -2.263,-2.801 l 5.843,0 0.093,-1.169 c 0,-2.856 -1.28,-4.303 -3.691,-4.303 -2.412,0 -3.84,1.632 -3.84,4.897 0,2.986 0.983,4.767 3.747,4.767 1.614,0 3.45,-0.352 3.45,-0.352 l -0.037,-1.206 c 0,0 -1.985,0.167 -3.302,0.167 z m -2.281,-4.025 c 0.018,-1.985 0.835,-2.913 2.263,-2.913 1.447,0 2.115,0.891 2.115,2.913 l -4.378,0 z m 7.361,-4.044 2.078,9.256 2.689,0 1.726,-6.993 1.706,6.993 2.708,0 2.096,-9.256 -1.558,0 -1.725,7.846 -0.427,0 -1.966,-7.67899 -1.651,0 -1.966,7.67899 -0.445,0 -1.707,-7.846 -1.558,0 z m 21.18,0.167 c 0,0 -1.93,-0.371 -3.302,-0.371 -1.651,0 -3.302,0.723 -3.302,2.764 0,1.799 1.131,2.281 3.228,2.671 1.706,0.297 2.096,0.501 2.096,1.354 0,1.132 -0.687,1.484 -2.096,1.484 -0.946,0 -3.043,-0.297 -3.043,-0.297 l -0.074,1.317 c 0,0 2.041,0.371 3.246,0.371 2.115,0 3.543,-0.742 3.543,-2.931 0,-1.78 -0.853,-2.318 -3.209,-2.708 -1.688,-0.278 -2.096,-0.575 -2.096,-1.317 0,-0.965 0.761,-1.317 1.799,-1.317 1.076,0 3.172,0.278 3.172,0.278 l 0.038,-1.298 z m 11.756,1.224 0,-1.391 -2.69,0 0,-2.82 -1.558,0 0,2.82 -1.243,0 0,1.391 1.243,0 0,4.656 c 0,2.486 0.742,3.413 2.616,3.413 0.649,0 1.743,-0.204 1.743,-0.204 l -0.074,-1.298 c 0,0 -0.965,0.092 -1.484,0.092 -1.002,0 -1.243,-0.667 -1.243,-2.411 l 0,-4.248 2.69,0 z m 3.875,7.865 0,-7.531 c 0,0 1.317,-0.501 2.356,-0.501 1.539,0 1.799,1.113 1.799,3.209 l 0,4.823 1.577,0 0,-4.841 c 0,-3.098 -0.65,-4.619 -3.117,-4.619 -1.131,0 -2.615,0.593 -2.615,0.593 l 0,-4.396 -1.577,0 0,13.263 1.577,0 z m 15.337,-6.418 c 0,-2.133 -1.002,-3.042 -2.931,-3.042 -1.428,0 -3.635,0.371 -3.635,0.371 l 0.055,1.317 c 0,0 1.948,-0.241 3.506,-0.241 0.946,0 1.447,0.501 1.447,1.576 l 0,0.74201 -2.578,0.242 c -1.818,0.148 -2.894,1.001 -2.894,2.782 0,1.725 1.131,2.875 2.689,2.875 1.596,0 3.043,-0.72301 3.043,-0.72301 0.519,0.48201 1.131,0.705 2.263,0.705 l 0.092,-1.336 c -0.575,-0.093 -0.908,-0.278 -1.057,-0.89 l 0,-4.378 z m -1.558,1.929 0,2.838 c 0,0 -1.299,0.52 -2.597,0.52 -0.761,0 -1.28,-0.668 -1.28,-1.577 0,-0.872 0.445,-1.521 1.465,-1.595 l 2.412,-0.186 z m 9.198,-3.376 0,-1.391 -2.69,0 0,-2.82 -1.558,0 0,2.82 -1.243,0 0,1.391 1.243,0 0,4.656 c 0,2.486 0.742,3.413 2.615,3.413 0.649,0 1.744,-0.204 1.744,-0.204 l -0.074,-1.298 c 0,0 -0.965,0.092 -1.484,0.092 -1.002,0 -1.243,-0.667 -1.243,-2.411 l 0,-4.248 2.69,0 z m 0.832,-0.76 1.447,0 0.056,-4.267 -1.54,0 0.037,4.267 z m 9.404,-0.464 c 0,0 -1.929,-0.371 -3.301,-0.371 -1.651,0 -3.302,0.723 -3.302,2.764 0,1.799 1.131,2.281 3.227,2.671 1.707,0.297 2.096,0.501 2.096,1.354 0,1.132 -0.686,1.484 -2.096,1.484 -0.946,0 -3.042,-0.297 -3.042,-0.297 l -0.074,1.317 c 0,0 2.04,0.371 3.246,0.371 2.115,0 3.543,-0.742 3.543,-2.931 0,-1.78 -0.853,-2.318 -3.209,-2.708 -1.688,-0.278 -2.096,-0.575 -2.096,-1.317 0,-0.965 0.76,-1.317 1.799,-1.317 1.076,0 3.172,0.278 3.172,0.278 l 0.037,-1.298 z m 6.266,-0.167 2.078,9.256 2.689,0 1.725,-6.993 1.707,6.993 2.708,0 2.096,-9.256 -1.558,0 -1.725,7.846 -0.427,0 -1.966,-7.67899 -1.651,0 -1.966,7.67899 -0.445,0 -1.707,-7.846 -1.558,0 z m 18.416,-0.204 c -2.987,0 -3.952,1.762 -3.952,4.73 0,3.098 0.872,4.93401 3.952,4.93401 3.042,0 3.895,-1.948 3.895,-4.91501 0,-2.93099 -1.039,-4.749 -3.895,-4.749 z m 0,8.291 c -1.967,0 -2.338,-1.298 -2.338,-3.561 0,-2.226 0.538,-3.357 2.338,-3.357 1.706,0 2.3,1.224 2.3,3.376 0,2.133 -0.353,3.542 -2.3,3.542 z m 6.433,1.169 1.558,0 0,-6.659 c 0,0 1.317,-0.816 2.987,-1.15 l 0,-1.651 c -1.651,0.334 -2.987,1.354 -2.987,1.354 l 0,-1.15 -1.558,0 0,9.256 z m 11.054,-7.865 0,-1.391 -2.69,0 0,-2.82 -1.558,0 0,2.82 -1.243,0 0,1.391 1.243,0 0,4.656 c 0,2.486 0.742,3.413 2.616,3.413 0.649,0 1.743,-0.204 1.743,-0.204 l -0.074,-1.298 c 0,0 -0.965,0.092 -1.484,0.092 -1.002,0 -1.243,-0.667 -1.243,-2.411 l 0,-4.248 2.69,0 z m 3.875,7.865 0,-7.531 c 0,0 1.317,-0.501 2.355,-0.501 1.54,0 1.8,1.113 1.8,3.209 l 0,4.823 1.577,0 0,-4.841 c 0,-3.098 -0.65,-4.619 -3.117,-4.619 -1.131,0 -2.615,0.593 -2.615,0.593 l 0,-4.396 -1.577,0 0,13.263 1.577,0 z"
     id="path3008" />
</svg>
