<svg xmlns="http://www.w3.org/2000/svg" xmlns:xlink="http://www.w3.org/1999/xlink" version="1.1" baseProfile="basic" x="0px" y="0px" viewBox="0 0 261.7 261.7" xml:space="preserve"><defs><rect x="-134.7" y="-43.6" width="549.4" height="388.5"/></defs><clipPath><use xlink:href="#SVGID_1_" overflow="visible"/></clipPath><polyline clip-path="url(#SVGID_2_)" points="62.6,132 139.9,113 140.2,113.9 62.8,132.9  "/><polyline clip-path="url(#SVGID_2_)" points="140.3,113.1 197.4,151.5 196.9,152.3 139.8,113.8  "/><polyline clip-path="url(#SVGID_2_)" points="197.2,152.3 126.6,165 126.4,164.1 197.1,151.4  "/><polyline clip-path="url(#SVGID_2_)" points="126.3,165 62.5,132.9 62.9,132.1 126.7,164.1  "/><polyline clip-path="url(#SVGID_2_)" points="139.8,113 179,92.9 179.4,93.7 140.3,113.9  "/><polyline clip-path="url(#SVGID_2_)" points="179.7,93.2 197.1,151 196.3,151.3 178.8,93.4  "/><polyline clip-path="url(#SVGID_2_)" points="196.7,151.8 218.5,62.6 219.4,62.8 197.6,152  "/><polyline clip-path="url(#SVGID_2_)" points="219.2,63.1 179.5,93.7 179,92.9 218.7,62.3  "/><polyline clip-path="url(#SVGID_2_)" points="219.6,62.9 256.5,123.8 255.7,124.3 218.8,63.4  "/><polyline clip-path="url(#SVGID_2_)" points="256.3,124.4 197.4,152.3 197,151.5 255.9,123.6  "/><polyline clip-path="url(#SVGID_2_)" points="197.7,151.1 227.7,175.9 227.1,176.6 197.1,151.8  "/><polyline clip-path="url(#SVGID_2_)" points="227,176 255.7,124.3 256.5,124.7 227.8,176.4  "/><polyline clip-path="url(#SVGID_2_)" points="227.6,176.6 171.5,202.6 171.1,201.8 227.2,175.8  "/><polyline clip-path="url(#SVGID_2_)" points="170.9,202 196.8,151.7 197.6,152.1 171.7,202.4  "/><polyline clip-path="url(#SVGID_2_)" points="171,202.6 126.2,164.9 126.8,164.2 171.6,201.9  "/><polyline clip-path="url(#SVGID_2_)" points="126.7,165 96.8,178.1 96.4,177.2 126.3,164.1  "/><polyline clip-path="url(#SVGID_2_)" points="96.2,177.9 62.8,133.2 63.6,132.7 97,177.4  "/><polyline clip-path="url(#SVGID_2_)" points="63.6,133.1 48,176.6 47.1,176.3 62.8,132.8  "/><polyline clip-path="url(#SVGID_2_)" points="47.6,176 96.6,177.2 96.6,178.1 47.6,176.9  "/><polyline clip-path="url(#SVGID_2_)" points="47.2,176.7 3.7,126.1 4.4,125.5 47.9,176.1  "/><polyline clip-path="url(#SVGID_2_)" points="4.1,125.3 63.3,132.5 63.1,133.4 4,126.2  "/><polyline clip-path="url(#SVGID_2_)" points="62.8,132.8 84.9,70.4 85.8,70.7 63.6,133.1  "/><polyline clip-path="url(#SVGID_2_)" points="85.6,70.9 4.3,126.1 3.8,125.4 85.1,70.1  "/><polyline clip-path="url(#SVGID_2_)" points="85.8,70.4 94.6,96.7 93.7,97 84.9,70.7  "/><polyline clip-path="url(#SVGID_2_)" points="94.5,97.2 63.5,133.2 62.8,132.6 93.8,96.6  "/><polyline clip-path="url(#SVGID_2_)" points="94.3,96.4 140.2,113 139.9,113.9 94,97.3  "/><polyline clip-path="url(#SVGID_2_)" points="139.6,113.6 125.7,63.3 126.5,63 140.5,113.3  "/><polyline clip-path="url(#SVGID_2_)" points="126.2,63.6 85.4,71 85.2,70.1 126,62.7  "/><polyline clip-path="url(#SVGID_2_)" points="126.1,62.7 218,62.5 218,63.4 126.1,63.6  "/><polyline clip-path="url(#SVGID_2_)" points="139.6,113.4 150,63.4 150.9,63.6 140.5,113.5  "/><polyline clip-path="url(#SVGID_2_)" points="150.8,63.2 179.1,93.2 178.4,93.8 150.2,63.8  "/><polyline clip-path="url(#SVGID_2_)" points="93.8,96.5 125,63.1 125.7,63.7 94.5,97.2  "/><path clip-path="url(#SVGID_2_)" d="M67.7 133.3c0 2.5-2 4.5-4.5 4.5 -2.5 0-4.5-2-4.5-4.5 0-2.5 2-4.5 4.5-4.5C65.7 128.9 67.7 130.9 67.7 133.3M203.9 151.6c0 3.3-2.6 5.9-5.9 5.9 -3.3 0-5.9-2.6-5.9-5.9 0-3.3 2.6-5.9 5.9-5.9C201.2 145.7 203.9 148.4 203.9 151.6M8.1 125.6c0 1.8-1.5 3.3-3.3 3.3 -1.8 0-3.3-1.5-3.3-3.3 0-1.8 1.5-3.3 3.3-3.3C6.7 122.3 8.1 123.8 8.1 125.6M89.3 70.9c0 2.2-1.8 4-4 4 -2.2 0-4-1.8-4-4 0-2.2 1.8-4 4-4C87.5 66.9 89.3 68.7 89.3 70.9M183.3 93.3c0 2.3-1.9 4.2-4.2 4.2 -2.3 0-4.2-1.9-4.2-4.2 0-2.3 1.9-4.2 4.2-4.2C181.4 89.2 183.3 91 183.3 93.3M259.6 124.5c0 2-1.6 3.6-3.6 3.6 -2 0-3.6-1.6-3.6-3.6 0-2 1.6-3.6 3.6-3.6C258 120.9 259.6 122.5 259.6 124.5M230.2 176.2c0 1.4-1.2 2.6-2.6 2.6 -1.4 0-2.6-1.2-2.6-2.6 0-1.4 1.2-2.6 2.6-2.6C229 173.6 230.2 174.8 230.2 176.2M97.1 97.3c0 1.6-1.3 2.8-2.8 2.8 -1.6 0-2.8-1.3-2.8-2.8 0-1.6 1.3-2.8 2.8-2.8C95.8 94.5 97.1 95.8 97.1 97.3M93.7 177.7c0-1.6 1.3-2.9 2.9-2.9 1.6 0 2.9 1.3 2.9 2.9 0 1.6-1.3 2.9-2.9 2.9C95 180.6 93.7 179.3 93.7 177.7M52 176.8c0 2.4-2 4.4-4.4 4.4 -2.4 0-4.4-2-4.4-4.4 0-2.4 2-4.4 4.4-4.4C50.1 172.4 52 174.3 52 176.8M168.4 202.2c0-1.6 1.3-3 3-3s3 1.3 3 3c0 1.6-1.3 3-3 3S168.4 203.8 168.4 202.2M224.6 63.4c0 2.4-2 4.4-4.4 4.4 -2.4 0-4.4-2-4.4-4.4 0-2.4 2-4.4 4.4-4.4C222.7 59 224.6 60.9 224.6 63.4M142.7 113.8c0 1.3-1.1 2.4-2.4 2.4 -1.3 0-2.4-1.1-2.4-2.4 0-1.3 1.1-2.4 2.4-2.4C141.7 111.4 142.7 112.4 142.7 113.8M130.6 164.9c0 1.8-1.5 3.3-3.3 3.3 -1.8 0-3.3-1.5-3.3-3.3 0-1.8 1.5-3.3 3.3-3.3C129.2 161.7 130.6 163.1 130.6 164.9M129.5 64c0 1.7-1.4 3.1-3.1 3.1 -1.7 0-3.1-1.4-3.1-3.1 0-1.7 1.4-3.1 3.1-3.1C128.2 60.9 129.5 62.3 129.5 64M155.6 62.5c0 2.8-2.3 5.1-5.1 5.1 -2.8 0-5.1-2.3-5.1-5.1 0-2.8 2.3-5.1 5.1-5.1C153.3 57.4 155.6 59.7 155.6 62.5M164 139.4h-4.2l3.6-6.9L164 139.4zM164.2 141.1l0.4 4.4 2-0.7 -1.6-14.5h-2.5l-7.8 14.5 1.7 0.7 2.3-4.4H164.2zM144.5 145.2c3.1 0 5.2-1.6 5.8-4.2 0.3-1.7-0.3-3.1-1.8-3.6 1.3-0.6 2.1-1.8 2.3-3 0.5-2.5-0.8-4-4.5-4h-4.7l-0.4 1.7h1.5l-2.4 11.4h-1.5l-0.4 1.7H144.5zM143.7 136.7l1-4.6h2c1.3 0 2.5 0.5 2.1 2.3 -0.3 1.3-1.3 2.4-3 2.4H143.7zM142.3 143.5l1.1-5.1h2.7c1.8 0 2.5 1.2 2.2 2.7 -0.4 2-2.1 2.4-3.8 2.4H142.3zM127.4 145.2c3.1 0 5.2-1.6 5.8-4.2 0.3-1.7-0.3-3.1-1.8-3.6 1.3-0.6 2.1-1.8 2.3-3 0.5-2.5-0.8-4-4.5-4h-4.7l-0.4 1.7h1.5l-2.4 11.4h-1.5l-0.4 1.7H127.4zM126.6 136.7l1-4.6h2c1.3 0 2.5 0.5 2.1 2.3 -0.3 1.3-1.3 2.4-3 2.4H126.6zM125.2 143.5l1.1-5.1h2.7c1.8 0 2.5 1.2 2.2 2.7 -0.4 2-2.1 2.4-3.8 2.4H125.2zM107.9 130.3l-2.3 10.9c-0.5 2.2 0.5 4.2 3.8 4.2 3.3 0 5.1-2.1 5.5-4.1l2.4-11h-1.9l-2.2 10.1c-0.5 2.1-1.2 3.2-3.6 3.2 -2 0-2.4-1-1.9-3.2l2.2-10.1H107.9zM87.4 145.2h1.9l1.5-7h5.9l-1.5 7h1.9l3.2-14.8h-1.9l-1.3 6.2h-5.9l1.3-6.2h-1.9L87.4 145.2z"/></svg>
