<svg xmlns:svg="http://www.w3.org/2000/svg" xmlns="http://www.w3.org/2000/svg" version="1.1" width="208.75" height="208.75" xml:space="preserve"><g transform="matrix(1.25,0,0,-1.25,-267.5,247.94838)"><g transform="translate(381,117.67922)"><path d="m0 0c0-11.32-8-20.54-20.5-20.54-6.19 0-11.87 2.05-15.5 6.05-3.75-4-9.31-6.04-15.5-6.04-12.56 0-20.5 9.2-20.5 20.52l0 7.52 0 15c0 2.76 2.24 5 5 5 2.76 0 5-2.24 5-5L-62 1.47c0-7.02 4.09-11.97 11-11.97 6.08 0 10 4.61 10 8.39l0 24.62c0 2.76 2.24 5 5 5 2.76 0 5-2.24 5-5l0-24.61c0-3.78 3.93-8.39 10-8.39 6.91 0 11 4.95 11 11.97l0 21.03c0 2.76 2.24 5 5 5 2.76 0 5-2.24 5-5L0 7.5 0 0z" fill="#333433"/></g><g transform="translate(233,97.179219)"><path d="m0 0 14 0c2.76 0 5 2.24 5 5 0 2.76-2.24 5-5 5l-19 0c-2.21 0-4 1.79-4 4l0 8 0 21c0 2.76-2.24 5-5 5-2.76 0-5-2.24-5-5L-19 20l0.03-7.47c0-6.9 5.6-12.5 12.5-12.5L0 0z" fill="#333433"/></g><g transform="translate(257,140.17922)"><path d="M0 0C0 2.76 2.24 5 5 5 7.76 5 10 2.76 10 0L10-0.91C14.6 3.39 21.05 5.73 28.03 4.8 38.98 3.34 47-6.31 47-17.36L47-26 47-38c0-3.11-2.84-5.56-6.08-4.89-2.33 0.49-3.92 2.66-3.92 5.03l0 13.86 0 6.72C37-10.5 32.91-5 23.5-5 14.09-5 10-10.53 10-17.34L10-23 10-38C10-41.11 7.16-43.56 3.92-42.89 1.6-42.4 0-40.23 0-37.85L0 0z" fill="#85cf31"/></g><g transform="translate(215.9912,84.680519)"><path d="m0 0-1.99 6.29 1.62 0 1.18-4.12 1.08 4.13 1.61 0 1.05-4.12 1.2 4.13 1.64 0L5.37 0 3.77 0 2.69 4.05 1.62 0 0 0z" fill="#343433"/></g><g transform="translate(232.4724,84.680519)"><path d="m0 0-1.99 6.29 1.62 0 1.18-4.12 1.09 4.13 1.61 0 1.05-4.12 1.2 4.13 1.64 0L5.37 0 3.77 0 2.69 4.05 1.62 0 0 0z" fill="#343433"/></g><g transform="translate(248.9546,84.680519)"><path d="m0 0-1.99 6.29 1.62 0 1.18-4.12 1.08 4.13 1.61 0 1.05-4.12 1.2 4.13 1.64 0L5.37 0 3.77 0 2.69 4.05 1.62 0 0 0z" fill="#343433"/></g><path d="m263.81 86.35 1.67 0 0-1.66-1.66 0 0 1.67zM274.22 93.37l1.67 0 0-8.69-1.66 0 0 8.69M274.22 93.37l1.67 0 0-8.69-1.66 0 0 8.69z" fill="#343433"/><g transform="translate(290.3618,84.680519)"><path d="m0 0-1.66 0 0 3.21c0 0.68-0.04 1.12-0.11 1.32-0.07 0.2-0.19 0.36-0.35 0.47-0.16 0.11-0.35 0.17-0.58 0.17-0.29 0-0.55-0.08-0.78-0.24C-3.7 4.77-3.86 4.56-3.94 4.3-4.03 4.04-4.07 3.55-4.07 2.85l0-2.85-1.66 0 0 6.29 1.55 0 0-0.92c0.55 0.71 1.24 1.07 2.08 1.07 0.37 0 0.7-0.07 1.01-0.2C-0.8 6.11-0.57 5.94-0.42 5.73-0.26 5.53-0.15 5.29-0.09 5.03-0.03 4.77 0 4.4 0 3.91L0 0z" fill="#343433"/></g><g transform="translate(300.2642,84.680519)"><path d="m0 0-1.99 6.29 1.62 0 1.18-4.12 1.09 4.13 1.61 0 1.05-4.12 1.2 4.13 1.64 0L5.37 0 3.77 0 2.69 4.05 1.62 0 0 0z" fill="#343433"/></g><path d="m315.12 86.35 1.67 0 0-1.66-1.66 0 0 1.67z" fill="#343433"/><g transform="translate(331.0229,89.114019)"><path d="m0 0-1.64-0.3c-0.05 0.33-0.18 0.57-0.38 0.74-0.2 0.17-0.45 0.25-0.76 0.25-0.41 0-0.75-0.14-0.99-0.43-0.25-0.29-0.37-0.76-0.37-1.44 0-0.75 0.13-1.27 0.38-1.58 0.25-0.31 0.59-0.46 1.01-0.46 0.32 0 0.57 0.09 0.78 0.27 0.2 0.18 0.34 0.49 0.43 0.93L0.08-2.3c-0.17-0.75-0.5-1.32-0.98-1.7-0.48-0.38-1.13-0.57-1.94-0.57-0.92 0-1.65 0.29-2.2 0.87-0.55 0.58-0.82 1.39-0.82 2.41 0 1.04 0.27 1.85 0.82 2.43 0.55 0.58 1.29 0.87 2.23 0.87 0.77 0 1.38-0.16 1.83-0.49C-0.52 1.18-0.2 0.68 0 0" fill="#343433"/></g><g transform="translate(340.6469,87.827419)"><path d="m0 0c0-0.62 0.15-1.1 0.45-1.43 0.3-0.33 0.66-0.5 1.1-0.5 0.43 0 0.8 0.17 1.09 0.5 0.29 0.33 0.44 0.81 0.44 1.45 0 0.62-0.15 1.09-0.44 1.42C2.34 1.77 1.98 1.93 1.54 1.93 1.11 1.93 0.74 1.77 0.45 1.44 0.15 1.1 0 0.63 0 0m-1.71 0.09c0 0.55 0.14 1.09 0.41 1.61 0.27 0.52 0.66 0.91 1.16 1.19 0.5 0.27 1.06 0.41 1.68 0.41 0.95 0 1.73-0.31 2.34-0.93 0.61-0.62 0.91-1.4 0.91-2.34 0-0.95-0.31-1.74-0.92-2.37-0.61-0.63-1.39-0.94-2.32-0.94-0.58 0-1.13 0.13-1.65 0.39-0.52 0.26-0.92 0.64-1.19 1.15-0.27 0.5-0.41 1.12-0.41 1.84" fill="#343433"/></g><path d="m353.78 86.35 1.67 0 0-1.66-1.66 0 0 1.67z" fill="#343433"/><g transform="translate(367.0784,90.974919)"><path d="m0 0 0-1.33-1.14 0 0-2.54c0-0.51 0.01-0.81 0.03-0.9 0.02-0.08 0.07-0.16 0.15-0.21 0.08-0.05 0.17-0.08 0.28-0.08 0.16 0 0.38 0.05 0.67 0.16l0.14-1.29c-0.39-0.17-0.83-0.25-1.32-0.25-0.3 0-0.57 0.05-0.81 0.15-0.24 0.1-0.42 0.23-0.53 0.39-0.11 0.16-0.19 0.38-0.23 0.65-0.04 0.19-0.05 0.58-0.05 1.17l0 2.74-0.76 0 0 1.33 0.77 0 0 1.25 1.67 0.97L-1.14 0 0 0z" fill="#343433"/></g><g transform="translate(376.9338,93.369019)"><path d="m0 0 0-3.19c0.54 0.63 1.18 0.94 1.93 0.94 0.38 0 0.73-0.07 1.04-0.21 0.31-0.14 0.54-0.32 0.7-0.55 0.16-0.22 0.26-0.47 0.32-0.74 0.06-0.27 0.09-0.68 0.09-1.25l0-3.69-1.66 0 0 3.33c0 0.66-0.03 1.08-0.09 1.26-0.06 0.18-0.17 0.32-0.33 0.42-0.16 0.1-0.36 0.16-0.6 0.16-0.28 0-0.52-0.07-0.74-0.2C0.41-3.86 0.25-4.06 0.15-4.34 0.05-4.61 0-5.01 0-5.54l0-3.15-1.66 0 0 8.69L0 0z" fill="#343433"/></g></g></svg>