<svg xmlns:svg="http://www.w3.org/2000/svg" xmlns="http://www.w3.org/2000/svg" version="1.1" width="598.55" height="598.55" xml:space="preserve"><defs><clipPath clipPathUnits="userSpaceOnUse"><path d="m0 1141 1401 0L1401 0 0 0 0 1141z"/></clipPath></defs><g transform="matrix(1.25,0,0,-1.25,-575.88937,1023.9328)"><g transform="translate(0,2.5731949)"><g clip-path="url(#clipPath16)"><g transform="translate(654.9307,682.6699)"><path d="m0 0c-1.918 1.42-4.93 2.33-9.032 2.33l-12.899 0 0-17 12.899 0c4.102 0 7.114 0.371 9.032 1.744 1.918 1.371 2.878 3.512 2.878 6.427C2.878-3.585 1.918-1.42 0 0m238.069-73.67-192 0 0-192-159.166 0c-18.513 0-33.834 14.996-33.834 33.509l0 158.491 193 0 0 192 158.174 0c18.514 0 33.826-14.637 33.826-33.15l0-158.85zm-44-108-40 0 0-40-27 0 0 40-39 0 0 25 39 0 0 41 27 0 0-41 40 0 0-25zm-312 198 19 0 0-43.757c0-2.502 0.048-4.712 0.558-6.63 0.511-1.919 1.128-3.521 2.269-4.807 1.141-1.288 2.622-2.265 4.443-2.933 1.822-0.669 4.043-1.001 6.666-1.001 2.428 0 4.471 0.332 6.135 1.001 1.662 0.668 3.003 1.645 4.035 2.933 1.033 1.286 1.765 2.888 2.228 4.807 0.461 1.918 0.666 4.128 0.666 6.63l0 43.757 19 0 0-45.251c0-4.784-0.902-8.96-2.408-12.53-1.505-3.57-3.792-6.537-6.559-8.906-2.769-2.368-6.107-4.14-10.017-5.318-3.91-1.178-8.266-1.766-13.073-1.766-5.004 0-9.53 0.552-13.584 1.657-4.056 1.105-7.514 2.823-10.392 5.154-2.877 2.331-5.084 5.294-6.648 8.888-1.569 3.594-2.319 7.868-2.319 12.821l0 45.251zm0 85 23 0 0-57 42 0 0-16-65 0 0 73zM21.526-6.237c0-3.57-0.588-6.749-1.765-9.589-1.179-2.842-2.877-5.191-5.1-7.158-2.223-1.967-4.941-3.365-8.159-4.409-3.217-1.045-6.855-1.277-10.908-1.277l-17.525 0 0-28-17 0 0 73 34.525 0c4.053 0 7.691-0.389 10.908-1.408 3.218-1.02 5.936-2.386 8.159-4.34 2.223-1.955 3.921-4.333 5.1-7.162 1.177-2.829 1.765-6.039 1.765-9.657M-26.809 101.33-12.495 55.836 1.82 101.33l19.706 0-25.206-73-18.212 0-24.915 73 19.998 0zm230.544 30-317.332 0c-25.59 0-46.334-20.745-46.334-46.334l0-317.332c0-25.59 20.744-46.334 46.334-46.334l317.332 0c25.59 0 46.334 20.744 46.334 46.334l0 317.332c0 25.589-20.744 46.334-46.334 46.334" fill="#f15a24"/></g><g transform="translate(785.458,716.0596)"><path d="M0 0-13.133-13.131 56.403-82.666 87.505-87.506 0 0z" fill="#f15a24"/></g><g transform="translate(788.5205,719.1221)"><path d="M0 0 13.57 13.57 83.104-55.965 87.506-87.504 0 0z" fill="#f15a24"/></g><g transform="translate(803.9658,746.5732)"><path d="m0 0c-2.003 2.004-5.25 2.004-7.253 0l-38.268-38.268c-2.002-2.002-2.002-5.25 0-7.253l0.187-0.188c2.004-2.002 5.25-2.003 7.255 0L0.188-7.44c2.003 2.002 2.001 5.249-0.001 7.252L0 0z" fill="#f15a24"/></g><g transform="translate(777.5781,744.9473)"><path d="M0 0-17.945-17.946-10.94-24.949 7.005-7.003 0 0z" fill="#f15a24"/></g><g transform="translate(767.9492,754.5762)"><path d="m0 0-17.946-17.944 7.005-7.004L7.003-7.003 0 0z" fill="#f15a24"/></g><g transform="translate(758.3203,764.2051)"><path d="m0 0-17.946-17.944 7.003-7.004L7.003-7.002 0 0z" fill="#f15a24"/></g><g transform="translate(736.3389,777.939)"><path d="m0 0c-2.559 0-4.966-0.997-6.776-2.807-3.735-3.735-3.735-9.814 0-13.549 1.809-1.809 4.215-2.805 6.775-2.805 2.56 0 4.965 0.996 6.773 2.806 1.811 1.81 2.808 4.215 2.808 6.774 0 2.559-0.997 4.965-2.807 6.775C4.964-0.996 2.559 0 0 0m-0.001-25.462-0.001 0c-4.242 0-8.23 1.651-11.229 4.65-6.193 6.192-6.193 16.269-0.001 22.461C-8.23 4.65-4.241 6.302 0 6.302c4.242 0 8.23-1.653 11.229-4.653 3-2.999 4.652-6.987 4.652-11.23 0-4.242-1.652-8.231-4.652-11.23-2.999-3-6.988-4.651-11.23-4.651" fill="#f15a24"/></g><g transform="translate(652.3467,521.8252)"><path d="m0 0c-5.714-31.617-21.751-55.104-47.688-69.864-5.307 2.918-17.518 10.583-28.504 24.399-18.654 23.46-25.492 53.143-20.347 88.264 7.222 2.803 26.515 9.284 50.457 9.284 16.655 0 32.49-3.097 47.12-9.209C1.944 36.048 3.475 19.219 0 0m6.828 47.34c-55.384 25.086-109.139 0-109.139 0-15.638-93.501 54.734-124.451 54.734-124.451C23.771-39.321 6.828 47.34 6.828 47.34" fill="#f15a24"/></g><g transform="translate(604.6406,467.0518)"><path d="m0 0c-5.142 3.563-12.04 9.213-18.457 17.283-15.017 18.887-21.266 42.68-18.617 70.814 8.715 2.705 22.531 5.947 38.698 5.947 12.294 0 24.083-1.873 35.147-5.577C37.276 80.804 37.34 69.455 35.098 57.053 30.58 32.058 18.785 12.9 0 0" fill="#f15a24"/></g><g transform="translate(468.2705,377.5723)"><path d="m0 0 0-23.159 13.271 0 0-6.123-20.83 0L-7.559 0 0 0z" fill="#f15a24"/></g><g transform="translate(506.1953,377.5723)"><path d="m0 0 0-5.889-14.766 0 0-5.507 13.682 0 0-5.772-13.682 0 0-6.299 14.825 0 0-5.815-22.325 0 0 29.282L0 0z" fill="#f15a24"/></g><g transform="translate(517.2988,348.29)"><path d="m0 0-10.02 29.282 8.042 0 5.757-18.296 5.757 18.296 7.925 0L7.324 0 0 0z" fill="#f15a24"/></g><g transform="translate(559.1201,377.5723)"><path d="m0 0 0-5.889-14.766 0 0-5.507 13.682 0 0-5.772-13.682 0 0-6.299 14.825 0 0-5.815-22.325 0 0 29.282L0 0z" fill="#f15a24"/></g><g transform="translate(569.8574,377.5723)"><path d="m0 0 0-23.159 13.271 0 0-6.123-20.83 0L-7.559 0 0 0z" fill="#f15a24"/></g><g transform="translate(611.6201,359.2764)"><path d="m0 0c0-1.924-0.303-3.604-0.908-5.039-0.606-1.436-1.465-2.629-2.578-3.582-1.114-0.951-2.456-1.665-4.029-2.139-1.572-0.472-3.325-0.71-5.258-0.71-2.012 0-3.833 0.223-5.464 0.667-1.631 0.444-3.026 1.135-4.182 2.073-1.158 0.937-2.051 2.128-2.682 3.574-0.628 1.445-0.944 3.164-0.944 5.156l0 18.296 7.5 0 0-17.695c0-1.006 0.103-1.895 0.308-2.666 0.205-0.772 0.537-1.416 0.996-1.934 0.459-0.518 1.054-0.911 1.787-1.179 0.732-0.269 1.626-0.403 2.681-0.403 0.976 0 1.799 0.134 2.467 0.403 0.67 0.268 1.211 0.661 1.627 1.179 0.414 0.518 0.715 1.162 0.901 1.934 0.185 0.771 0.278 1.66 0.278 2.666l0 17.695 7.5 0L0 0z" fill="#f15a24"/></g><g transform="translate(627.8945,364.8428)"><path d="M0 0C1.65-0.029 2.861 0.231 3.633 0.783 4.404 1.335 4.79 2.197 4.79 3.369 4.79 4.541 4.404 5.412 3.633 5.984 2.861 6.555 1.65 6.841 0 6.841l-5.112 0L-5.112 0 0 0zm1.86 12.729c1.631 0 3.093-0.205 4.388-0.615C7.541 11.704 8.635 11.105 9.529 10.32 10.422 9.533 11.105 8.571 11.58 7.434 12.053 6.296 12.29 5 12.29 3.545 12.29 2.109 12.053 0.82 11.58-0.322 11.105-1.465 10.422-2.432 9.529-3.223 8.635-4.014 7.541-4.619 6.248-5.039 4.953-5.459 3.491-5.659 1.86-5.64l-6.972 0 0-10.913-6.9 0 0 29.282 13.872 0z" fill="#f15a24"/></g><g transform="translate(665.0869,364.8428)"><path d="M0 0C1.65-0.029 2.861 0.231 3.633 0.783 4.404 1.335 4.79 2.197 4.79 3.369 4.79 4.541 4.404 5.412 3.633 5.984 2.861 6.555 1.65 6.841 0 6.841l-5.112 0L-5.112 0 0 0zm1.86 12.729c1.631 0 3.094-0.205 4.387-0.615C7.542 11.704 8.636 11.105 9.528 10.32 10.423 9.533 11.106 8.571 11.579 7.434 12.054 6.296 12.29 5 12.29 3.545 12.29 2.109 12.054 0.82 11.579-0.322 11.106-1.465 10.423-2.432 9.528-3.223 8.636-4.014 7.542-4.619 6.247-5.039 4.954-5.459 3.491-5.659 1.86-5.64l-6.972 0 0-10.913-6.9 0 0 29.282 13.872 0z" fill="#f15a24"/></g><g transform="translate(687.6309,377.5723)"><path d="m0 0 0-23.159 13.271 0 0-6.123-20.83 0L-7.559 0 0 0z" fill="#f15a24"/></g><g transform="translate(729.3936,359.2764)"><path d="m0 0c0-1.924-0.303-3.604-0.908-5.039-0.606-1.436-1.465-2.629-2.578-3.582-1.114-0.951-2.456-1.665-4.029-2.139-1.572-0.472-3.325-0.71-5.258-0.71-2.012 0-3.833 0.223-5.464 0.667-1.631 0.444-3.026 1.135-4.182 2.073-1.158 0.937-2.051 2.128-2.682 3.574-0.628 1.445-0.944 3.164-0.944 5.156l0 18.296 7.5 0 0-17.695c0-1.006 0.103-1.895 0.308-2.666 0.205-0.772 0.537-1.416 0.996-1.934 0.459-0.518 1.054-0.911 1.787-1.179 0.732-0.269 1.626-0.403 2.681-0.403 0.976 0 1.799 0.134 2.467 0.403 0.67 0.268 1.211 0.661 1.627 1.179 0.414 0.518 0.715 1.162 0.901 1.934 0.185 0.771 0.278 1.66 0.278 2.666l0 17.695 7.5 0L0 0z" fill="#f15a24"/></g><g transform="translate(739.4277,358.1924)"><path d="m0 0c0-0.889 0.156-1.641 0.469-2.256 0.312-0.615 0.736-1.116 1.275-1.502 0.535-0.386 1.16-0.666 1.875-0.842 0.711-0.175 1.465-0.263 2.256-0.263 0.506 0 1.061 0.039 1.662 0.117 0.6 0.078 1.158 0.226 1.678 0.447 0.515 0.219 0.949 0.529 1.295 0.93 0.347 0.4 0.521 0.923 0.521 1.567 0 0.625-0.222 1.159-0.668 1.605C9.92 0.246 9.324 0.635 8.576 0.967 7.83 1.299 6.967 1.599 5.992 1.867 5.014 2.136 3.994 2.412 2.93 2.695 2.197 2.9 1.443 3.127 0.666 3.377-0.109 3.625-0.867 3.918-1.604 4.256-2.342 4.592-3.039 4.98-3.699 5.42-4.357 5.859-4.934 6.365-5.428 6.936-5.92 7.508-6.311 8.156-6.6 8.885c-0.287 0.726-0.431 1.545-0.431 2.453 0 1.025 0.154 1.955 0.461 2.791 0.308 0.834 0.74 1.576 1.297 2.226 0.556 0.649 1.212 1.208 1.97 1.677 0.756 0.469 1.584 0.857 2.483 1.165 0.898 0.307 1.847 0.534 2.849 0.681 1 0.146 2.024 0.22 3.069 0.22 1.709 0 3.314-0.184 4.82-0.549 1.502-0.367 2.814-0.938 3.932-1.715 1.119-0.775 2-1.77 2.644-2.98 0.645-1.211 0.967-2.662 0.967-4.351l-7.441 0C9.971 11.235 9.809 11.851 9.537 12.349 9.262 12.847 8.9 13.247 8.453 13.55 8.002 13.853 7.475 14.07 6.871 14.201 6.264 14.334 5.611 14.399 4.908 14.399 4.381 14.399 3.883 14.357 3.414 14.275 2.945 14.191 2.531 14.05 2.176 13.85 1.818 13.649 1.535 13.386 1.326 13.059 1.115 12.731 1.012 12.319 1.012 11.821 1.012 11.577 1.047 11.346 1.121 11.125 1.193 10.906 1.336 10.69 1.545 10.48 1.756 10.271 2.049 10.057 2.424 9.836 2.801 9.617 3.289 9.387 3.889 9.148 4.49 8.908 5.217 8.654 6.072 8.387 6.926 8.117 7.939 7.822 9.111 7.5 9.473 7.402 9.953 7.273 10.555 7.111 11.154 6.951 11.801 6.733 12.496 6.46 13.188 6.187 13.891 5.842 14.605 5.428 15.316 5.012 15.959 4.499 16.531 3.889 17.102 3.278 17.568 2.557 17.93 1.721c0.361-0.834 0.543-1.809 0.543-2.922 0-1.406-0.264-2.688-0.791-3.846-0.528-1.156-1.325-2.148-2.389-2.973-1.064-0.826-2.4-1.464-4.006-1.919-1.607-0.454-3.49-0.681-5.646-0.681-1.184 0-2.328 0.095-3.436 0.286-1.109 0.189-2.148 0.478-3.121 0.863-0.971 0.386-1.859 0.872-2.666 1.458-0.805 0.586-1.496 1.272-2.072 2.058-0.576 0.786-1.021 1.675-1.333 2.666C-7.3-2.298-7.451-1.201-7.441 0L0 0z" fill="#f15a24"/></g><g transform="translate(790.3594,367.7285)"><path d="m0 0c-0.107 0.703-0.322 1.338-0.645 1.904-0.322 0.567-0.734 1.045-1.236 1.436-0.504 0.39-1.09 0.69-1.758 0.901-0.67 0.209-1.4 0.315-2.191 0.315-0.918 0-1.74-0.122-2.467-0.367-0.728-0.244-1.369-0.584-1.92-1.018-0.553-0.435-1.021-0.951-1.406-1.553-0.387-0.599-0.701-1.25-0.945-1.947-0.245-0.699-0.422-1.439-0.534-2.22-0.113-0.781-0.169-1.572-0.169-2.373 0-0.762 0.058-1.514 0.175-2.256 0.117-0.742 0.303-1.448 0.557-2.116 0.254-0.67 0.576-1.289 0.967-1.861 0.39-0.571 0.861-1.067 1.414-1.487 0.551-0.42 1.187-0.747 1.904-0.981 0.719-0.234 1.525-0.352 2.424-0.352 1.767 0 3.16 0.508 4.176 1.524 1.015 1.015 1.644 2.485 1.888 4.409l7.442 0C7.51-9.868 7.051-11.521 6.299-13.001 5.547-14.479 4.572-15.739 3.377-16.78c-1.197-1.039-2.58-1.843-4.152-2.409-1.573-0.567-3.258-0.85-5.055-0.85-2.432 0-4.58 0.366-6.445 1.099-1.866 0.732-3.43 1.762-4.694 3.09-1.265 1.329-2.224 2.92-2.879 4.776-0.654 1.855-0.982 3.906-0.982 6.152 0 2.266 0.328 4.346 0.982 6.24 0.655 1.895 1.614 3.528 2.879 4.9 1.264 1.372 2.828 2.439 4.694 3.201 1.865 0.762 4.013 1.143 6.445 1.143 1.074 0 2.129-0.106 3.164-0.315C-1.631 10.036-0.645 9.729 0.293 9.323 1.23 8.918 2.105 8.418 2.916 7.822 3.727 7.227 4.443 6.538 5.068 5.757 5.693 4.976 6.211 4.104 6.621 3.142 7.031 2.18 7.301 1.133 7.428 0L0 0z" fill="#f15a24"/></g><g transform="translate(806.7949,362.9238)"><path d="m0 0c0-0.752 0.061-1.499 0.184-2.241 0.121-0.742 0.314-1.45 0.578-2.124 0.263-0.674 0.595-1.299 0.996-1.875 0.4-0.576 0.881-1.077 1.443-1.501 0.561-0.426 1.203-0.76 1.926-1.004 0.723-0.244 1.533-0.366 2.432-0.366 0.918 0 1.746 0.122 2.484 0.366 0.736 0.244 1.391 0.578 1.963 1.004 0.57 0.424 1.058 0.925 1.465 1.501 0.404 0.576 0.738 1.201 1.002 1.875 0.263 0.674 0.457 1.382 0.58 2.124 0.121 0.742 0.181 1.489 0.181 2.241 0 0.752-0.06 1.501-0.181 2.249-0.123 0.746-0.317 1.459-0.58 2.139-0.264 0.677-0.598 1.31-1.002 1.896C13.064 6.87 12.576 7.378 12.006 7.808 11.434 8.237 10.779 8.574 10.043 8.818 9.305 9.063 8.477 9.185 7.559 9.185 6.66 9.185 5.85 9.063 5.127 8.818 4.404 8.574 3.762 8.237 3.201 7.808 2.639 7.378 2.158 6.87 1.758 6.284 1.357 5.698 1.025 5.065 0.762 4.388 0.498 3.708 0.305 2.995 0.184 2.249 0.061 1.501 0 0.752 0 0m-7.559 0c0 1.367 0.135 2.697 0.405 3.991 0.267 1.294 0.675 2.508 1.222 3.641 0.547 1.133 1.235 2.17 2.065 3.113 0.83 0.942 1.804 1.75 2.924 2.424 1.117 0.674 2.384 1.198 3.8 1.574 1.416 0.376 2.983 0.565 4.702 0.565 1.718 0 3.291-0.189 4.716-0.565 1.426-0.376 2.704-0.905 3.832-1.589 1.127-0.683 2.112-1.497 2.952-2.438 0.839-0.944 1.537-1.984 2.093-3.121 0.557-1.138 0.973-2.349 1.246-3.633 0.274-1.284 0.411-2.605 0.411-3.962 0-1.377-0.137-2.71-0.411-3.999-0.273-1.289-0.687-2.495-1.238-3.618-0.553-1.123-1.244-2.149-2.08-3.076-0.834-0.928-1.818-1.724-2.951-2.388-1.133-0.664-2.412-1.18-3.838-1.545-1.426-0.367-3.004-0.55-4.732-0.55-1.719 0-3.286 0.186-4.702 0.557-1.416 0.371-2.683 0.889-3.8 1.553-1.12 0.664-2.094 1.462-2.924 2.395-0.83 0.932-1.518 1.96-2.065 3.083-0.547 1.123-0.955 2.326-1.222 3.61-0.27 1.285-0.405 2.611-0.405 3.978" fill="#f15a24"/></g><path d="m839.842 348.29-6.826 0 0 6.841 6.826 0 0-6.841z" fill="#f15a24"/><g transform="translate(852.3223,354.8232)"><path d="m0 0 0-5.815c0-0.889-0.117-1.783-0.352-2.681-0.234-0.899-0.615-1.74-1.142-2.527-0.527-0.786-1.223-1.487-2.086-2.102-0.865-0.615-1.928-1.079-3.188-1.392l0 4.38c0.372 0.088 0.705 0.247 1.004 0.477 0.297 0.229 0.549 0.5 0.754 0.812 0.205 0.313 0.362 0.66 0.469 1.04 0.107 0.381 0.162 0.767 0.162 1.158l-2.447 0 0 6.65L0 0z" fill="#f15a24"/></g><g transform="translate(864.8027,377.5723)"><path d="m0 0 0-23.159 13.271 0 0-6.123-20.83 0L-7.559 0 0 0z" fill="#f15a24"/></g><g transform="translate(876.9316,371.6836)"><path d="m0 0 0 5.889 23.277 0 0-5.889-7.925 0 0-23.394-7.559 0L7.793 0 0 0z" fill="#f15a24"/></g><g transform="translate(913.875,353.9883)"><path d="m0 0c0.361 0 0.809 0.024 1.342 0.073 0.531 0.049 1.09 0.171 1.676 0.366 0.586 0.196 1.171 0.486 1.757 0.873 0.586 0.384 1.112 0.915 1.577 1.588 0.462 0.674 0.841 1.511 1.134 2.513 0.293 1 0.44 2.219 0.44 3.654 0 1.436-0.133 2.701-0.397 3.794-0.263 1.094-0.697 2.009-1.302 2.747-0.606 0.737-1.407 1.291-2.403 1.663-0.996 0.371-2.232 0.556-3.707 0.556l-3.779 0L-3.662 0 0 0zm0.059 23.584c2.353 0 4.476-0.273 6.365-0.82 1.89-0.547 3.496-1.39 4.82-2.527 1.322-1.138 2.34-2.589 3.053-4.351 0.713-1.763 1.07-3.86 1.07-6.291 0-2.51-0.312-4.717-0.937-6.621C13.805 1.069 12.857-0.525 11.588-1.81 10.318-3.094 8.725-4.063 6.805-4.717 4.887-5.371 2.637-5.698 0.059-5.698l-11.221 0 0 29.282 11.221 0z" fill="#f15a24"/></g><path d="m939.555 348.29-6.826 0 0 6.841 6.826 0 0-6.841z" fill="#f15a24"/></g></g></g></svg>