<svg xmlns="http://www.w3.org/2000/svg" version="1.1" baseProfile="basic" x="0" y="0" viewBox="0 0 2551.2 2551.2" xml:space="preserve"><path d="M1094.8 2150.4c0 2.4-1.2 3.5-3.7 3.5h-17.4c-2.5 0-3.7-1.2-3.7-3.5v-98.1c0-10.5-3.8-19.6-11.4-27.4 -7.4-7.5-15.3-11.3-23.9-11.3 -8.2 0-15.9 3.8-23.1 11.3 -7.7 7.9-11.6 17.1-11.6 27.4v98.1c0 2.4-1.2 3.5-3.6 3.5h-17.6c-2.3 0-3.5-1.2-3.5-3.5v-98.1c0-10.5-3.9-19.6-11.6-27.4 -7.2-7.5-15.2-11.3-23.9-11.3 -8.2 0-15.9 3.8-23.2 11.3 -7.6 7.9-11.4 17.1-11.4 27.4v98.1c0 2.4-1.2 3.5-3.7 3.5h-17.4c-2.4 0-3.7-1.2-3.7-3.5v-154c0-2.4 1.2-3.6 3.7-3.6h13.6c2.4 0 3.6 1.2 3.6 3.6v14.6c0 2.9 1 4.4 3 4.4 1 0 2.1-0.6 3.2-1.8 11.8-13.9 23.9-20.8 36.5-20.8 17.1 0 30.6 7.2 40.7 21.6 0.8 1.2 1.8 1.7 3 1.7 0.7 0 1.7-0.6 2.9-1.7 10.8-14.4 25.4-21.6 44-21.6 17.2 0 31.5 5.6 43 16.7 11.4 11.1 17.1 25.3 17.1 42.8V2150.4z"/><path d="M1174.8 2150.4c0 2.4-1.2 3.5-3.5 3.5h-17.3c-2.4 0-3.6-1.2-3.6-3.5v-222.2c0-2.4 1.2-3.6 3.6-3.6h17.3c2.4 0 3.5 1.2 3.5 3.6V2150.4z"/><path d="M1357.5 2150.4c0 2.4-1.2 3.5-3.6 3.5h-17.6c-2.4 0-3.6-1.2-3.6-3.5v-98.1c0-10.5-3.9-19.6-11.6-27.2 -7.7-7.6-16.9-11.4-27.4-11.4 -10.8 0-20 3.8-27.5 11.3 -7.5 7.4-11.2 16.6-11.2 27.4v98.1c0 2.4-1.2 3.5-3.7 3.5h-17.3c-2.5 0-3.7-1.2-3.7-3.5v-154c0-2.4 1.2-3.6 3.7-3.6h13.5c2.4 0 3.6 1.2 3.6 3.6v14.6c0 2.7 1.2 4.1 3.4 4.1 1.2 0 2.3-0.6 3.2-1.9 10.8-13.6 22.9-20.3 36.1-20.3 19.3 0 34.7 5.5 46.3 16.5 11.6 11 17.5 25.3 17.5 43V2150.4z"/><path d="M1469.3 2153.6c0 2.4-1.1 3.6-3.2 3.6 -3.3 0-8.3-1.1-15-3.2 -27-8.8-40.6-27.4-40.6-56v-80.7c0-2.4-1.2-3.6-3.6-3.6h-21.2c-2.3 0-3.5-1.2-3.5-3.7v-6.9l39.5-41.8c1.5-1.8 3-2.7 4.3-2.7h5.5c2.5 0 3.7 1.2 3.7 3.7v26.9c0 2.5 1.2 3.7 3.6 3.7h26.9c2.4 0 3.6 1.2 3.6 3.6v13.5c0 2.5-1.2 3.7-3.6 3.7h-26.9c-2.4 0-3.6 1.2-3.6 3.6v80.7c0 9.2 2.8 17.3 8.3 24 5.6 7.1 13.2 11.7 22.9 13.9 1.9 0.3 2.9 1.5 2.9 3.5V2153.6z"/><path d="M1625.9 2070.8c0 2.4-1.2 3.7-3.5 3.7h-95.3c-2.4 0-3.5 1.2-3.5 3.6v19.7c0 10.5 3.8 19.6 11.4 27.3 7.6 7.7 16.7 11.5 27.2 11.5 13.7 0 25.2-6.8 34.7-20.6 0.6-1 1.4-1.4 2.5-1.4 0.7 0 2 0.5 3.9 1.4l13.2 6.6c1.6 0.8 2.4 1.9 2.4 3.2 0 1.8-2.7 5.8-8 12.1 -11 13-27.2 19.6-48.8 19.6 -19.1 0-34.4-5.4-45.8-16.4 -11.5-11-17.2-25.4-17.2-43.2v-49.3c0-15.1 5.6-28.5 16.9-40.3 12.3-12.8 27.7-19.2 46.1-19.2 18.4 0 33.9 6.4 46.5 19.2 11.5 11.9 17.2 25.3 17.2 40.3V2070.8zM1601.2 2053.9v-5.2c0-10.6-3.9-19.7-11.6-27.3 -7.7-7.6-16.8-11.5-27.4-11.5 -10.8 0-19.9 3.8-27.4 11.3 -7.5 7.6-11.2 16.7-11.2 27.4v5.2c0 2.4 1.2 3.6 3.5 3.6h70.5C1600 2057.4 1601.2 2056.2 1601.2 2053.9z"/><path d="M1736.8 2014.4c0 2.4-1.5 3.5-4.4 3.5h-5.4c-11 0-20.1 3.7-27.6 11 -7.4 7.3-11.2 16.3-11.2 27v94.5c0 2.4-1.2 3.5-3.7 3.5h-17.3c-2.5 0-3.7-1.2-3.7-3.5v-154c0-2.4 1.2-3.6 3.8-3.6h13.5c2.4 0 3.5 1.2 3.5 3.6v18.3c0 2.6 1.2 3.9 3.4 3.9 1.2 0 2.2-0.6 3.2-1.8 12.7-16 24.7-24 36.2-24h6.2c2.4 0 3.5 1.2 3.5 3.6V2014.4z"/><path d="M1878.2 2150.4c0 2.4-1.2 3.5-3.8 3.5h-13.3c-2.5 0-3.7-1.2-3.7-3.5v-15.8c0-2.9-1.1-4.3-3.2-4.3 -1.2 0-2.3 0.6-3.4 1.8 -12.6 14.6-24.1 21.9-34.5 21.9h-14.6c-13 0-24-3.9-32.8-11.8 -8.8-7.9-13.1-18.2-13.1-30.9v-2.2c0-12.7 4.4-22.9 13.1-30.6 8.8-7.7 19.8-11.5 32.8-11.5h48.1c2.5 0 3.8-1.2 3.8-3.4v-14.9c0-10.7-3.8-19.7-11.4-27 -7.6-7.3-16.9-10.9-27.8-10.9 -13.9 0-25.3 6.6-34.2 20.1 -0.9 1.2-1.8 1.7-2.9 1.7 -0.8 0-2.2-0.5-4.1-1.4l-13.2-7c-1.4-0.8-2.1-1.8-2.1-2.9 0-1.7 2.3-5.3 6.9-11 11-13.7 27.6-20.5 49.5-20.5 19.3 0 34.8 5.4 46.5 16.1 11.6 10.8 17.5 25 17.5 42.7V2150.4zM1853.5 2101.4v-13.9c0-2.4-1.3-3.6-3.8-3.6h-48.1c-6 0-11.2 2.1-15.3 6.2 -4.2 4.2-6.2 9.3-6.2 15.4v5.6c0 5.9 2.1 11.1 6.4 15.4 4.2 4.4 9.3 6.5 15.1 6.5h14.6c7.8 0 15.4-3.4 22.6-10.2C1845.4 2117 1850.3 2109.8 1853.5 2101.4z"/><path d="M2036.8 2125.8c0 1.7-2.6 5.7-8 12.1 -10.9 13-27.2 19.6-48.8 19.6 -19.1 0-34.4-5.4-45.8-16.4 -11.5-11-17.2-25.4-17.2-43.2v-49.3c0-17.8 5.7-32.2 17.1-43.1 11.4-10.9 26.7-16.4 45.9-16.4 21.6 0 37.9 6.4 48.8 19 5.4 6.2 8 10.2 8 11.9 0 1.5-0.8 2.6-2.4 3.4l-13.2 6.6c-1.9 1-3.2 1.5-3.9 1.5 -1.1 0-1.9-0.5-2.5-1.5 -9.5-13.4-21.1-20.1-34.7-20.1 -10.8 0-19.9 3.8-27.4 11.3 -7.5 7.6-11.2 16.6-11.2 27.3v49.2c0 10.5 3.9 19.7 11.4 27.4 7.6 7.7 16.6 11.5 27.2 11.5 13.7 0 25.2-6.8 34.7-20.6 0.6-1 1.4-1.4 2.5-1.4 0.7 0 2.3 0.6 4.8 1.8l12.3 6.2C2036 2123.4 2036.8 2124.5 2036.8 2125.8z"/><path d="M2139.7 2153.6c0 2.4-1 3.6-3.2 3.6 -3.3 0-8.3-1.1-14.9-3.2 -27.1-8.8-40.6-27.4-40.6-56v-80.7c0-2.4-1.2-3.6-3.5-3.6h-21.2c-2.4 0-3.6-1.2-3.6-3.7v-6.9l39.6-41.8c1.6-1.8 3-2.7 4.3-2.7h5.5c2.4 0 3.7 1.2 3.7 3.7v26.9c0 2.5 1.2 3.7 3.6 3.7h26.9c2.4 0 3.6 1.2 3.6 3.6v13.5c0 2.5-1.2 3.7-3.6 3.7h-26.9c-2.4 0-3.6 1.2-3.6 3.6v80.7c0 9.2 2.7 17.3 8.3 24 5.6 7.1 13.2 11.7 22.9 13.9 1.9 0.3 2.8 1.5 2.8 3.5V2153.6z"/><path d="M2214 1936.5c0 4.4-1.7 8.3-4.9 11.6 -3.2 3.3-7.1 5-11.5 5 -4.5 0-8.2-1.6-11.2-4.8 -2.9-3.2-4.5-7.1-4.5-11.7 0-4.1 1.6-7.8 4.7-11.1 3.2-3.3 6.8-4.9 11-4.9 4.7 0 8.5 1.6 11.7 4.6C2212.4 1928.2 2214 1932 2214 1936.5zM2210.3 2150.4c0 2.4-1.2 3.5-3.7 3.5h-17.4c-2.4 0-3.7-1.2-3.7-3.5v-154c0-2.4 1.2-3.6 3.7-3.6h17.4c2.4 0 3.7 1.2 3.7 3.6V2150.4z"/><path d="M2383.1 2097.8c0 17.7-5.8 32-17.4 43.1 -11.7 11-27.1 16.5-46.3 16.5 -19.1 0-34.4-5.4-45.8-16.4 -11.5-11-17.2-25.4-17.2-43.2v-49.3c0-17.8 5.7-32.2 17.1-43.1 11.4-10.9 26.7-16.4 46-16.4 19.2 0 34.6 5.4 46.3 16.4 11.6 10.9 17.4 25.3 17.4 43.1V2097.8zM2358.4 2097.7v-49.2c0-10.6-3.9-19.6-11.6-27.2 -7.7-7.6-16.8-11.4-27.4-11.4 -10.8 0-20 3.8-27.4 11.3 -7.5 7.6-11.2 16.6-11.2 27.3v49.2c0 10.5 3.8 19.7 11.4 27.4 7.6 7.7 16.7 11.5 27.3 11.5 10.6 0 19.7-3.8 27.4-11.5C2354.5 2117.4 2358.4 2108.3 2358.4 2097.7z"/><path d="M2550.5 2150.4c0 2.4-1.2 3.5-3.6 3.5h-17.6c-2.4 0-3.6-1.2-3.6-3.5v-98.1c0-10.5-3.9-19.6-11.6-27.2 -7.8-7.6-16.9-11.4-27.5-11.4 -10.8 0-20 3.8-27.5 11.3 -7.5 7.4-11.2 16.6-11.2 27.4v98.1c0 2.4-1.3 3.5-3.7 3.5h-17.3c-2.5 0-3.7-1.2-3.7-3.5v-154c0-2.4 1.2-3.6 3.7-3.6h13.5c2.4 0 3.6 1.2 3.6 3.6v14.6c0 2.7 1.1 4.1 3.4 4.1 1.2 0 2.3-0.6 3.2-1.9 10.8-13.6 22.8-20.3 36.1-20.3 19.2 0 34.7 5.5 46.3 16.5 11.7 11 17.5 25.3 17.5 43V2150.4z"/><path opacity="0.3" fill="#009EE2" d="M1175.8 1840.5c0 0 155.9-343.4 127.7-529.4 -24.7-163.2-97.5-373.1-367.6-441.8 -360.1-91.5-555.8 273-420 537.6C651 1670.3 1175.8 1840.5 1175.8 1840.5z"/><path opacity="0.5" fill="#009EE2" d="M1164.7 1860.7c0 0 216.5-131.9 271.2-245.9 48-100 86.8-244.3-37.3-384.6 -165.4-187.1-412.1-58.5-436.7 139.9C937.4 1567.5 1164.7 1860.7 1164.7 1860.7z"/><path opacity="0.7" fill="#009EE2" d="M1166.3 1869.8c0 0 195.9-549.4 128.4-832.5 -59.2-248.3-198.6-562.5-623.9-633.4C104 309.4-150.6 896.7 92.8 1286.9 335.2 1675.4 1166.3 1869.8 1166.3 1869.8z"/><path opacity="0.35" fill="#009EE2" d="M1164.5 1868.5c0 0 281.9-171.7 353.1-320.2 62.5-130.2 113.2-318-48.5-500.7 -215.4-243.5-536.5-76.2-568.6 182.1C868.6 1486.9 1164.5 1868.5 1164.5 1868.5z"/></svg>
