<svg xmlns:svg="http://www.w3.org/2000/svg" xmlns="http://www.w3.org/2000/svg" width="166.97" height="166.97" version="1.1"><style>.s0{fill:#6d3f93;}</style><defs><clipPath clipPathUnits="userSpaceOnUse"><path d="m0 841.89 595.28 0L595.28 0 0 0 0 841.89z"/></clipPath></defs><g transform="translate(-291.5128,-412.27667)"><g transform="matrix(1.25,0,0,-1.25,244.73755,875.00792)"><g clip-path="url(#clipPath228)"><g transform="translate(80.6279,327.6484)"><path d="M0 0C-0.126 0-0.254 0.048-0.352 0.144-0.825 0.603-1.295 0.823-1.751 0.799-2.436 0.764-2.919 0.19-2.926 0.186-3.103-0.028-3.42-0.06-3.634 0.117-3.848 0.292-3.883 0.608-3.708 0.825-3.676 0.861-2.951 1.74-1.819 1.807-1.065 1.851-0.335 1.535 0.353 0.868 0.551 0.674 0.556 0.354 0.362 0.152 0.264 0.052 0.132 0 0 0" fill="#6d3f93"/></g><g transform="translate(97.0679,316.9336)"><path d="m0 0c1.605-3.74 5.955-5.477 9.692-3.873 2.56 1.098 4.663 5.078 4.759 6.522-1.88 0.495-8.373 0.876-15.155 1.047 0.086-1.26 0.319-2.5 0.697-3.698L0 0zm-24.828 2.641c0.183-1.538 2.264-5.466 4.704-6.514 1.813-0.776 3.819-0.803 5.649-0.07 1.83 0.731 3.267 2.131 4.042 3.943l0.01-0.002c0.375 1.193 0.607 2.422 0.694 3.674-6.703-0.197-13.116-0.581-15.099-1.031m-11.093-13.69c-0.332 0-0.667 0.101-0.956 0.313-4.957 3.599-7.919 9.405-7.919 15.526 0 10.577 8.606 19.181 19.181 19.181 9.828 0 17.953-7.428 19.054-16.963 0.816 0.016 1.305 0.025 1.32 0.025l0.022 0 0.022 0c0.016 0 0.506-0.005 1.327-0.019 1.106 9.533 9.229 16.957 19.054 16.957 10.577 0 19.181-8.604 19.181-19.181 0-6.12-2.96-11.925-7.917-15.526-0.728-0.531-1.748-0.368-2.276 0.359-0.529 0.728-0.367 1.746 0.361 2.274 4.116 2.992 6.574 7.812 6.574 12.893 0 8.781-7.142 15.924-15.923 15.924C7.134 20.714 0.459 14.71-0.595 6.946 1.024 6.903 2.918 6.844 4.828 6.761 15.603 6.295 16.32 5.577 16.896 5.001 17.401 4.498 17.932 3.523 17.589 1.749 17.006-1.293 14.208-5.479 10.977-6.865 9.613-7.451 8.195-7.728 6.799-7.728c-4.023 0-7.862 2.295-9.655 6.138L-2.905-1.605C-3.518 0.122-3.875 1.925-3.971 3.76-4.386 3.767-4.798 3.771-5.21 3.776-5.625 3.77-6.042 3.762-6.461 3.753-6.557 1.921-6.916 0.122-7.525-1.605l-0.049 0.015c-1.148-2.463-3.157-4.364-5.692-5.378-2.639-1.055-5.529-1.019-8.14 0.103-3.484 1.493-6.055 6.015-6.573 8.709-0.268 1.393-0.047 2.458 0.653 3.159 0.57 0.568 1.217 1.216 12.019 1.713 1.927 0.09 3.841 0.157 5.474 0.206-1.044 7.775-7.723 13.792-15.782 13.792-8.78 0-15.923-7.143-15.923-15.924 0-5.082 2.457-9.902 6.575-12.893 0.728-0.527 0.889-1.545 0.36-2.272-0.318-0.439-0.814-0.674-1.318-0.674" fill="#6d3f93"/></g><g transform="translate(106.3921,327.6484)"><path d="M0 0C-0.146 0-0.289 0.064-0.39 0.186-0.401 0.198-0.884 0.764-1.563 0.799-2.025 0.823-2.49 0.603-2.962 0.145c-0.2-0.195-0.519-0.191-0.713 0.007-0.195 0.202-0.19 0.522 0.01 0.716 0.685 0.667 1.414 0.985 2.168 0.939C-0.364 1.741 0.362 0.861 0.394 0.825 0.567 0.608 0.536 0.29 0.318 0.114 0.225 0.038 0.113 0 0 0" fill="#6d3f93"/></g><g transform="translate(47.4282,291.1875)"><path d="m0 0c0-0.455 0.819-0.455 1.593-0.455 1.137 0 2.274 0.41 3.093 1.184 0.955 0.956 1.502 2.594 1.502 4.594 0 3.367-2.048 6.097-4.641 6.097-0.682 0-1.274-0.046-1.457-0.135L0 0zm-10.008 11.148c0 1.228 0 2.638 0.044 3.821 3.275 0.092 7.279 0.136 11.056 0.136 2.047 0 4.139 0 6.688-0.773 3.685-1.183 6.096-4.913 6.096-8.78 0-3.594-2.32-6.917-5.368-8.463C6.415-3.958 3.23-4.32 2.138-4.32c-0.591 0-1.82 0-2.138 0.043l-0.045-6.325 4.14-0.135c0-1.183 0-2.547-0.047-3.777-2.273 0-5.412 0.046-8.188 0.046-1.956 0-4.049-0.046-5.824-0.046 0 1.23 0.046 2.594 0.091 3.777l2.137 0.135c0.137 0 0.183 0.092 0.183 0.184l0 21.475-2.455 0.091z" fill="#6d3f93"/></g><g transform="translate(71.4053,280.5859)"><path d="M0 0C1.183 0 2.366 0.593 3.049 1.001 3.14 1.093 3.14 1.229 3.14 1.275l0 3.14C2.868 4.461 2.503 4.461 2.185 4.461-0.819 4.461-2.092 3.187-2.092 1.729-2.092 0.683-0.909 0 0 0m3.186-2.364c-2.73-1.365-4.914-2.002-6.644-2.002-2.366 0-5.869 2.409-5.869 5.323 0 2.502 3.003 6.87 10.237 6.87l2.184 0c0.136 2.23-0.728 3.595-2.775 3.595-1.503 0-3.913-1.32-5.733-2.55-0.819 0.955-1.638 2.14-2.366 3.232 3.276 2.683 6.643 4.503 11.01 4.503 3.504 0 6.961-2.957 6.961-6.824 0-3.002-0.045-7.325-0.09-9.282 0-0.272 0-0.363 0.229-0.317l2.41 0.09c0-1.184 0.045-2.547 0-3.731-0.729-0.272-3.958-0.909-7.598-0.909-0.455 0.409-1.047 1.137-1.729 2.002l-0.227 0z" fill="#6d3f93"/></g><g transform="translate(85.874,292.0977)"><path d="M0 0C0 1.229 0.046 2.592 0.046 3.73 2.32 3.867 9.008 5.05 9.282 5.05 9.373 5.05 9.373 5.004 9.373 4.914 9.599 3.959 9.782 3.049 10.009 2.093l0.227-0.044c4.414 2.682 5.414 3.047 7.508 3.047 1.956 0 3.821-1.774 4.732-3.276 0.865-1.411 1.046-2.822 1.046-4.049 0-2.593-0.091-6.37-0.181-9.283l2.273-0.135c0-1.183 0-2.547-0.045-3.731l-5.869 0c-1.956 0-4.095-0.046-5.686-0.046 0 1.184 0.045 2.549 0.045 3.731l1.818 0.137c0.093 0 0.184 0.091 0.184 0.182 0.045 1.864 0 4.413 0 6.144 0 2.137 0 3.227-0.365 3.91-0.454 0.866-1.046 1.003-1.729 1.003-1.001 0-2.547-0.729-3.639-1.594-0.046-2.685-0.137-7.007-0.137-9.601l1.957-0.135c0-1.228 0-2.547-0.045-3.731l-5.688 0c-1.866 0-4.232-0.046-6.006-0.046 0 1.184 0.047 2.549 0.047 3.731l2.229 0.137c0.135 0 0.181 0.091 0.181 0.182l0 11.284L0 0z" fill="#6d3f93"/></g><g transform="translate(117.8579,277.585)"><path d="m0 0c-1.455 1.273-1.592 2.319-1.592 3.594 0 2.548 0.046 4.731 0.046 5.278 0 0.954 0.045 5.551 0.045 5.96l-3.186 0c0 1.273 0.046 2.593 0.138 3.866 0.909 0.046 2.048 0.183 2.957 0.228 0.137 0 0.318 0.137 0.318 0.364 0.092 1.229 0.229 2.685 0.319 3.777 2.32 1.138 6.643 2.457 6.779 2.457 0.092 0 0.136-0.045 0.136-0.182C5.916 24.34 5.869 20.2 5.824 18.972c2.321 0 4.869 0.045 7.007 0.045 0-1.319-0.045-2.912-0.182-4.276-1.91 0-4.732 0.045-6.825 0.045l0-3.777C5.778 9.146 5.778 7.506 5.778 5.459c0-1.274 1.093-2.047 2.095-2.047 1.818 0 3.547 0.317 4.958 0.682 0.228-1.229 0.41-2.638 0.545-3.822C10.192-0.956 6.871-1.365 3.504-1.365 2.32-1.365 1.138-1.047 0 0" fill="#6d3f93"/></g><g transform="translate(142.9731,303.9277)"><path d="m0 0c0-2.457-1.955-4.094-4.231-4.094-1.956 0-3.958 1.683-3.958 4.003 0 1.911 1.683 3.777 4.185 3.777C-1.365 3.686 0 1.865 0 0m-10.191-11.875c0 1.273 0.045 2.685 0.091 3.912 2.457 0.182 9.828 1.229 10.192 1.229 0.09 0 0.09-0.046 0.09-0.136-0.045-4.96-0.137-11.921-0.137-16.472l2.503-0.136 0-3.73-6.278 0c-1.957 0-4.368-0.046-6.188-0.046 0 1.184 0 2.549 0.045 3.731l2.411 0.137c0.136 0 0.183 0.091 0.183 0.182l0 11.238-2.912 0.091z" fill="#6d3f93"/></g><g transform="translate(162.4912,290.7324)"><path d="m0 0c-0.364 0.547-0.909 1.184-1.775 1.184-0.91 0-2.228-0.455-3.548-1.274-0.046-2.549-0.091-6.187-0.091-8.736 0-0.909 1.819-1.593 2.775-1.593 0.819 0 1.73 0.319 2.321 1.185 0.636 0.954 1.047 2.592 1.047 5.004C0.729-2.139 0.456-0.682 0 0m-5.414 3.823c4.594 2.456 5.096 2.638 7.008 2.638 3.775 0 6.961-4.276 6.914-9.009 0-2.048-0.545-4.185-1.411-6.097-0.59-1.364-1.682-3.046-3.457-4.413-0.91-0.682-3.048-1.455-4.869-1.455-1.728 0-3.001 0.227-4.002 0.637l-0.319-0.091c0.046-2.275 0.046-4.596 0.046-6.916l3.684-0.137c0-1.228 0-2.547-0.045-3.731-2.184 0-4.914 0-7.325-0.046-1.82 0-4.187 0-6.006-0.046 0 1.185 0 2.504 0.045 3.733l2.184 0.181c0.136 0 0.182 0.092 0.182 0.229l0.046 21.975-2.866 0.045c0 1.229 0.045 2.548 0.091 3.73 2.137 0.274 9.008 1.457 9.235 1.457 0.091 0 0.091-0.046 0.091-0.092 0.183-0.864 0.318-1.684 0.501-2.547l0.273-0.045z" fill="#6d3f93"/></g></g></g></g></svg>
