<svg xmlns="http://www.w3.org/2000/svg" version="1.1" baseProfile="basic" x="0" y="0" viewBox="0 0 116.9 116.9" xml:space="preserve"><path fill="#717073" d="M73.1 28.5h-3.8c-0.4 0-0.6 0.1-0.6 0.5v13.5c0 0.6-0.2 0.8-1 0.8h-2.7c-0.8 0-1-0.1-1-0.8V28.9c0-0.4-0.1-0.5-0.6-0.5h-3.6c-0.6 0-0.6-0.2-0.6-0.5v-2.4c0-0.5 0.3-0.5 0.9-0.5h12.6c0.6 0 0.9 0 0.9 0.5v2.4C73.8 28.2 73.7 28.5 73.1 28.5z"/><path fill="#717073" d="M90 43.2h-3.1c-0.6 0-0.8-0.2-0.8-0.8V36c0-0.4-0.1-0.5-0.5-0.5H81c-0.3 0-0.4 0-0.4 0.4v6.5c0 0.6-0.3 0.8-1 0.8h-3c-0.5 0-0.6-0.2-0.6-0.9V25.7c0-0.5 0.2-0.6 0.7-0.6h3c0.7 0 1 0.2 1 0.8v5.7c0 0.4 0.2 0.5 0.6 0.5h4.5c0.3 0 0.4-0.1 0.4-0.4v-5.9c0-0.5 0.3-0.6 0.9-0.6h3c0.7 0 0.8 0.2 0.8 0.7v16.7C90.8 43.1 90.7 43.2 90 43.2z"/><path fill="#717073" d="M108.3 43.2h-3.2c-0.6 0-0.6-0.1-0.8-0.6l-0.8-2.7h-5.7l-0.8 2.7c-0.1 0.5-0.2 0.6-0.8 0.6h-2.8c-0.4 0-0.6-0.1-0.3-0.8l5.1-16.6c0.2-0.6 0.4-0.8 1.1-0.8h3.6c0.7 0 0.9 0.2 1.1 0.8l5.1 16.6C109.4 43.2 109 43.2 108.3 43.2zM100.7 30.4l-1.9 6.5h3.8L100.7 30.4z"/><path fill="#717073" d="M115.5 43.2h-3c-0.7 0-0.9-0.1-0.9-0.8V25.7c0-0.6 0.1-0.7 0.9-0.7h3.2c0.5 0 0.6 0.2 0.6 0.8v16.8C116.2 43.1 116 43.2 115.5 43.2z"/><path fill="#717073" d="M69.5 81.7l-0.8 0c-0.2 0-0.3-0.1-0.4-0.3l-3.4-5.6c-0.2-0.3-0.3-0.4-0.3 0v5.5c0 0.3 0 0.4-0.3 0.4h-0.8c-0.1 0-0.3 0-0.3-0.3v-7.7c0-0.1 0-0.4 0.2-0.4h0.8c0.4 0 0.4 0.1 0.5 0.2l3.4 5.7c0.2 0.3 0.2 0.3 0.2-0.2v-5.4c0-0.2 0-0.4 0.2-0.4h0.9c0.2 0 0.2 0.1 0.2 0.4v7.7C69.8 81.6 69.7 81.7 69.5 81.7z"/><path fill="#717073" d="M76.3 81.7h-4.4c-0.2 0-0.3-0.1-0.3-0.3v-7.7c0-0.2 0-0.4 0.2-0.4H76c0.3 0 0.3 0 0.3 0.2v0.7c0 0.2-0.2 0.2-0.5 0.2h-2.6c-0.3 0-0.3 0.1-0.3 0.2v2c0 0.2 0.1 0.3 0.3 0.3h2.3c0.3 0 0.4 0.1 0.3 0.2l-0.1 0.6c0 0.2-0.3 0.2-0.5 0.2h-1.9c-0.2 0-0.3 0.1-0.3 0.3v2.3c0 0.3 0.1 0.3 0.3 0.3h2.8c0.3 0 0.4 0 0.4 0.2v0.7C76.5 81.6 76.4 81.7 76.3 81.7z"/><path fill="#717073" d="M83.1 74.3h-1.9c-0.2 0-0.3 0-0.3 0.2v6.8c0 0.3 0 0.4-0.3 0.4h-0.8c-0.3 0-0.3 0-0.3-0.4v-6.8c0-0.2 0-0.2-0.3-0.2h-1.8c-0.2 0-0.2-0.1-0.2-0.2v-0.7c0-0.2 0.1-0.2 0.3-0.2H83c0.2 0 0.3 0 0.3 0.2v0.7C83.3 74.2 83.3 74.3 83.1 74.3z"/><path fill="#717073" d="M91.6 81.4c-0.1 0.2-0.1 0.2-0.3 0.2h-1c-0.2 0-0.3-0.1-0.4-0.3l-1-3.2 -1 3.3c-0.1 0.2-0.1 0.3-0.3 0.3h-0.9c-0.2 0-0.3-0.1-0.4-0.3l-2.4-7.8c-0.1-0.4 0-0.4 0.2-0.4H85c0.2 0 0.2 0.1 0.3 0.3l1.9 6.5 1.1-3.6 -0.9-2.8c-0.1-0.4 0-0.4 0.2-0.4h0.9c0.2 0 0.2 0.1 0.3 0.3l1.9 6.5 2-6.5c0.1-0.2 0.1-0.3 0.2-0.3h0.7c0.2 0 0.3 0 0.3 0.2L91.6 81.4z"/><path fill="#717073" d="M98.4 81.8c-1.1 0-3.2-0.2-3.2-2.4V76c0-2.1 1-2.9 3.1-2.9 1.7 0 3.1 0.6 3.1 2.9V79C101.5 81.8 99.4 81.8 98.4 81.8zM100.1 76c0-1.3-0.6-1.8-1.7-1.8 -1.4 0-1.8 0.6-1.8 1.9v3c0 1.2 0.9 1.6 1.8 1.6 0.9 0 1.7-0.3 1.7-1.8V76z"/><path fill="#717073" d="M107.6 77.8c-0.2 0-0.2 0-0.1 0.2l1.6 3.3c0.2 0.3 0.1 0.4-0.1 0.4h-1c-0.2 0-0.2-0.1-0.3-0.3l-1.5-3.1c0-0.1-0.1-0.1-0.2-0.1h-1.2c-0.1 0-0.1 0-0.1 0.2v3c0 0.3-0.1 0.4-0.3 0.4h-0.9c-0.3 0-0.2-0.1-0.2-0.4v-7.8c0-0.2 0-0.3 0.3-0.3h2.5c2.1 0 3.2 0.9 3.2 2.5C109.2 76.9 108.3 77.7 107.6 77.8zM106 74.3h-1.1c-0.2 0-0.2 0.1-0.2 0.2v2.4c0 0.2 0 0.2 0.2 0.2h1.4c0.8 0 1.4-0.4 1.4-1.4C107.8 74.6 106.9 74.3 106 74.3z"/><path fill="#717073" d="M116.6 81.7h-1c-0.2 0-0.2-0.1-0.4-0.3l-2.6-3.5 -0.3 0.4v3.1c0 0.2 0 0.3-0.2 0.3h-0.9c-0.3 0-0.3-0.1-0.3-0.4v-7.7c0-0.3 0.1-0.4 0.3-0.4h0.8c0.2 0 0.2 0.1 0.2 0.3v3.1l2.8-3.2c0.2-0.2 0.2-0.2 0.4-0.2h0.9c0.3 0 0.4 0 0.2 0.3l-3.1 3.5 3.3 4.4C116.9 81.6 116.9 81.7 116.6 81.7z"/><path fill="#717073" d="M66.8 50.9h-2.7c-0.6 0-0.8-0.1-0.8-0.9v-1.3c0-0.7 0.2-0.8 0.8-0.8h2.7c0.7 0 0.7 0.5 0.7 1v1.2C67.6 50.7 67.4 50.9 66.8 50.9zM66.8 66.2h-2.7c-0.7 0-0.8-0.4-0.8-1V53.6c0-0.5 0.2-0.8 0.7-0.8h2.7c0.8 0 0.9 0.3 0.9 0.8v11.5C67.6 65.8 67.6 66.2 66.8 66.2z"/><path fill="#717073" d="M83.4 66.2H70.6c-0.3 0-0.5-0.2-0.5-0.5v-1.2c0-0.3 0.2-0.8 0.5-1.2l7.2-11.9h-6.6c-0.7 0-1.1-0.1-1-0.6l0.1-2.3c0-0.3 0.1-0.6 0.6-0.6H83c0.3 0 0.8 0.2 0.8 0.5v1.2c0 0.3-0.3 0.9-0.4 1.1l-7.3 12H83c0.7 0 1 0.1 1 0.5v2.4C84.1 65.9 84 66.2 83.4 66.2z"/><path fill="#717073" d="M98.1 66.2H87.5c-0.3 0-0.7-0.2-0.7-0.8V48.8c0-0.5 0-0.8 0.6-0.8h10.1c0.6 0 0.7 0.2 0.7 0.5v2.4c0 0.5-0.4 0.5-1.1 0.5h-5.1c-0.5 0-0.6 0.2-0.6 0.4v2.6c0 0.4 0.2 0.6 0.5 0.6h4.6c0.7 0 0.8 0.2 0.8 0.5l-0.2 2.3c-0.1 0.7-0.8 0.6-1.2 0.6H92c-0.5 0-0.7 0.2-0.7 0.6v3c0 0.6 0.4 0.5 0.9 0.5h5.2c0.9 0 1.3 0.1 1.3 0.6v2.4C98.6 66 98.3 66.2 98.1 66.2z"/><path fill="#717073" d="M115.8 66.3l-2.6-0.1c-0.6 0-0.8-0.2-1.1-0.6l-5.8-9.2c-0.3-0.5-0.5-0.7-0.5 0v8.9c0 0.7-0.1 0.9-0.8 0.9h-2.6c-0.3 0-0.9 0.1-0.9-0.7V48.7c0-0.1 0-0.8 0.6-0.8h2.6c0.9 0 0.8 0.2 1.1 0.5l5.8 9.5c0.3 0.5 0.5 0.4 0.5-0.4v-8.8c0-0.4 0.2-0.8 0.6-0.8h3.1c0.5 0 0.6 0.2 0.6 0.8v16.5C116.4 66 116.3 66.3 115.8 66.3z"/><path fill="#ED1556" d="M17.1 77C3.9 69.2 1.8 56.6 6.1 46.3 -8 60.4 3.3 89.4 29.3 91.9 45 91.8 53.2 81.6 54.4 70.2 46.3 79.2 31.6 83.7 17.1 77z"/><path fill="#0F004E" d="M10.8 50.8c-0.9 0-1.3 0.4-1.3 1.3 0 0.9 0.4 1.3 1.3 1.3 0.9 0 1.3-0.4 1.3-1.3C12.2 51.2 11.7 50.8 10.8 50.8z"/><path fill="#0F004E" d="M52.6 65.3c0 0.6-0.2 0.8-1 0.8h-2.7c-0.8 0-1-0.1-1-0.8V51.9c0-0.4-0.1-0.5-0.6-0.5h-3.6c-0.6 0-0.6-0.2-0.6-0.5v-2.4c0-0.5 0.3-0.5 0.9-0.5h3.4c-4.4-5-10.8-8.5-19.2-9.2 -10.3 0-17.5 3-22.1 7.6C1.8 56.6 3.9 69.2 17.1 77c14.4 6.8 29.2 2.2 37.3-6.8 0.5-4.5-0.1-9.2-1.8-13.6V65.3zM26.3 65.4c0 0.8-0.6 0.7-0.9 0.7h-2.6c-0.7 0-0.8-0.2-0.8-0.9v-8.9c0-0.7-0.2-0.6-0.5 0l-5.7 9.2c-0.3 0.4-0.5 0.6-1.1 0.6l-2.6 0.1c-0.6 0-0.6-0.3-0.6-1v-9.2c-0.1 0-0.2 0.1-0.5 0.1 -1.2 0-2.2-0.4-3.1-1.2 -0.8-0.8-1.3-1.8-1.3-2.9 0-0.6 0.1-1.1 0.3-1.6 0.2-0.5 0.6-1 1-1.3 0.4-0.4 0.9-0.7 1.4-0.9 0.5-0.2 1.1-0.3 1.7-0.3 1.4 0 2.5 0.4 3.4 1.2 0.9 0.8 1.3 1.9 1.3 3.2v5.2c0 0.8 0.2 0.8 0.5 0.4l5.8-9.5c0.3-0.4 0.3-0.5 1.1-0.5h2.6c0.5 0 0.6 0.7 0.6 0.8V65.4zM41.7 65.6c0 0.4-0.3 0.6-0.5 0.6H30.6c-0.3 0-0.7-0.2-0.7-0.8V48.8c0-0.5 0-0.8 0.6-0.8h10.1c0.6 0 0.7 0.2 0.7 0.5v2.4c0 0.5-0.4 0.5-1.1 0.5H35c-0.5 0-0.6 0.2-0.6 0.4v2.6c0 0.4 0.2 0.6 0.5 0.6h4.6c0.7 0 0.8 0.2 0.8 0.5L40 57.8c-0.1 0.7-0.8 0.6-1.2 0.6h-3.7c-0.5 0-0.7 0.2-0.7 0.6v3c0 0.6 0.4 0.5 0.9 0.5h5.2c0.9 0 1.3 0.1 1.3 0.6V65.6z"/><path fill="#006892" d="M45 31.7C27.8 23.4 11.7 33 6.1 46.3c4.6-4.6 11.8-7.6 22.1-7.6 8.4 0.7 14.8 4.3 19.2 9.2h9.3c0.6 0 0.9 0.1 0.9 0.5v2.4c0 0.3 0 0.5-0.6 0.5h-3.8c-0.4 0-0.6 0.1-0.6 0.5v4.7c1.7 4.4 2.3 9.1 1.8 13.6C64 59.7 64.5 43.1 45 31.7z"/><path fill="#FFFFFF" d="M40.4 62.5h-5.2c-0.5 0-0.9 0-0.9-0.5v-3c0-0.4 0.2-0.6 0.7-0.6h3.7c0.4 0 1.1 0.1 1.2-0.6l0.2-2.3c0.1-0.3-0.1-0.5-0.8-0.5h-4.6c-0.3 0-0.5-0.1-0.5-0.6v-2.6c0-0.2 0.1-0.4 0.6-0.4h5.1c0.7 0 1.1 0 1.1-0.5v-2.4c0-0.3-0.1-0.5-0.7-0.5H30.5c-0.5 0-0.6 0.3-0.6 0.8v16.6c0 0.6 0.4 0.8 0.7 0.8h10.6c0.2 0 0.5-0.2 0.5-0.6v-2.4C41.7 62.7 41.3 62.5 40.4 62.5zM56.7 47.9H44c-0.6 0-0.9 0.1-0.9 0.5v2.4c0 0.3 0 0.5 0.6 0.5h3.6c0.4 0 0.6 0.1 0.6 0.5v13.5c0 0.7 0.2 0.8 1 0.8h2.7c0.7 0 1-0.2 1-0.8V51.9c0-0.4 0.1-0.5 0.6-0.5H57c0.6 0 0.6-0.2 0.6-0.5v-2.4C57.6 48 57.3 47.9 56.7 47.9zM25.7 47.9h-2.6c-0.9 0-0.8 0.2-1.1 0.5l-5.8 9.5c-0.3 0.5-0.5 0.4-0.5-0.4v-5.2c0-1.3-0.4-2.3-1.3-3.2 -0.9-0.8-2-1.2-3.4-1.2 -0.6 0-1.2 0.1-1.7 0.3 -0.5 0.2-1 0.5-1.4 0.9 -0.4 0.4-0.7 0.8-1 1.3 -0.2 0.5-0.3 1.1-0.3 1.6 0 1.1 0.4 2.1 1.3 2.9 0.8 0.8 1.9 1.2 3.1 1.2 0.3 0 0.4 0 0.5-0.1v9.2c0 0.7 0.1 1 0.6 1l2.6-0.1c0.6 0 0.8-0.2 1.1-0.6l5.7-9.2c0.3-0.5 0.5-0.7 0.5 0v8.9c0 0.7 0.1 0.9 0.8 0.9h2.6c0.3 0 0.9 0.1 0.9-0.7V48.7C26.3 48.6 26.2 47.9 25.7 47.9zM10.8 53.4c-0.9 0-1.3-0.4-1.3-1.3 0-0.9 0.4-1.3 1.3-1.3 0.9 0 1.3 0.4 1.3 1.3C12.2 53 11.7 53.4 10.8 53.4z"/></svg>
