<svg xmlns:svg="http://www.w3.org/2000/svg" xmlns="http://www.w3.org/2000/svg" version="1.1" width="323.076" height="635" xml:space="preserve"><style>.s0{opacity:0.5;}.s1{fill:#000;}.s2{fill:#fff;}</style><g transform="matrix(1.25,0,0,-1.25,-155.96208,636.58919)"><g clip-path="url(#clipPath26)" transform="matrix(0.68485386,0,0,0.68485386,-98.558033,-94.68956)"><g transform="matrix(0.99959027,0.02862334,-0.02862334,0.99959027,762.28077,160.89145)"><path d="M-58.887-2.544C-171.226-4.862-282.659-7.162-394.81-9.476c-3.988 191.864-7.971 383.509-11.969 575.851 2.476 0.08 4.572 0.168 6.669 0.212 63.803 1.334 127.605 2.714 191.411 3.89 4.311 0.079 6.342 1.482 8.167 5.334 22.301 47.092 44.8 94.089 67.253 141.108 0.783 1.64 1.609 3.257 2.669 5.397 20.989-10.022 41.783-19.952 63.008-30.088-19.051-39.944-37.928-79.522-57.333-120.21l54.075 1.743c4.001-192.536 7.981-384.176 11.974-576.304" style="fill-opacity:0.5;fill:#000"/></g><g transform="translate(662.0674,155.0889)"><path d="m0 0c-112.355 1.302-223.805 2.593-335.972 3.893 2.195 191.893 4.388 383.567 6.588 575.938 2.477 0 4.575 0.021 6.672-0.003 63.813-0.722 127.626-1.398 191.437-2.278 4.311-0.06 6.386 1.277 8.335 5.068 23.806 46.349 47.808 92.597 71.764 138.868 0.835 1.614 1.713 3.203 2.841 5.308 20.655-10.693 41.119-21.288 62.006-32.102-20.328-39.31-40.47-78.259-61.176-118.301l54.103 0C4.394 383.826 2.199 192.157 0 0" fill="#fff"/></g><g transform="translate(420.4189,417.5635)"><path d="m0 0c0.496-2.193 0.821-3.802 1.226-5.39 4.232-16.616 8.707-33.175 12.577-49.875 1.145-4.941 3.281-5.214 7.343-4.142 17.053 4.505 34.154 8.828 51.228 13.253 1.683 0.436 3.302 1.116 4.975 1.691-4.854 18.926-9.611 37.294-14.235 55.696-0.712 2.834-1.563 4.556-4.981 3.669C38.984 9.936 19.809 5.066 0 0m-34.367-203.642c72.804-0.844 145.128-1.683 217.635-2.524l0 20.403c-72.64 0.819-145 1.634-217.635 2.452l0-20.331zM183.004 54.342C156.515 58.89 130.864 63.293 104.442 67.83 99.18 41.396 94.077 15.771 88.883-10.318c5.737-1.04 10.288-1.898 14.851-2.687 20.001-3.462 40.012-6.875 60.007-10.38 4.08-0.715 6.256-0.157 6.899 4.858 1.388 10.856 3.689 21.593 5.543 32.392 2.271 13.237 4.466 26.487 6.821 40.477M-20.74 102.363C-7.933 76.485 4.654 51.053 17.361 25.376 43.429 38.314 68.913 50.964 94.456 63.643 81.755 89.571 69.277 115.047 56.658 140.808 30.701 127.914 5.31 115.302-20.74 102.363m162.569 156.802c-11.492-46.7-22.957-93.286-34.624-140.697l80.664 0 0 140.697-46.04 0zm-20.398 0.833c-50.815 0.552-100.665 1.093-150.881 1.638-0.564-47.508-1.118-94.218-1.676-141.157 6.597-0.381 12.212-0.343 17.97 2.598 23.72 12.115 47.677 23.767 71.552 35.575 1.592 0.787 3.236 1.468 5.036 2.28 7.901-13.991 13.519-28.763 21.746-42.084 0.535 0.148 1.071 0.297 1.606 0.445 11.475 46.6 22.949 93.199 34.647 140.705m82.818 172.965c6.053-3.133 11.636-6.023 17.673-9.147-23.857-46.386-47.558-92.474-71.807-139.624l64.256 0c-1.972-172.276-3.934-343.767-5.904-515.898-89.841 1.034-178.884 2.059-268.582 3.091 1.959 171.927 3.912 343.308 5.872 515.245 1.775 0.09 3.366 0.258 4.955 0.24 57.649-0.637 115.299-1.244 172.946-2.051 3.806-0.053 5.196 1.671 6.666 4.534 23.646 46.068 47.359 92.102 71.058 138.142 0.831 1.615 1.686 3.219 2.867 5.468" fill="#3a3a3a"/></g><g transform="translate(541.8496,677.5615)"><path d="m0 0c-11.697-47.506-23.172-94.105-34.646-140.705-0.536-0.149-1.072-0.297-1.607-0.445-8.226 13.321-13.845 28.093-21.746 42.084-1.799-0.812-3.444-1.493-5.036-2.28-23.875-11.808-47.832-23.46-71.551-35.575-5.759-2.941-11.373-2.979-17.971-2.599 0.558 46.94 1.113 93.65 1.677 141.158C-100.665 1.093-50.815 0.552 0 0" fill="#fff"/></g><g transform="translate(562.248,676.7285)"><path d="m0 0 46.04 0 0-140.697-80.664 0C-22.957-93.286-11.492-46.7 0 0" fill="#fff"/></g><g transform="translate(399.6792,519.9268)"><path d="M0 0C26.049 12.938 51.44 25.551 77.398 38.444 90.017 12.684 102.495-12.792 115.196-38.721 89.653-51.399 64.168-64.049 38.101-76.987 25.394-51.311 12.807-25.878 0 0" fill="#fff"/></g><g transform="translate(603.4229,471.9053)"><path d="m0 0c-2.354-13.99-4.55-27.24-6.821-40.477-1.854-10.798-4.155-21.536-5.543-32.392-0.643-5.015-2.819-5.572-6.899-4.858-19.995 3.505-40.006 6.918-60.007 10.38-4.563 0.789-9.114 1.647-14.851 2.687 5.194 26.09 10.297 51.715 15.559 78.148C-52.14 8.951-26.489 4.548 0 0" fill="#fff"/></g><g transform="translate(386.0522,213.9219)"><path d="m0 0 0 20.331c72.635-0.818 144.995-1.634 217.634-2.452l0-20.403C145.127-1.684 72.804-0.845 0 0" fill="#fff"/></g><g transform="translate(420.4189,417.5635)"><path d="m0 0c19.809 5.066 38.984 9.936 58.133 14.902 3.418 0.887 4.269-0.835 4.981-3.669 4.624-18.402 9.381-36.77 14.235-55.696-1.673-0.575-3.292-1.255-4.975-1.691-17.074-4.425-34.175-8.748-51.228-13.253-4.062-1.072-6.198-0.799-7.343 4.142C9.933-38.565 5.458-22.006 1.226-5.39 0.821-3.802 0.496-2.193 0 0" fill="#fff"/></g></g></g></svg>

