<svg xmlns="http://www.w3.org/2000/svg" version="1.1" baseProfile="basic" x="0px" y="0px" viewBox="0 0 1024 1024" xml:space="preserve"><style>.s0{flood-color:white;flood-opacity:1;}</style><defs><filter filterUnits="userSpaceOnUse" x="239" y="239.8" width="581.1" height="582"><feColorMatrix type="matrix" values="-1 0 0 0 1  0 -1 0 0 1  0 0 -1 0 1  0 0 0 1 0" color-interpolation-filters="sRGB" result="source"/><feFlood result="back" class="s0"/><feBlend in="source" in2="back" mode="normal"/></filter></defs><mask maskUnits="userSpaceOnUse" x="239" y="239.8" width="581.1" height="582"><g filter="url(#Adobe_OpacityMaskFilter)"/></mask><g opacity="0.5" mask="url(#SVGID_1_)"><path d="M818.7 524c0 5.4-0.1 10.8-0.1 16.2 -0.3 1.5-0.6 2.9-0.8 4.4 -2.5 16.5-4.3 33.1-7.7 49.4 -15.1 71.9-54.1 128.1-113 171.5 -42.9 31.6-91.6 46.6-143.5 52.7 -30.1 3.5-59.7-0.6-89.3-7 -54.8-11.8-101.3-38.6-140.4-77.9 -46.4-46.6-72.4-103.7-80.8-168.8 -1.1-8.7-1.9-17.4-2.8-26.1 0-6.1 0.1-12.2 0.1-18.2 0.3-1.3 0.6-2.6 0.8-3.9 2.9-17.8 4.9-35.7 8.8-53.3 14.1-64.9 48.8-117 100.2-158.2 31.4-25.2 66.4-43.5 106-52.6 22-5 44.1-9.6 66.8-10.3 29.9-0.9 58.7 4.6 87.3 12.3 58.4 15.9 105.5 48.9 143.8 95.4 35.4 42.9 54.2 92.7 61.7 147.3C817.1 505.9 817.8 515 818.7 524z"/><path fill-rule="evenodd" clip-rule="evenodd" fill="none" d="M240.3 538.5c0.9 8.7 1.7 17.4 2.8 26.1 8.4 65.1 34.4 122.2 80.8 168.8 39.1 39.3 85.5 66 140.4 77.9 29.6 6.4 59.2 10.5 89.3 7 51.9-6.1 100.6-21.2 143.5-52.7 58.9-43.4 97.9-99.6 113-171.5 3.4-16.3 5.2-32.9 7.7-49.4 0.2-1.5 0.5-2.9 0.8-4.4 -0.5 93.8-0.9 187.6-1.4 281.5 -192.8-0.9-385.5-1.9-578.3-2.8C239.4 725.4 239.9 631.9 240.3 538.5z"/><path fill-rule="evenodd" clip-rule="evenodd" fill="none" d="M818.7 524c-0.9-9-1.6-18.1-2.8-27 -7.5-54.5-26.3-104.3-61.7-147.3 -38.3-46.5-85.4-79.5-143.8-95.4 -28.6-7.8-57.4-13.2-87.3-12.3 -22.7 0.7-44.8 5.2-66.8 10.3 -39.6 9-74.6 27.4-106 52.6 -51.4 41.2-86.1 93.4-100.2 158.2 -3.8 17.6-5.9 35.5-8.8 53.3 -0.2 1.3-0.5 2.6-0.8 3.9 0.4-93.5 0.9-186.9 1.3-280.5 192.8 0.9 385.5 1.9 578.3 2.8C819.6 336.4 819.2 430.2 818.7 524z"/></g><defs><filter filterUnits="userSpaceOnUse" x="775" y="216.1" width="188.5" height="599.9"><feColorMatrix type="matrix" values="-1 0 0 0 1  0 -1 0 0 1  0 0 -1 0 1  0 0 0 1 0" color-interpolation-filters="sRGB" result="source"/><feFlood result="back" class="s0"/><feBlend in="source" in2="back" mode="normal"/></filter></defs><mask maskUnits="userSpaceOnUse" x="775" y="216.1" width="188.5" height="599.9"><g filter="url(#Adobe_OpacityMaskFilter_1_)"/></mask><g opacity="0.5" mask="url(#SVGID_2_)"><path d="M856.9 219.3c0.3 0 0.7 0 1 0 2 0.4 3.9 0.8 5.9 1 9.8 1.3 19.2 3.8 27.8 9.1 18.3 11.4 31.5 27.4 39.4 47.1 12.2 30.3 16.2 61.8 11.6 94.4 -3.3 23.3-11.9 43.6-30.5 58.1 -11.5 9-13.9 19.4-13.4 33.1 2.5 60.7 4.4 121.5 11.3 181.9 2.7 23.9 7.4 47.6 11.1 71.3 2.5 16.1 6.1 32.1 6.9 48.3 0.8 15-4.8 28.6-17.9 37.6 -15.2 10.5-31.7 13.2-49.4 7.6 -15.8-5-26-15.2-30.7-31.3 -2.8-9.6-2.2-19.1-1.4-28.7 2.1-24.5 5.3-48.9 6.9-73.4 1.5-23.9 1.7-47.8 2.3-71.7 0.2-10.6 0.1-21.3-0.2-31.9 -1.1-39-2.4-77.9-3.7-116.9 -0.2-7.4-1.7-14-9.6-17.5 -2.5-1.1-4.3-3.6-6.6-5.3 -17-13.1-28.5-29.7-32.5-51 -1.8-9.6-3.6-19.2-5.4-28.8 -0.2-5.3-0.4-10.7-0.6-16 0.5-6.3 0.8-12.6 1.6-18.8 2.3-16.9 4.8-33.7 12.9-49 12-22.7 27.9-41.1 54.4-47.1C851.2 220.7 854 220 856.9 219.3z"/><path fill-rule="evenodd" clip-rule="evenodd" fill="none" d="M779.9 352.3c1.8 9.6 3.6 19.2 5.4 28.8 4.1 21.3 15.6 37.9 32.5 51 2.2 1.7 4.1 4.2 6.6 5.3 7.8 3.5 9.3 10.1 9.6 17.5 1.3 39 2.5 77.9 3.7 116.9 0.3 10.6 0.4 21.3 0.2 31.9 -0.6 23.9-0.8 47.9-2.3 71.7 -1.6 24.5-4.7 48.9-6.9 73.4 -0.8 9.6-1.4 19.1 1.4 28.7 4.7 16.1 14.9 26.4 30.7 31.3 17.7 5.6 34.3 2.9 49.4-7.6 13-9.1 18.7-22.6 17.9-37.6 -0.9-16.2-4.4-32.2-6.9-48.3 -3.7-23.8-8.4-47.5-11.1-71.3 -6.9-60.4-8.8-121.2-11.3-181.9 -0.6-13.7 1.8-24.1 13.4-33.1 18.6-14.5 27.2-34.9 30.5-58.1 4.6-32.6 0.6-64.1-11.6-94.4 -8-19.8-21.1-35.7-39.4-47.1 -8.5-5.3-17.9-7.8-27.8-9.1 -2-0.3-3.9-0.7-5.9-1 27.6-1.1 55.3-2.1 82.9-3.2 7.5 197.9 15.1 395.7 22.6 593.6 -55.3 2.1-110.6 4.2-165.9 6.3C791.7 661.4 785.8 506.8 779.9 352.3z"/><path fill-rule="evenodd" clip-rule="evenodd" fill="none" d="M856.9 219.3c-2.9 0.7-5.8 1.5-8.7 2.1 -26.5 6.1-42.3 24.5-54.4 47.1 -8.1 15.3-10.7 32.1-12.9 49 -0.8 6.2-1.1 12.5-1.6 18.8 -1.4-38-2.9-75.9-4.3-113.9C802.3 221.3 829.6 220.3 856.9 219.3z"/></g><defs><filter filterUnits="userSpaceOnUse" x="121.1" y="227.2" width="146" height="591.5"><feColorMatrix type="matrix" values="-1 0 0 0 1  0 -1 0 0 1  0 0 -1 0 1  0 0 0 1 0" color-interpolation-filters="sRGB" result="source"/><feFlood result="back" class="s0"/><feBlend in="source" in2="back" mode="normal"/></filter></defs><mask maskUnits="userSpaceOnUse" x="121.1" y="227.2" width="146" height="591.5"><g filter="url(#Adobe_OpacityMaskFilter_2_)"/></mask><g opacity="0.5" mask="url(#SVGID_3_)"><path d="M210.1 816.1c-2.7 0.1-5.3 0.2-8 0.3 -4.7-1.1-9.3-2.1-14-3.4 -23.4-6.2-33.8-24.7-33.3-45.9 0.6-25.8 3.7-51.6 6.6-77.4 2.7-24.4 3.1-48.7 2.8-73.2 -0.1-9.8 0.1-19.6-0.1-29.4 -0.8-36.3-1.7-72.5-2.7-108.8 -0.3-11.3-3.5-21.3-12.6-29.2 -13.9-12-18.8-28.2-19.3-46 -0.7-27.6-1.4-55.2-1.4-82.8 0-18.8 0.6-37.6 1.9-56.3 0.8-11.7 1.9-23.7 11.2-32.7 27.3-1.1 54.6-2.2 81.9-3.4 9.2 6.6 12.1 16.7 13.6 26.9 3.5 23.1 6.8 46.4 8.8 69.7 2.1 25.4 2.7 50.9 3.9 76.4 0.8 16.8-3.2 32.2-15.1 44.6 -8 8.3-11.1 17.7-10.4 29 1.6 28.1 2.7 56.2 4.5 84.3 1.7 26.6 4.4 53.1 6.1 79.6 2 31 9.5 61 14.4 91.5 2.1 12.9 4.4 26 4.9 39 0.9 20.7-12.5 37.8-32.3 43.4C217.6 813.5 213.9 814.9 210.1 816.1z"/><path fill-rule="evenodd" clip-rule="evenodd" fill="none" d="M141.1 231.4c-9.2 9-10.3 21.1-11.2 32.7 -1.3 18.7-1.9 37.5-1.9 56.3 0 27.6 0.7 55.2 1.4 82.8 0.4 17.8 5.4 34 19.3 46 9.1 7.9 12.3 17.9 12.6 29.2 1 36.3 1.9 72.5 2.7 108.8 0.2 9.8 0 19.6 0.1 29.4 0.3 24.4-0.1 48.8-2.8 73.2 -2.8 25.7-6 51.5-6.6 77.4 -0.5 21.1 9.9 39.6 33.3 45.9 4.6 1.2 9.3 2.3 14 3.4 -19 0.8-38 1.6-57 2.3 -8-195.5-16-391-24.1-586.5C127.8 232 134.4 231.7 141.1 231.4z"/><path fill-rule="evenodd" clip-rule="evenodd" fill="none" d="M210.1 816.1c3.8-1.2 7.5-2.5 11.4-3.6 19.9-5.6 33.2-22.6 32.3-43.4 -0.6-13.1-2.8-26.1-4.9-39 -5-30.5-12.5-60.5-14.4-91.5 -1.7-26.6-4.4-53.1-6.1-79.6 -1.8-28.1-2.9-56.2-4.5-84.3 -0.7-11.3 2.4-20.8 10.4-29 11.9-12.4 15.9-27.8 15.1-44.6 -1.2-25.5-1.7-51-3.9-76.4 -2-23.3-5.3-46.5-8.8-69.7 -1.5-10.2-4.4-20.3-13.6-26.9 6.7-0.3 13.3-0.5 20-0.8 8 195.5 16 391 24.1 586.5C248.1 814.5 229.1 815.3 210.1 816.1z"/></g><path fill="#FFFFFF" d="M800 507c0 5.3 0 10.7 0 16 -0.3 1.4-0.5 2.9-0.8 4.3 -2.4 16.3-4.1 32.7-7.4 48.8C777.2 647.2 739 702.8 681.1 746c-42.2 31.4-90.2 46.5-141.4 52.8 -29.7 3.6-58.9-0.3-88.2-6.5 -54.2-11.4-100.2-37.6-139-76.2 -46.1-45.8-72-102-80.6-166.3 -1.1-8.5-1.9-17.1-2.9-25.7 0-6 0-12 0-18 0.3-1.3 0.5-2.5 0.7-3.8 2.8-17.6 4.7-35.3 8.4-52.6 13.6-64.1 47.6-115.8 98.2-156.7 30.9-25 65.4-43.3 104.4-52.4 21.7-5.1 43.5-9.7 65.9-10.5 29.5-1 58 4.2 86.3 11.8 57.8 15.5 104.4 47.8 142.5 93.5 35.1 42.2 53.9 91.3 61.6 145.1C798.3 489.2 799 498.1 800 507z"/><path fill-rule="evenodd" clip-rule="evenodd" fill="none" d="M229 524c1 8.6 1.7 17.2 2.9 25.7 8.6 64.3 34.5 120.5 80.6 166.3 38.8 38.6 84.8 64.8 139 76.2 29.3 6.2 58.5 10.1 88.2 6.5 51.3-6.3 99.3-21.4 141.4-52.8 57.9-43.1 96.2-98.8 110.8-169.9 3.3-16.1 5-32.5 7.4-48.8 0.2-1.4 0.5-2.9 0.8-4.3 0 92.6 0 185.3 0 277.9 -190.3 0-380.7 0-571 0C229 708.6 229 616.3 229 524z"/><path fill-rule="evenodd" clip-rule="evenodd" fill="none" d="M800 507c-1-8.9-1.7-17.8-2.9-26.7 -7.7-53.8-26.5-102.9-61.6-145.1 -38-45.7-84.7-78-142.5-93.5 -28.2-7.6-56.8-12.8-86.3-11.8 -22.5 0.8-44.2 5.4-65.9 10.5 -39 9.1-73.5 27.4-104.4 52.4 -50.6 41-84.6 92.6-98.2 156.7 -3.7 17.4-5.6 35.1-8.4 52.6 -0.2 1.3-0.5 2.5-0.7 3.8 0-92.3 0-184.6 0-276.9 190.3 0 380.7 0 571 0C800 321.7 800 414.4 800 507z"/><path fill="#FFFFFF" d="M857 219c0.3 0 0.7 0 1 0 1.9 0.4 3.9 0.9 5.8 1.3 9.8 1.7 19.1 4.5 27.4 10.2 17.8 12.1 30.4 28.5 37.6 48.6 11 30.8 13.8 62.3 8 94.8 -4.2 23.1-13.5 43.2-32.7 56.9 -11.9 8.5-14.7 18.9-14.6 32.6 0.2 60.8-0.2 121.6 4.4 182.2 1.8 24 5.6 47.8 8.4 71.7 1.9 16.2 4.8 32.3 5.1 48.5 0.2 15-5.9 28.4-19.3 36.9 -15.5 9.9-32.2 12-49.7 5.7 -15.6-5.6-25.4-16.2-29.5-32.5 -2.4-9.7-1.5-19.2-0.3-28.7 3.1-24.4 7.1-48.7 9.6-73.1 2.4-23.8 3.6-47.7 5-71.6 0.7-10.6 1-21.3 1.1-31.9 0.4-39 0.6-78 0.8-116.9 0-7.4-1.2-14.1-8.9-17.9 -2.4-1.2-4.2-3.8-6.4-5.6 -16.5-13.7-27.3-30.7-30.6-52.2 -1.5-9.7-2.9-19.4-4.3-29 0-5.3 0-10.7 0-16 0.8-6.2 1.3-12.5 2.3-18.7 2.9-16.8 6.1-33.5 14.8-48.4 12.9-22.2 29.4-40 56.1-45C851.2 220.3 854.1 219.6 857 219z"/><path fill-rule="evenodd" clip-rule="evenodd" fill="none" d="M775 349c1.4 9.7 2.8 19.4 4.3 29 3.2 21.5 14.1 38.5 30.6 52.2 2.2 1.8 3.9 4.4 6.4 5.6 7.7 3.8 8.9 10.5 8.9 17.9 -0.2 39-0.4 78-0.8 116.9 -0.1 10.6-0.4 21.3-1.1 31.9 -1.5 23.9-2.6 47.8-5 71.6 -2.5 24.4-6.6 48.7-9.6 73.1 -1.2 9.5-2.1 19 0.3 28.7 4.1 16.3 13.9 26.9 29.5 32.5 17.5 6.3 34.1 4.2 49.7-5.7 13.4-8.5 19.5-21.9 19.3-36.9 -0.3-16.2-3.2-32.3-5.1-48.5 -2.8-23.9-6.6-47.7-8.4-71.7 -4.6-60.6-4.2-121.4-4.4-182.2 0-13.7 2.7-24.1 14.6-32.6 19.2-13.8 28.5-33.8 32.7-56.9 5.9-32.4 3.1-64-8-94.8 -7.2-20.1-19.8-36.5-37.6-48.6 -8.3-5.7-17.6-8.5-27.4-10.2 -2-0.3-3.9-0.8-5.8-1.3 27.7 0 55.3 0 83 0 0 198 0 396 0 594 -55.3 0-110.7 0-166 0C775 658.3 775 503.7 775 349z"/><path fill-rule="evenodd" clip-rule="evenodd" fill="none" d="M857 219c-2.9 0.6-5.8 1.3-8.8 1.8 -26.7 5.1-43.2 22.8-56.1 45 -8.7 15-11.9 31.7-14.8 48.4 -1.1 6.2-1.6 12.5-2.3 18.7 0-38 0-76 0-114C802.3 219 829.7 219 857 219z"/><path fill="#FFFFFF" d="M182 813c-2.7 0-5.3 0-8 0 -4.6-1.3-9.2-2.5-13.8-3.9 -23.1-7.2-32.7-26.1-31.4-47.2 1.7-25.8 5.8-51.4 9.7-77 3.7-24.2 5.1-48.6 5.8-73 0.3-9.8 0.9-19.6 1.1-29.4 0.7-36.3 1.3-72.6 1.7-108.8 0.1-11.3-2.6-21.4-11.4-29.6 -13.4-12.5-17.7-29-17.4-46.8 0.5-27.6 0.9-55.2 2-82.8 0.7-18.7 2.1-37.5 4.2-56.1 1.3-11.6 2.9-23.6 12.5-32.2 27.3 0 54.7 0 82 0 8.9 7 11.4 17.2 12.5 27.4 2.5 23.3 4.9 46.6 5.9 70 1.1 25.5 0.6 51 0.7 76.5 0.1 16.8-4.5 32-16.9 43.9 -8.3 7.9-11.8 17.3-11.6 28.6 0.5 28.1 0.4 56.3 1.1 84.4 0.6 26.6 2.2 53.2 2.8 79.8 0.7 31 7 61.4 10.7 92 1.6 13 3.3 26.1 3.3 39.2 0 20.8-14 37.2-34.1 42C189.6 810.8 185.8 811.9 182 813z"/><path fill-rule="evenodd" clip-rule="evenodd" fill="none" d="M137 226c-9.6 8.6-11.2 20.6-12.5 32.2 -2.1 18.6-3.4 37.4-4.2 56.1 -1.1 27.6-1.5 55.2-2 82.8 -0.3 17.8 4 34.2 17.4 46.8 8.8 8.3 11.6 18.4 11.4 29.6 -0.5 36.3-1.1 72.6-1.7 108.8 -0.2 9.8-0.8 19.6-1.1 29.4 -0.7 24.4-2.1 48.8-5.8 73 -3.9 25.6-8.1 51.3-9.7 77 -1.4 21.1 8.3 40 31.4 47.2 4.6 1.4 9.2 2.6 13.8 3.9 -19 0-38 0-57 0 0-195.7 0-391.3 0-587C123.7 226 130.3 226 137 226z"/><path fill-rule="evenodd" clip-rule="evenodd" fill="none" d="M182 813c3.8-1.1 7.6-2.2 11.5-3.2 20.1-4.8 34.1-21.2 34.1-42 0-13.1-1.7-26.2-3.3-39.2 -3.7-30.7-10-61-10.7-92 -0.6-26.6-2.2-53.2-2.8-79.8 -0.7-28.1-0.6-56.3-1.1-84.4 -0.2-11.3 3.3-20.6 11.6-28.6 12.4-11.9 17-27.1 16.9-43.9 -0.1-25.5 0.4-51-0.7-76.5 -1-23.4-3.4-46.7-5.9-70 -1.1-10.2-3.6-20.5-12.5-27.4 6.7 0 13.3 0 20 0 0 195.7 0 391.3 0 587C220 813 201 813 182 813z"/><path fill="none" d="M227 802c0-191.7 0-383.3 0-575 191.7 0 383.3 0 575 0 0 191.7 0 383.3 0 575C610.3 802 418.7 802 227 802zM269.3 514.9C269.7 651.2 379.1 758.2 511 760c136.3 1.9 248.5-107.8 248.7-245 0.2-135.3-109.8-245-245.1-245.1C379.3 269.8 269.3 379.7 269.3 514.9z"/><path fill-rule="evenodd" clip-rule="evenodd" fill="#3A3A3A" d="M269.3 514.9c0-135.3 110-245.1 245.2-245.1 135.4 0.1 245.3 109.8 245.1 245.1C759.5 652.2 647.3 761.9 511 760 379.1 758.2 269.7 651.2 269.3 514.9zM514.5 294.2c-123.5 0.4-220 102-220.7 219.3 -0.8 121 99.3 221.7 219.9 222.1C635 736 735.4 635.3 735.2 514.6 734.9 395.9 637.6 294.6 514.5 294.2z"/><path fill-rule="evenodd" clip-rule="evenodd" fill="none" d="M514.5 294.2c123.1 0.4 220.5 101.7 220.7 220.4C735.4 635.3 635 736 513.7 735.6 393.1 735.2 293 634.6 293.8 513.6 294.5 396.2 391 294.6 514.5 294.2z"/><path fill="none" d="M503 679c-52.3 0-104.7 0-157 0 0-111.7 0-223.3 0-335 111 0 222 0 333 0 0 111.7 0 223.3 0 335 -51.7 0-103.3 0-155 0 1.3-0.3 2.6-0.6 3.9-0.7 61.1-6.7 105.5-37.5 134.1-91.7 0.4-0.8 0.6-1.8 0.9-2.8 -18.3 32.7-43.6 57.4-78.1 72.3 -34.7 15.1-70.4 16.7-106.4 5.9 -64.1-19.2-108.5-78.7-110-145.9 -1.4-65.2 40.3-126 102.3-148.4 31.1-11.3 62.9-12.7 94.7-3.5 43.7 12.6 75.6 39.8 97.3 79.6 -0.2-1.5-0.6-2.9-1.2-4.1 -33.2-66.6-106.9-102.7-179.9-88.3 -85.4 16.9-144 97.3-131.5 183.4 10.1 69.9 50.7 115.7 117.8 137.4C479.1 675.9 491.2 676.8 503 679z"/><path fill-rule="evenodd" clip-rule="evenodd" fill="#3A3A3A" d="M503 679c-11.8-2.2-23.9-3.1-35.2-6.8 -67.1-21.7-107.7-67.4-117.8-137.4 -12.5-86.1 46.1-166.6 131.5-183.4 73-14.4 146.7 21.7 179.9 88.3 0.6 1.3 1.1 2.6 1.2 4.1 -21.7-39.8-53.6-67-97.3-79.6 -31.9-9.2-63.6-7.8-94.7 3.5 -62 22.4-103.7 83.2-102.3 148.4 1.4 67.2 45.9 126.7 110 145.9 36 10.8 71.7 9.1 106.4-5.9 34.5-15 59.8-39.7 78.1-72.3 -0.3 0.9-0.5 1.9-0.9 2.8 -28.5 54.2-73 85.1-134.1 91.7 -1.3 0.1-2.6 0.5-3.9 0.7C517 679 510 679 503 679z"/><path fill="#3A3A3A" d="M858.7 785.5c0 0-1.8 0.2-4.3-0.3 -5.5-0.9-14.8-3.6-18.1-9.3 -4.9-8.4-4.2-11.9-3.2-24.9 1.1-13 10.1-70.2 12.4-93 2.3-22.8 5.1-113 5.1-147.8 0-34.8-0.4-56.5-1.8-70.2 -1.4-13.7-10.7-17.2-14.6-20.7 -3.9-3.5-17.9-14.4-24.2-25.8 -5.6-10.1-7.9-25.1-9-38.1 -0.5-6.5-2.1-35.5 6.4-60.9 7.5-22.3 22.8-41.9 42.2-47.5 4-1.1 5.8-1.1 9-1.1"/><path fill="#3A3A3A" d="M856.8 785.5c0 0 1.8 0.2 4.3-0.3 5.5-0.9 14.8-3.6 18.1-9.3 4.9-8.4 4.2-11.9 3.2-24.9 -1.1-13-10.1-70.2-12.4-93 -2.3-22.8-5.1-113-5.1-147.8 0-34.8 0.4-56.5 1.8-70.2 1.4-13.7 10.7-17.2 14.6-20.7 3.9-3.5 17.9-14.4 24.2-25.8 5.6-10.1 7.9-25.1 9-38.1 0.5-6.5 2.1-35.5-6.4-60.9 -7.5-22.3-22.8-41.9-42.2-47.5 -4-1.1-5.8-1.1-9-1.1"/><path fill="#3A3A3A" d="M179.3 782.9c0 0-1.8 0.2-4.3-0.3 -5.5-0.9-14.8-3.6-18.1-9.3 -4.9-8.4-4.2-11.9-3.2-24.9 1.1-13 10.1-70.2 12.4-93 2.3-22.8 5.1-113 5.1-147.8 0-34.8 0.6-42.2-1.9-55.7 -2.5-13.3-10.1-21-13.7-24.8 -8.3-8.9-12.9-12.4-12.9-34.1 0-3.7 0-33.9 0.9-63 1.3-40.2 4.7-86.2 8.7-86.1 3.4 0.1 1.4 130.1 1.5 135.4 0.1 4.9 9 4.2 8.9 0.1 -0.1-8.9 1-100.7 2.6-125.6 0.7-10.6 3.8-21.5 5.8 0.3 2.7 29.4 0.6 108.8 1.9 125.5 0.2 2.8 3.7 3.1 6.2 3.1"/><path fill="#3A3A3A" d="M176.5 782.9c0 0 1.8 0.2 4.3-0.3 5.5-0.9 14.8-3.6 18.1-9.3 4.9-8.4 4.2-11.9 3.2-24.9 -1.1-13-10.1-70.2-12.4-93 -2.3-22.8-5.1-113-5.1-147.8 0-34.8-0.6-42.2 1.9-55.7 2.5-13.3 10.1-21 13.7-24.8 8.3-8.9 12.9-12.4 12.9-34.1 0-3.7 0-33.9-0.9-63 -1.3-40.2-4.7-86.2-8.7-86.1C200 244 202 374 201.9 379.3c-0.1 4.9-9 4.2-8.9 0.1 0.1-8.9-1-100.7-2.6-125.6 -0.7-10.6-3.8-21.5-5.8 0.3 -2.7 29.4-0.6 108.8-1.9 125.5 -0.2 2.8-3.7 3.1-6.2 3.1"/><path fill="#FFFFFF" d="M860.1 418.5c0 0 43.3-20 43.5-69.2 0.3-49.9-21.1-80.5-44.8-81.4 0 0 41.6 50-26.1 85.5 -35.5 18.6 3.8 57.6 25.5 65.1"/></svg>
