<?xml version="1.0" encoding="utf-8"?>
<!-- Generator: Adobe Illustrator 16.0.0, SVG Export Plug-In . SVG Version: 6.00 Build 0)  -->
<!DOCTYPE svg PUBLIC "-//W3C//DTD SVG 1.1//EN" "http://www.w3.org/Graphics/SVG/1.1/DTD/svg11.dtd">
<svg version="1.1" id="Layer_1" xmlns="http://www.w3.org/2000/svg" xmlns:xlink="http://www.w3.org/1999/xlink" x="0px" y="0px"
	 width="700px" height="500px" viewBox="0 0 700 500" enable-background="new 0 0 700 500" xml:space="preserve">
<g id="Group_2_1_">
	<g id="Layer_6_xA0_Image_1_">
		<g>
			<path fill="#DDDDDD" d="M670,97c0,1,0,2,0,3c-1.585,2.055-3.276,4.037-4.736,6.176c-4.519,6.618-7.391,14.632-16.286,17.385
				c-1.203,0.372-1.716,4.062-1.931,6.274c-0.279,2.893,0.374,5.878,0.068,8.764c-0.868,8.195-2.379,16.336-2.936,24.545
				c-0.377,5.567-2.562,9.717-6.374,13.541c-1.739,1.745-3.338,4.201-3.771,6.561c-0.866,4.703-0.528,9.628-1.378,14.336
				c-0.552,3.049-2.133,5.979-3.609,8.772c-1.368,2.586-3.603,4.752-4.746,7.407c-1.355,3.151-2.074,6.602-2.856,9.971
				c-1.984,8.538-3.624,17.164-5.883,25.626c-0.806,3.018-2.439,6.27-4.688,8.339c-3.249,2.992-7.194,5.451-11.224,7.313
				c-4.104,1.896-5.515,4.739-5.765,8.923c-0.475,7.969-0.785,15.981-1.937,23.864c-1.65,11.298-2.719,23.258-11.147,31.86
				c-6.076,6.202-13.026,11.514-18.094,18.75c-3.5,5-7.221,9.87-11.146,14.542c-5.562,6.62-12.722,12.273-16.814,19.662
				c-5.941,10.724-14.336,15.632-25.861,17.813c-18.055,3.418-17.983,3.795-28.25,19.222c-1.104,1.661-2.012,3.485-3.299,4.987
				c-1.152,1.346-2.538,2.685-4.103,3.447c-13.408,6.544-25.757,2.638-38.235-4.372c-6.062,6.609-14.204,5.444-22.209,5.562
				c-3.036,0.046-6.623,1.035-8.947,2.874c-4.537,3.589-8.205,8.254-12.561,12.104c-1.707,1.51-4.312,2.92-6.467,2.856
				c-11.67-0.346-23.199-1.71-34.053-6.586c-2.701-1.214-5.667-1.919-8.579-2.559c-13.354-2.935-26.297,1.066-39.39,2.494
				c-2.766,0.301-5.504,1.127-8.262,1.159c-4.968,0.057-10.387-1.668-14.823-0.218c-10.537,3.446-20.642,8.235-30.855,12.638
				c-6.137,2.646-12.087,5.983-18.805,1.508c-0.622-0.414-1.865,0.168-2.822,0.182c-6.309,0.091-12.395,1.897-18.954-0.905
				c-6.229-2.663-13.21-3.301-19.68,1.443c-2.45,1.797-6.274,2.574-9.401,2.417c-6.724-0.34-13.405-2.325-20.099-2.301
				c-11.935,0.043-24.396-1.892-34.954,6.37c-1.328,1.04-3.441,1.796-5.065,1.605c-5.753-0.67-10.737,1.101-15.741,3.61
				c-3.396,1.705-7.136,2.718-10.694,4.111c-4.434,1.734-8.128,1.53-10.376-3.435c-0.369-0.815-1.249-1.56-2.074-1.984
				c-5.328-2.747-10.726-5.359-16.052-8.111c-1.007-0.52-1.707-1.617-2.698-2.188c-2.216-1.278-4.412-2.969-6.824-3.446
				c-4.271-0.848-7.809-2.194-10.294-6.098c-1.979-3.108-5.061-4.183-8.976-4.236c-5.043-0.071-11.046,0.266-14.866-2.255
				c-5.101-3.366-9.803-5.024-15.657-4.488C3.585,435.952,2.277,435.3,1,435C1,313.333,1,191.667,1,70
				c4.681-0.317,9.365-0.902,14.042-0.855c2.997,0.029,6.404,0.265,8.881,1.697c4.198,2.43,7.927,2.733,12.271,0.767
				c1.609-0.729,4.116-1.134,5.504-0.381c4.108,2.229,8.763,3.896,10.266,9.427c0.567,2.09,2.965,4.027,4.986,5.316
				c9.553,6.092,19.265,11.935,30.315,18.724c4.931-5.852,10.519-12.766,16.454-19.366c1.989-2.213,4.63-4.441,7.384-5.236
				c5.021-1.449,9.77-2.859,13.531-6.811c1.127-1.185,3.162-1.805,4.877-2.081c8.841-1.426,17.8-3.6,25.943,2.521
				c0.465,0.35,1.305,0.161,1.942,0.329c7.975,2.099,15.927,4.287,23.922,6.308c6.947,1.755,13.763,2.958,20.75-0.715
				c2.276-1.196,5.856-0.652,8.617,0.016c3.004,0.726,5.633,2.945,8.63,3.773c8.736,2.413,17.574,4.457,26.577,6.697
				c0.308-3.849,3.089-5.759,7.363-6.627c7.927-1.609,15.684-4.455,23.667-5.288c8.439-0.882,12.813-2.351,13.128,9.213
				c0.076,2.781,1.111,4.996,4.488,4.642c6.169-0.647,11.187,1.101,13.984,6.922c10.621-5.572,11.635-7.034,12.605-17.732
				c0.5-5.52,5.383-9.766,11.021-10.189c3.392-0.255,6.841-0.971,10.052-2.088c3.916-1.363,7.684-3.22,11.383-5.12
				C361.104,59.999,368.533,55.964,376,52c4.666,0,9.334,0,14,0c6.693,4.004,15.914,2.976,20.436,11.055
				c1.146-1.007,1.769-1.54,2.373-2.092c9.166-8.345,10.867-8.535,22.063-3.178c1.7,0.813,3.771,1.146,5.681,1.174
				c9.408,0.132,18.838-0.29,28.222,0.212c8.556,0.458,17.057,1.9,25.592,2.802c2.776,0.294,5.687-0.172,8.366,0.444
				c6.228,1.433,12.354,3.301,18.517,5.018c2.533,0.706,5.429,0.919,7.501,2.326c6.276,4.261,12.231,8.995,18.361,13.582
				c2.384-1.801,4.202-4.263,6.36-4.612c8.23-1.332,16.555-2.305,24.878-2.735c3.498-0.182,7.076,1.355,10.63,2.048
				c4.977,0.97,10.936,0.468,14.754,3.095c9.539,6.562,20.293,6.539,30.85,8.144c4.2,0.64,8.366,1.515,12.539,2.327
				c5.651,1.102,11.309,2.178,16.932,3.409C666.083,95.463,668.021,96.327,670,97z"/>
			<path fill="none" d="M1,435c1.277,0.3,2.585,0.952,3.825,0.839c5.854-0.536,10.557,1.122,15.657,4.488
				c3.82,2.521,9.823,2.184,14.866,2.255c3.915,0.055,6.997,1.128,8.976,4.236c2.486,3.902,6.023,5.25,10.294,6.098
				c2.412,0.479,4.607,2.168,6.824,3.446c0.991,0.57,1.691,1.669,2.698,2.188c5.326,2.752,10.724,5.364,16.052,8.111
				c0.825,0.426,1.705,1.169,2.074,1.984c2.248,4.965,5.942,5.17,10.376,3.435c3.559-1.395,7.298-2.406,10.694-4.111
				c5.004-2.511,9.987-4.279,15.741-3.609c1.624,0.188,3.737-0.566,5.065-1.606c10.559-8.262,23.02-6.327,34.954-6.37
				c6.693-0.024,13.375,1.961,20.099,2.301c3.127,0.157,6.952-0.619,9.401-2.417c6.47-4.743,13.45-4.106,19.68-1.443
				c6.559,2.804,12.645,0.996,18.954,0.905c0.957-0.014,2.2-0.596,2.822-0.182c6.718,4.478,12.668,1.138,18.805-1.508
				c10.213-4.401,20.318-9.19,30.855-12.638c4.436-1.45,9.854,0.273,14.823,0.218c2.757-0.032,5.496-0.858,8.262-1.159
				c13.093-1.428,26.037-5.429,39.39-2.494c2.911,0.641,5.878,1.345,8.579,2.559c10.854,4.876,22.383,6.24,34.053,6.586
				c2.152,0.062,4.76-1.348,6.467-2.856c4.354-3.852,8.023-8.517,12.561-12.104c2.324-1.839,5.911-2.828,8.947-2.874
				c8.005-0.118,16.146,1.047,22.209-5.562c12.479,7.01,24.827,10.916,38.235,4.372c1.563-0.764,2.95-2.103,4.103-3.447
				c1.287-1.502,2.193-3.325,3.299-4.987c10.267-15.427,10.195-15.804,28.25-19.222c11.525-2.183,19.92-7.091,25.861-17.813
				c4.094-7.389,11.252-13.042,16.814-19.662c3.926-4.672,7.646-9.542,11.146-14.542c5.066-7.236,12.019-12.548,18.094-18.75
				c8.431-8.604,9.497-20.562,11.147-31.86c1.15-7.883,1.462-15.896,1.937-23.863c0.25-4.185,1.661-7.027,5.765-8.924
				c4.028-1.861,7.975-4.322,11.224-7.313c2.247-2.069,3.882-5.321,4.688-8.339c2.258-8.462,3.896-17.088,5.882-25.626
				c0.782-3.369,1.501-6.819,2.856-9.971c1.145-2.655,3.378-4.821,4.746-7.407c1.479-2.794,3.06-5.724,3.609-8.772
				c0.85-4.708,0.512-9.633,1.378-14.336c0.435-2.359,2.032-4.815,3.771-6.561c3.812-3.824,5.997-7.974,6.374-13.541
				c0.557-8.209,2.066-16.35,2.936-24.545c0.306-2.886-0.349-5.871-0.068-8.764c0.215-2.213,0.728-5.902,1.932-6.274
				c8.896-2.753,11.768-10.767,16.285-17.385c1.46-2.139,3.151-4.121,4.736-6.176c0,124.667,0,249.333,0,374c-223,0-446,0-669,0
				C1,461,1,448,1,435z"/>
			<path fill="none" d="M376,52c-7.467,3.964-14.896,7.999-22.416,11.861c-3.7,1.9-7.468,3.757-11.383,5.12
				c-3.211,1.117-6.661,1.833-10.052,2.088c-5.637,0.424-10.52,4.67-11.021,10.189c-0.97,10.698-1.984,12.16-12.605,17.732
				c-2.798-5.821-7.815-7.569-13.984-6.922c-3.376,0.354-4.412-1.86-4.488-4.642c-0.315-11.562-4.689-10.095-13.128-9.213
				c-7.984,0.833-15.74,3.679-23.667,5.288c-4.273,0.868-7.055,2.778-7.363,6.627c-9.002-2.24-17.841-4.284-26.577-6.697
				c-2.997-0.828-5.625-3.048-8.63-3.773c-2.761-0.668-6.341-1.212-8.617-0.016c-6.987,3.673-13.803,2.47-20.75,0.715
				c-7.995-2.021-15.947-4.209-23.922-6.308c-0.637-0.168-1.477,0.021-1.942-0.329c-8.143-6.121-17.102-3.947-25.943-2.521
				c-1.716,0.276-3.75,0.896-4.877,2.081c-3.761,3.951-8.51,5.361-13.531,6.811c-2.754,0.795-5.395,3.023-7.384,5.236
				c-5.935,6.601-11.522,13.515-16.454,19.366c-11.05-6.789-20.762-12.632-30.315-18.724c-2.021-1.289-4.419-3.227-4.986-5.316
				c-1.503-5.53-6.157-7.198-10.266-9.427c-1.389-0.753-3.895-0.348-5.504,0.381c-4.343,1.967-8.072,1.663-12.271-0.767
				c-2.477-1.433-5.885-1.668-8.881-1.697C10.365,69.098,5.681,69.683,1,70c0-6,0-12,0-18C126,52,251,52,376,52z"/>
			<path fill="none" d="M670,97c-1.979-0.673-3.917-1.537-5.947-1.982c-5.623-1.231-11.279-2.308-16.932-3.409
				c-4.173-0.812-8.339-1.688-12.539-2.327c-10.557-1.604-21.311-1.581-30.85-8.144c-3.818-2.627-9.777-2.125-14.755-3.095
				c-3.553-0.692-7.131-2.229-10.629-2.048c-8.323,0.431-16.646,1.403-24.878,2.735c-2.159,0.35-3.978,2.812-6.36,4.612
				c-6.131-4.587-12.085-9.321-18.361-13.582c-2.072-1.407-4.968-1.62-7.501-2.326c-6.162-1.717-12.289-3.585-18.518-5.018
				c-2.68-0.616-5.589-0.15-8.365-0.444c-8.535-0.901-17.036-2.344-25.592-2.802c-9.384-0.502-18.812-0.08-28.222-0.212
				c-1.908-0.027-3.979-0.36-5.681-1.174c-11.196-5.357-12.897-5.167-22.062,3.178c-0.605,0.552-1.229,1.085-2.373,2.092
				C405.914,54.976,396.693,56.004,390,52c93.334,0,186.666,0,280,0C670,67,670,82,670,97z"/>
		</g>
	</g>
	<g id="Layer7_xA0_Image_1_">
		<g>
			<path fill="none" d="M1,433C1,313,1,193,1,73c3.566-1.46,7.101-2.699,11.034-1.057c0.945,0.395,2.368,0.101,3.413-0.295
				c2.482-0.939,4.756-0.286,6.614,1.102c5.354,4,10.718,3.921,16.313,0.709c0.402-0.23,0.939-0.224,1.56-0.359
				c2.636,1.629,5.315,3.284,8.123,5.019c1.074,5.566,4.754,8.909,9.684,11.212c1.337,0.625,2.468,1.681,3.741,2.459
				c1.954,1.195,3.847,2.568,5.946,3.427c5.175,2.116,9.789,4.955,13.512,9.177c1.18,1.338,2.474,2.574,4.021,4.172
				c7.049-6.375,15.211-10.954,19.422-19.553c2.054-4.193,5.206-6.756,9.922-7.309c1.317-0.155,2.657-0.399,3.899-0.845
				c1.386-0.497,3.058-0.944,3.933-1.98c3.237-3.833,7.26-5.584,12.192-5.61c0.98-0.006,1.968-0.338,2.937-0.581
				c4.907-1.23,9.599-0.708,13.955,1.888c4.412,2.63,9.39,3.432,14.282,3.892c4.241,0.399,8.187,1.203,11.958,3.111
				c7.397,3.743,15.166,4.349,22.728,1.172c5.429-2.28,9.946-1.406,14.633,1.414c1.532,0.922,3.283,1.91,4.993,2.03
				c5.572,0.393,10.747,2.101,15.887,4.053c3.862,1.467,7.811,2.506,12.046,2.789c0.668-1.987,1.24-3.688,1.985-5.906
				c4.342-1.091,8.801-2.339,13.321-3.305c3.729-0.797,7.708-0.755,11.252-2.005c3.99-1.408,7.75-1.074,11.539-0.737
				c2.875,4.404-0.416,11.119,5.69,13.604c3.375,0.149,6.882-0.525,9.58,0.653c2.817,1.23,4.855,4.246,7.36,6.602
				c2.868-1.74,5.717-3.45,8.549-5.191c4.747-2.917,7.67-6.856,6.929-12.744c-0.569-4.514,1.278-7.716,5.397-10.012
				c1.769,0,3.769,0.088,5.756-0.029c1.463-0.086,3.064-0.116,4.339-0.726c12.301-5.879,24.528-11.907,36.823-17.798
				c1.592-0.763,3.52-1.575,5.152-1.354c5.079,0.691,10.122,1.733,15.119,2.897c5.167,1.204,9.575,3.727,12.587,8.313
				c0.31,0.47,1.031,0.669,1.726,1.094c1.461-1.362,2.791-2.599,4.114-3.84c7.463-6.998,9.417-7.229,18.501-2.482
				c1.585,0.828,3.358,1.758,5.067,1.807c6.158,0.175,12.415,0.615,18.465-0.241c5.476-0.774,10.549,0.071,15.688,1.234
				c7.725,1.75,15.477,2.262,23.304,1.063c2.795-0.428,5.177,0.092,7.56,1.671c1.751,1.161,3.801,2.108,5.848,2.541
				c5.675,1.201,11.416,2.083,15.541,2.811c8.341,5.737,15.422,10.609,22.599,15.547c1.688-1.319,3.468-2.559,5.064-4.001
				c1.858-1.677,3.993-2.461,6.408-2.214c6.067,0.62,11.893-0.547,17.591-2.381c3.931,2.087,7.948,2.7,12.217,2.144
				c1.968-0.257,4.021-0.271,5.984-0.004c1.924,0.261,4.246,0.482,5.586,1.649c6.464,5.634,14.155,7.562,22.365,8.712
				c5.271,0.738,10.46,1.934,15.832,1.772c1.3-0.039,2.729-0.014,3.895,0.471c7.716,3.202,15.5,6.008,24.73,5.171
				c-3.225,5.159-6.249,9.546-8.792,14.196c-2.567,4.695-6.305,7.593-11.343,9.03c-0.295,0.085-0.529,0.386-1.041,0.775
				c-1.166,3.053-1.881,6.381-1.189,9.93c0.728,3.728-0.186,7.24-1.376,10.75c-0.683,2.014-1.36,4.118-1.48,6.214
				c-0.304,5.308-0.353,10.633-0.383,15.951c-0.021,3.795-1.551,6.726-4.51,9.024c-1.696,1.316-3.313,2.733-4.754,3.929
				c-0.416,1.99-0.891,3.601-1.069,5.243c-0.466,4.285-1.466,8.658-0.999,12.856c0.445,4.003-0.456,6.696-3.402,9.201
				c-2.264,1.923-4.177,4.107-4.993,7.257c-1.96,7.551-4.202,15.031-6.471,22.498c-1.456,4.792-2.888,9.559-2.537,14.646
				c0.176,2.554-0.764,4.557-2.873,5.991c-3.576,2.437-6.87,5.676-10.815,7.092c-6.44,2.312-7.784,7.035-8.151,12.781
				c-0.043,0.664-0.055,1.332-0.099,1.996c-0.912,13.608-1.457,27.242-5.938,40.359c-2.241,6.559-5.535,12.195-11.739,15.461
				c-2.644,1.393-4.493,3.159-6.191,5.497c-2.429,3.347-5.245,6.408-7.816,9.654c-1.437,1.812-2.736,3.729-4.052,5.634
				c-1.503,2.175-2.739,4.573-4.468,6.546c-5.266,6.013-10.748,11.835-16.059,17.809c-1.189,1.339-2.319,2.874-2.97,4.521
				c-2.582,6.526-7.591,10.438-13.918,12.551c-5.342,1.783-10.916,2.885-16.416,4.168c-2.519,0.588-5.104,0.891-8.27,1.424
				c-3.406,1.695-6.12,5.033-8.577,8.639c-2.438,3.576-5.188,6.976-7.284,10.74c-2.305,4.145-5.555,6.445-10.134,7.144
				c-1.313,0.2-2.623,0.488-3.903,0.848c-7.097,1.988-13.496,0.886-18.902-4.273c-1.614-0.071-3.098-0.139-4.834-0.215
				c-0.314-0.416-0.68-0.952-1.101-1.438c-0.53-0.613-1.107-1.187-1.696-1.81c-0.776,0.259-1.529,0.307-1.991,0.695
				c-6.694,5.648-14.272,7.236-22.711,5.109c-2.249-0.567-4.413-0.063-6.161,1.312c-3.516,2.769-6.963,5.639-10.262,8.657
				c-3.051,2.79-5.869,5.831-8.56,8.528c-3.189-0.205-5.831-0.33-8.465-0.552c-8.309-0.7-16.468-1.934-24.285-5.164
				c-11.987-4.954-24.112-7.404-36.754-1.722c-6.014,2.703-12.444,2.621-19.103,2.094c-9.203-0.729-18.894-3.351-27.442,2.971
				c-0.258,0.189-0.611,0.262-0.928,0.359c-9.248,2.849-18.29,6.208-26.682,11.094c-3.168,1.845-6.438,1.513-9.676,0.661
				c-1.54-0.404-2.896-1.51-3.792-1.998c-4.873,0.609-9.087,1.233-13.324,1.609c-1.242,0.109-2.567-0.414-3.815-0.78
				c-1.4-0.411-2.72-1.159-4.138-1.438c-4.539-0.894-9.107-1.639-12.9-2.307c-3.71,2.021-6.738,3.73-9.824,5.331
				c-2.762,1.431-5.653,1.683-8.733,0.997c-3.565-0.794-7.176-1.479-10.803-1.875c-4.273-0.467-8.601-0.931-12.877-0.75
				c-6.478,0.271-12.961,0.896-19.383,1.792c-2.536,0.354-5.005,1.664-7.333,2.868c-1.901,0.984-3.442,2.662-5.341,3.652
				c-1.377,0.719-3.407,1.569-4.577,1.058c-4.272-1.865-7.713-0.057-11.435,1.521c-5.929,2.512-11.835,5.183-18.524,6.427
				c-0.903-1.352-1.591-2.685-2.566-3.757c-0.964-1.06-2.164-1.937-3.359-2.748c-1.458-0.99-3.039-1.798-4.531-2.74
				c-2.227-1.406-4.364-3.946-6.643-4.067c-4.441-0.237-7.045-2.399-9.046-5.718c-1.835-0.453-3.441-1.173-5.053-1.188
				c-4.26-0.037-7.027-2.029-9.415-5.466c-2.36-3.396-5.773-5.408-10.265-5.038c-2.312,0.191-4.693-0.327-6.986-0.051
				c-4.176,0.503-7.456-0.861-10.333-3.8c-2.197-2.243-4.934-3.197-8.152-3.025C7.338,433.16,4.166,433.01,1,433z"/>
			<path fill="none" d="M1,62C1,44,1,26,1,8c230.333,0,460.666,0,691,0c0,161.667,0,323.333,0,485c-230.334,0-460.667,0-691,0
				c0-17.333,0-34.667,0-52c1.831-0.042,3.683-0.283,5.487-0.084c3.607,0.398,7.403,0.303,10.488,2.679
				c2.63,2.025,5.518,2.833,8.834,2.754c3.634-0.087,6.706,1.104,9.154,4.149c2.057,2.559,4.711,4.638,7.064,6.895
				c5.248-1.047,8.139,1.491,10.175,5.637c1.025,2.086,2.094,4.233,3.567,6.001c3.911,4.689,4.808,10.043,4.144,15.868
				c-0.113,0.991-0.25,2.005-0.164,2.988c0.108,1.234,0.435,2.449,0.713,3.911c9.156-2.509,17.306-6.165,24.89-10.911
				c1.381,0.399,2.627,0.76,3.395,0.981c5.786-3.543,11.157-6.833,16.53-10.121c4.136-2.531,8.436-4.001,12.542-2.067
				c6.939-3.144,13.234-6.187,19.693-8.827c2.728-1.113,5.786-1.823,8.725-1.939c6.975-0.276,13.968-0.089,20.954-0.089
				c2.308,1.963,4.739,3.375,7.357,4.172c6.209,1.89,12.548,3.355,18.749,5.271c2.261,0.698,4.313,1.429,6.742,0.835
				c3.559-0.866,6.145,0.694,7.894,3.788c0.901,1.595,1.711,3.244,2.679,4.795c1.812,2.903,3.218,6.119,6.178,8.65
				c2.96-4.868,5.765-9.48,8.577-14.104c1.974,2.162,3.72,4.073,6.03,6.604c1.622-1.952,2.799-3.575,4.184-4.996
				c4.418-4.535,8.876-9.032,13.391-13.47c3.51-3.45,7.394-5.157,11.902-1.748c0.895-0.552,1.652-0.914,2.291-1.426
				c7.371-5.907,15.494-10.275,24.691-12.688c2.115-0.554,3.971-2.099,6.344-3.407c3.653,2.488,8.281,2.734,12.972,2.754
				c2.164,0.011,4.332,0.115,6.491,0.28c2.779,0.212,5.846-0.146,8.274,0.916c9.677,4.236,19.793,6.912,30.02,9.262
				c1.874,0.432,4.029,0.77,5.795,0.253c2.223-0.648,4.223-0.7,6.326-0.025c2.681,0.857,5.318,1.858,8.029,2.607
				c1.369,0.378,3.096,0.889,4.25,0.391c6.535-2.816,13.562-4.882,18.377-10.661c4.056-4.867,10.171-6.037,15.492-8.594
				c1.233-0.593,3.017-0.521,4.416-0.194c5.031,1.167,9.855,2.722,13.852,6.392c2.622,2.408,5.823,4.188,8.804,6.275
				c2.244-3.832-1.114-6.379-1.166-9.671c5.14,4.292,6.875,7.427,7.979,13.306c1.938,2.511,3.235,4.191,4.736,6.136
				c6.649-4.789,12.844-9.252,19.036-13.713c2.666-1.921,5.575-3.635,5.802-7.257c4.839-0.588,9.27-1.127,13.757-1.673
				c-0.563-2.128-1.022-3.858-1.585-5.982c5.662-4.29,7.659-10.671,9.85-16.963c0.314-0.906,0.859-1.9,1.596-2.467
				c4.879-3.749,9.662-7.667,14.826-10.984c4.318-2.773,9.057-4.928,13.709-7.14c7.214-3.43,14.521-6.662,21.771-10.015
				c1.04-0.48,2.1-1.033,2.953-1.777c2.354-2.051,4.604-4.221,7.28-6.703c0-0.827-0.007-2.146,0.001-3.468
				c0.049-7.411,2.053-14.101,7.015-19.805c1.061-1.218,1.701-2.83,2.407-4.321c3.017-6.371,7.19-11.611,13.928-14.34
				c2.103-0.853,3.666-2.11,4.643-4.234c0.925-2.012,2.414-3.514,4.688-4.184c3.569-1.052,4.987-3.728,4.822-7.253
				c-0.123-2.612-0.519-5.211-0.812-7.998c6.349-2.631,13.256,0.85,19.818-1.713c-1.573-7.615-3.15-14.909-4.576-22.232
				c-1.453-7.469-3.022-14.94-2.689-22.325c3.704-2.5,6.992-4.718,10.275-6.933c0.312-2.251,0.786-4.213,0.827-6.183
				c0.193-9.217,2.861-18.002,4.57-26.954c0.312-1.629,0.894-3.206,1.316-4.815c0.978-3.719,3.146-6.481,6.336-8.649
				c4.131-2.808,8.169-5.767,12.09-8.859c1.356-1.069,2.705-2.576,3.249-4.161c1.29-3.76,2.238-7.656,3.036-11.557
				c0.354-1.737,0.196-3.643-0.047-5.428c-0.628-4.599-1.696-9.15-2.104-13.764c-0.509-5.778-0.532-11.6-0.759-17.213
				c2.618-1.738,4.804-3.188,7.078-4.697c0-3.193-0.038-6.186,0.007-9.177c0.117-7.785,4.773-13.2,11.418-14.087
				c5.021-0.671,9.121-3.627,12.498-7.565c-1.085-0.66-1.937-1.178-2.687-1.634c2.94-3.273,5.752-6.101,8.203-9.212
				c2.49-3.163,6.002-5.585,7.625-9.758c-1.927-0.479-3.516-0.973-5.141-1.26c-7.527-1.327-15.067-2.589-22.602-3.89
				c-3.273-0.565-6.615-1.891-9.79-1.562c-3.412,0.354-6.213-0.404-9.051-1.808c-3.06-1.512-6.265-1.943-9.653-2.044
				c-3.461-0.102-6.95-0.558-10.348-1.248c-8.884-1.807-17.394-4.544-24.209-10.973c-0.22-0.207-0.612-0.23-1.413-0.511
				c-1.462,0.539-3.29,1.215-5.197,1.92c-4.252-2.106-8.519-4.22-12.638-6.261c-1.695,1.318-2.838,2.286-4.059,3.141
				c-4.073,2.853-8.152,4.228-12.787,0.864c-2.543-1.846-5.505-1.705-8.606-0.823c-3.425,0.973-5.937,3.246-8.968,5.626
				c-1.78-1.776-3.378-3.369-5-4.987c-4.303-1.373-8.711-2.779-12.929-4.125c-3.163-3.598-1.874-8.12-2.927-11.973
				c-4.125-0.925-8.006-1.807-11.894-2.658c-0.804-0.176-1.739-0.549-2.431-0.307c-4.759,1.669-9.581,0.441-14.372,0.523
				c-2.637,0.045-5.531-0.142-7.844,0.855c-4.164,1.795-8.359,1.875-12.627,1.911c-1.722-1.216-3.336-2.358-4.689-3.315
				c-2.973-0.287-4.53,1.058-5.146,3.527c-1.75-1.039-3.151-1.872-4.687-2.783c-4.181,3.351-8.247,3.225-12.339-0.029
				c-0.986-0.784-2.358-1.084-3.426-1.551c-4.21,1.855-8.237,2.366-12.355,0.761c-1.707-0.665-3.351-1.546-5.105-2.018
				c-3.455-0.931-6.68-3.01-10.604-2.429c-1.576,2.327-3.11,4.594-4.748,7.013c-8.707-11.548-15.082-23.665-15.718-38.176
				c-1.374,0.454-2.426,0.802-4.02,1.329c-0.778-2.021-1.449-3.766-2.447-6.363c-4.383,8.635-11.41,14.199-18.086,20.349
				c-0.528-0.993-0.99-1.856-1.587-2.978c-5.329,6.49-6.859,14.403-10.604,21.304c-2.16-1.287-3.987-2.375-5.711-3.402
				c-0.533-1.384-1.002-2.604-1.729-4.495c-3.547,4.339-6.628,8.426-10.054,12.198c-2.972,3.273-5.432,6.684-5.751,10.909
				c-2.394,2.164-4.989,2.854-7.7,2.621c-4.029-0.347-7.04,1.41-9.764,3.949c-0.393,5.866-0.78,11.646-1.134,16.931
				c-2.912,4.224-6.969,5.111-10.873,6.374c-2.354-3.155-4.53-6.072-6.613-8.864c-2.089-0.436-3.991-0.832-5.607-1.17
				c-3.253-8.216-4.132-9.515-7.55-11.203c-1.436,0.925-2.947,1.899-4.516,2.91c-9.046-0.668-17.935,0.188-26.722,2.321
				c-1.196,0.29-2.562-0.089-3.845-0.194c-7.532-0.616-15.05-2.679-22.519,0.84c-3.25,1.531-6.76,1.431-9.922-0.972
				c-4.49-3.412-9.646-4.166-15.147-3.591c-2.644,0.276-5.342,0.025-7.987,0.291c-3.121,0.313-6.382,0.46-9.279,1.513
				c-5.329,1.937-9.751,1.005-13.732-2.817c-1.842-1.77-3.923-2.307-6.423-1.621c-2.557,0.701-5.167,1.208-8.489,1.968
				c-5.76-4.34-11.732-9.423-19.516-12.127c-3.464,1.604-7.108,3.215-10.683,4.967c-3.318,1.625-4.823,1.441-7.563-1.067
				c-1.81-1.658-3.713-3.215-6.219-5.371c-0.796-1.298-2.058-3.355-3.682-6.003c-5.665,7.164-10.404,13.931-11.991,22.296
				c-1.575,8.307-6.913,14.125-12.34,19.957c-0.314,0.338-0.883,0.438-1.662,0.803C80.957,93.951,76.5,91.479,72,88.983
				c0.812-4.169,1.996-7.877,0.528-11.595c-3.12,0-6.093,0.28-8.983-0.09c-2.254-0.289-4.432-1.317-6.593-2.148
				c-1.696-0.653-3.38-1.395-4.952-2.301c-1.966-1.133-3.811-2.475-6.039-3.945c-0.574-1.614-1.287-3.623-2.092-5.89
				c-6.422-0.328-8.833-4.527-9.828-10.074c-0.264-1.471-0.612-2.942-1.094-4.354c-0.57-1.668-1.328-3.271-2.176-5.316
				c-1.89,1.274-3.279,2.153-4.607,3.116c-5.527,4.011-11.046,8.035-16.548,12.08C7.031,60.367,4.271,61.792,1,62z"/>
			<path fill="#FFFFFF" d="M1,62c3.271-0.208,6.031-1.633,8.616-3.534c5.502-4.045,11.021-8.069,16.548-12.08
				c1.328-0.963,2.717-1.842,4.607-3.116c0.848,2.045,1.606,3.648,2.176,5.316c0.482,1.412,0.83,2.884,1.094,4.354
				c0.995,5.547,3.405,9.746,9.828,10.074c0.805,2.267,1.519,4.275,2.092,5.89c2.228,1.471,4.073,2.812,6.039,3.945
				c1.572,0.906,3.255,1.647,4.952,2.301c2.161,0.831,4.338,1.859,6.593,2.148c2.89,0.37,5.864,0.09,8.983,0.09
				c1.468,3.718,0.284,7.426-0.528,11.595c4.5,2.496,8.957,4.968,13.254,7.352c0.778-0.364,1.347-0.465,1.662-0.803
				c5.427-5.832,10.765-11.65,12.34-19.957c1.587-8.365,6.326-15.132,11.991-22.296c1.624,2.647,2.886,4.705,3.682,6.003
				c2.506,2.156,4.409,3.713,6.219,5.371c2.74,2.509,4.246,2.692,7.563,1.067c3.575-1.752,7.219-3.363,10.683-4.967
				c7.783,2.704,13.755,7.787,19.516,12.127c3.322-0.76,5.932-1.267,8.489-1.968c2.5-0.686,4.581-0.148,6.423,1.621
				c3.981,3.822,8.404,4.754,13.732,2.817c2.897-1.053,6.158-1.199,9.279-1.513c2.646-0.266,5.344-0.015,7.987-0.291
				c5.501-0.575,10.657,0.179,15.147,3.591c3.162,2.402,6.672,2.503,9.922,0.972c7.469-3.519,14.986-1.456,22.519-0.84
				c1.284,0.105,2.649,0.484,3.845,0.194c8.787-2.133,17.676-2.989,26.722-2.321c1.569-1.011,3.08-1.985,4.516-2.91
				c3.418,1.688,4.297,2.987,7.55,11.203c1.617,0.338,3.518,0.734,5.607,1.17c2.083,2.792,4.26,5.709,6.613,8.864
				c3.904-1.263,7.961-2.15,10.873-6.374c0.354-5.285,0.741-11.064,1.134-16.931c2.724-2.539,5.735-4.296,9.764-3.949
				c2.711,0.232,5.306-0.457,7.7-2.621c0.319-4.226,2.779-7.636,5.751-10.909c3.426-3.772,6.507-7.859,10.054-12.198
				c0.729,1.892,1.197,3.111,1.73,4.495c1.723,1.027,3.551,2.115,5.711,3.402c3.741-6.9,5.272-14.812,10.603-21.304
				c0.597,1.121,1.058,1.984,1.587,2.978c6.676-6.149,13.703-11.714,18.086-20.349c0.998,2.598,1.669,4.342,2.447,6.363
				c1.594-0.527,2.646-0.875,4.02-1.329c0.637,14.511,7.01,26.628,15.717,38.176c1.639-2.419,3.174-4.686,4.75-7.013
				c3.923-0.581,7.146,1.498,10.603,2.429c1.756,0.472,3.397,1.353,5.104,2.018c4.119,1.605,8.146,1.095,12.356-0.761
				c1.066,0.467,2.438,0.767,3.426,1.551c4.092,3.254,8.158,3.38,12.339,0.029c1.534,0.911,2.937,1.744,4.687,2.783
				c0.614-2.47,2.174-3.814,5.146-3.527c1.354,0.957,2.969,2.1,4.689,3.315c4.268-0.036,8.463-0.116,12.627-1.911
				c2.312-0.997,5.207-0.811,7.844-0.855c4.791-0.082,9.613,1.146,14.372-0.523c0.69-0.242,1.627,0.131,2.431,0.307
				c3.888,0.853,7.769,1.733,11.894,2.658c1.053,3.853-0.236,8.375,2.927,11.973c4.218,1.346,8.626,2.752,12.929,4.125
				c1.622,1.618,3.22,3.211,5,4.987c3.031-2.38,5.544-4.653,8.968-5.626c3.103-0.882,6.063-1.022,8.606,0.823
				c4.635,3.363,8.714,1.988,12.787-0.864c1.221-0.854,2.362-1.822,4.06-3.141c4.118,2.041,8.385,4.154,12.637,6.261
				c1.907-0.705,3.736-1.381,5.197-1.92c0.801,0.28,1.193,0.304,1.414,0.511c6.814,6.429,15.324,9.166,24.207,10.973
				c3.397,0.69,6.888,1.146,10.349,1.248c3.39,0.101,6.595,0.532,9.653,2.044c2.838,1.403,5.639,2.161,9.051,1.808
				c3.175-0.328,6.517,0.997,9.79,1.562c7.533,1.301,15.073,2.562,22.602,3.89c1.625,0.287,3.214,0.781,5.141,1.26
				c-1.623,4.173-5.135,6.595-7.625,9.758c-2.451,3.111-5.263,5.938-8.203,9.212c0.75,0.456,1.602,0.974,2.687,1.634
				c-3.377,3.938-7.477,6.895-12.498,7.565c-6.645,0.887-11.301,6.302-11.418,14.087c-0.045,2.991-0.007,5.983-0.007,9.177
				c-2.274,1.509-4.46,2.959-7.078,4.697c0.227,5.613,0.25,11.435,0.759,17.213c0.406,4.613,1.476,9.165,2.104,13.764
				c0.243,1.785,0.4,3.69,0.047,5.428c-0.798,3.9-1.746,7.797-3.036,11.557c-0.544,1.585-1.893,3.092-3.249,4.161
				c-3.921,3.093-7.959,6.052-12.09,8.859c-3.189,2.168-5.358,4.931-6.336,8.649c-0.424,1.609-1.006,3.187-1.316,4.815
				c-1.709,8.951-4.377,17.736-4.57,26.952c-0.041,1.971-0.515,3.933-0.827,6.184c-3.283,2.215-6.571,4.434-10.275,6.932
				c-0.333,7.387,1.236,14.857,2.689,22.326c1.426,7.323,3.003,14.617,4.577,22.232c-6.563,2.562-13.472-0.918-19.819,1.713
				c0.293,2.787,0.688,5.386,0.812,7.998c0.165,3.526-1.253,6.201-4.822,7.253c-2.274,0.67-3.765,2.172-4.688,4.184
				c-0.977,2.124-2.54,3.384-4.643,4.234c-6.736,2.729-10.911,7.969-13.928,14.34c-0.706,1.491-1.348,3.104-2.407,4.321
				c-4.961,5.704-6.966,12.394-7.015,19.805c-0.008,1.32-0.001,2.642-0.001,3.468c-2.678,2.482-4.927,4.652-7.279,6.703
				c-0.854,0.744-1.914,1.297-2.954,1.777c-7.251,3.353-14.558,6.585-21.771,10.015c-4.653,2.212-9.391,4.365-13.709,7.14
				c-5.164,3.317-9.946,7.235-14.826,10.984c-0.735,0.565-1.28,1.561-1.596,2.468c-2.188,6.292-4.188,12.672-9.85,16.963
				c0.562,2.124,1.021,3.854,1.585,5.981c-4.487,0.546-8.918,1.085-13.756,1.673c-0.228,3.622-3.137,5.336-5.803,7.258
				c-6.192,4.461-12.387,8.923-19.036,13.713c-1.501-1.944-2.8-3.626-4.736-6.137c-1.104-5.879-2.839-9.014-7.979-13.306
				c0.053,3.292,3.41,5.839,1.166,9.671c-2.979-2.089-6.182-3.867-8.804-6.274c-3.995-3.671-8.819-5.226-13.851-6.393
				c-1.4-0.325-3.184-0.396-4.416,0.194c-5.322,2.557-11.438,3.727-15.492,8.594c-4.815,5.779-11.844,7.845-18.377,10.661
				c-1.155,0.498-2.881-0.012-4.25-0.39c-2.711-0.749-5.351-1.75-8.03-2.608c-2.104-0.675-4.104-0.623-6.326,0.026
				c-1.765,0.516-3.921,0.178-5.795-0.253c-10.227-2.351-20.343-5.025-30.02-9.263c-2.428-1.062-5.495-0.704-8.274-0.916
				c-2.159-0.165-4.327-0.271-6.491-0.279c-4.69-0.021-9.319-0.267-12.972-2.755c-2.373,1.31-4.229,2.854-6.344,3.407
				c-9.197,2.411-17.32,6.779-24.691,12.688c-0.639,0.512-1.396,0.874-2.291,1.426c-4.509-3.409-8.393-1.702-11.902,1.748
				c-4.515,4.438-8.973,8.935-13.391,13.47c-1.385,1.421-2.562,3.044-4.184,4.996c-2.31-2.529-4.056-4.439-6.03-6.603
				c-2.812,4.624-5.616,9.235-8.577,14.104c-2.96-2.531-4.366-5.747-6.178-8.649c-0.968-1.552-1.778-3.201-2.679-4.796
				c-1.75-3.094-4.335-4.654-7.894-3.787c-2.429,0.593-4.481-0.138-6.742-0.836c-6.201-1.914-12.539-3.382-18.749-5.271
				c-2.618-0.797-5.049-2.209-7.357-4.172c-6.986,0-13.979-0.188-20.954,0.089c-2.939,0.116-5.997,0.826-8.725,1.94
				c-6.459,2.641-12.753,5.684-19.693,8.826c-4.106-1.934-8.406-0.464-12.542,2.067c-5.373,3.288-10.745,6.578-16.53,10.121
				c-0.767-0.222-2.013-0.582-3.395-0.981c-7.584,4.746-15.734,8.402-24.89,10.911c-0.278-1.462-0.605-2.677-0.713-3.911
				c-0.086-0.983,0.051-1.997,0.164-2.987c0.664-5.826-0.232-11.18-4.144-15.869c-1.473-1.768-2.542-3.915-3.567-6.001
				c-2.036-4.146-4.927-6.684-10.175-5.636c-2.353-2.258-5.007-4.337-7.064-6.896c-2.448-3.047-5.521-4.236-9.154-4.149
				c-3.317,0.079-6.205-0.729-8.834-2.754c-3.085-2.376-6.881-2.279-10.488-2.679C4.683,440.717,2.831,440.958,1,441
				c0-2.667,0-5.333,0-8c3.166,0.01,6.338,0.16,9.494-0.009c3.218-0.172,5.955,0.782,8.152,3.024
				c2.877,2.938,6.156,4.304,10.333,3.801c2.293-0.276,4.674,0.241,6.986,0.051c4.492-0.37,7.905,1.643,10.265,5.038
				c2.388,3.437,5.155,5.429,9.415,5.466c1.612,0.015,3.218,0.732,5.053,1.187c2,3.318,4.605,5.48,9.046,5.719
				c2.279,0.12,4.417,2.66,6.643,4.067c1.492,0.942,3.073,1.75,4.531,2.74c1.195,0.812,2.395,1.688,3.359,2.748
				c0.975,1.072,1.663,2.405,2.566,3.757c6.689-1.244,12.595-3.915,18.524-6.427c3.722-1.576,7.163-3.386,11.435-1.521
				c1.169,0.513,3.199-0.339,4.577-1.058c1.898-0.99,3.44-2.668,5.341-3.652c2.328-1.205,4.797-2.515,7.333-2.869
				c6.422-0.896,12.905-1.521,19.383-1.792c4.277-0.18,8.604,0.284,12.877,0.75c3.627,0.396,7.238,1.081,10.803,1.875
				c3.081,0.687,5.972,0.435,8.733-0.997c3.086-1.6,6.113-3.311,9.824-5.33c3.792,0.668,8.361,1.412,12.9,2.307
				c1.418,0.279,2.737,1.027,4.138,1.438c1.248,0.367,2.573,0.892,3.815,0.781c4.237-0.376,8.452-1,13.324-1.609
				c0.896,0.488,2.252,1.594,3.792,1.998c3.238,0.852,6.508,1.184,9.676-0.661c8.392-4.887,17.435-8.245,26.682-11.095
				c0.317-0.098,0.67-0.169,0.928-0.358c8.548-6.32,18.239-3.7,27.442-2.972c6.659,0.528,13.089,0.61,19.103-2.093
				c12.643-5.684,24.767-3.232,36.753,1.722c7.817,3.23,15.978,4.464,24.285,5.163c2.633,0.223,5.274,0.348,8.465,0.553
				c2.689-2.697,5.51-5.738,8.56-8.528c3.299-3.02,6.746-5.89,10.262-8.657c1.748-1.375,3.912-1.879,6.161-1.312
				c8.438,2.127,16.017,0.539,22.711-5.109c0.462-0.39,1.215-0.438,1.991-0.696c0.589,0.623,1.166,1.196,1.697,1.811
				c0.421,0.486,0.784,1.021,1.1,1.438c1.736,0.077,3.22,0.145,4.834,0.216c5.406,5.158,11.807,6.263,18.902,4.273
				c1.28-0.359,2.59-0.646,3.903-0.848c4.579-0.697,7.829-2.999,10.135-7.144c2.095-3.766,4.845-7.165,7.283-10.74
				c2.457-3.604,5.172-6.942,8.577-8.639c3.166-0.534,5.751-0.836,8.271-1.424c5.499-1.283,11.073-2.385,16.415-4.168
				c6.327-2.113,11.336-6.024,13.918-12.551c0.649-1.646,1.779-3.183,2.97-4.521c5.311-5.974,10.793-11.796,16.059-17.809
				c1.729-1.973,2.966-4.371,4.469-6.546c1.313-1.903,2.614-3.822,4.051-5.634c2.572-3.246,5.389-6.309,7.816-9.654
				c1.698-2.338,3.549-4.105,6.191-5.497c6.204-3.266,9.498-8.902,11.739-15.461c4.481-13.117,5.026-26.751,5.938-40.358
				c0.044-0.666,0.056-1.332,0.099-1.998c0.368-5.744,1.711-10.47,8.151-12.781c3.945-1.416,7.239-4.654,10.815-7.09
				c2.11-1.437,3.049-3.438,2.873-5.993c-0.351-5.087,1.081-9.854,2.537-14.646c2.269-7.467,4.511-14.947,6.471-22.498
				c0.817-3.149,2.73-5.334,4.993-7.257c2.947-2.505,3.849-5.198,3.403-9.201c-0.468-4.198,0.532-8.571,0.999-12.856
				c0.179-1.643,0.652-3.253,1.068-5.243c1.439-1.195,3.059-2.612,4.754-3.929c2.959-2.299,4.488-5.229,4.511-9.024
				c0.029-5.318,0.078-10.644,0.382-15.951c0.12-2.096,0.799-4.2,1.48-6.214c1.19-3.51,2.104-7.022,1.376-10.75
				c-0.69-3.549,0.023-6.877,1.189-9.93c0.512-0.39,0.746-0.69,1.041-0.775c5.038-1.438,8.774-4.335,11.343-9.03
				c2.543-4.65,5.567-9.037,8.792-14.196c-9.229,0.837-17.016-1.969-24.729-5.171c-1.166-0.484-2.596-0.51-3.896-0.471
				c-5.372,0.161-10.562-1.034-15.832-1.772c-8.21-1.15-15.9-3.078-22.365-8.712c-1.34-1.167-3.661-1.389-5.586-1.649
				c-1.963-0.267-4.018-0.253-5.984,0.004c-4.269,0.557-8.286-0.057-12.216-2.144c-5.699,1.834-11.523,3.001-17.592,2.381
				c-2.415-0.247-4.55,0.537-6.407,2.214c-1.599,1.442-3.378,2.682-5.065,4.001c-7.177-4.938-14.258-9.81-22.598-15.547
				c-4.125-0.728-9.867-1.609-15.542-2.811c-2.046-0.433-4.097-1.38-5.848-2.541c-2.383-1.579-4.765-2.099-7.56-1.671
				c-7.827,1.198-15.579,0.688-23.304-1.062c-5.14-1.163-10.212-2.009-15.688-1.234c-6.05,0.856-12.307,0.416-18.465,0.241
				c-1.709-0.049-3.482-0.979-5.067-1.807c-9.084-4.747-11.038-4.516-18.501,2.482c-1.324,1.241-2.654,2.478-4.113,3.84
				c-0.694-0.425-1.418-0.624-1.727-1.094c-3.012-4.587-7.42-7.109-12.587-8.313c-4.997-1.164-10.04-2.206-15.119-2.897
				c-1.634-0.222-3.562,0.591-5.153,1.354c-12.293,5.891-24.521,11.919-36.821,17.798c-1.275,0.609-2.876,0.64-4.339,0.726
				c-1.988,0.117-3.988,0.029-5.756,0.029c-4.12,2.296-5.966,5.498-5.397,10.012c0.741,5.888-2.183,9.827-6.929,12.744
				c-2.832,1.741-5.681,3.451-8.549,5.191c-2.505-2.355-4.543-5.371-7.36-6.602c-2.698-1.179-6.206-0.504-9.58-0.653
				c-6.106-2.485-2.816-9.2-5.69-13.604c-3.789-0.337-7.549-0.671-11.539,0.737c-3.543,1.25-7.522,1.208-11.252,2.005
				c-4.52,0.966-8.979,2.214-13.321,3.305c-0.745,2.218-1.317,3.919-1.985,5.906c-4.236-0.283-8.184-1.322-12.046-2.789
				c-5.14-1.952-10.315-3.66-15.887-4.053c-1.71-0.12-3.46-1.108-4.993-2.03c-4.687-2.82-9.205-3.694-14.633-1.414
				c-7.562,3.177-15.331,2.571-22.728-1.172c-3.771-1.908-7.717-2.712-11.958-3.111c-4.892-0.46-9.87-1.262-14.282-3.892
				c-4.356-2.596-9.048-3.118-13.955-1.888c-0.969,0.243-1.956,0.575-2.937,0.581c-4.932,0.026-8.955,1.777-12.192,5.61
				c-0.875,1.036-2.547,1.483-3.933,1.98c-1.243,0.445-2.582,0.689-3.899,0.845c-4.716,0.553-7.868,3.115-9.922,7.309
				c-4.21,8.599-12.373,13.178-19.422,19.553c-1.547-1.598-2.842-2.834-4.021-4.172c-3.723-4.222-8.336-7.061-13.512-9.177
				c-2.099-0.858-3.992-2.231-5.946-3.427c-1.273-0.778-2.404-1.834-3.741-2.459c-4.929-2.303-8.61-5.646-9.684-11.212
				c-2.808-1.734-5.487-3.39-8.123-5.019c-0.62,0.136-1.158,0.129-1.56,0.359c-5.595,3.212-10.96,3.291-16.313-0.709
				c-1.857-1.388-4.131-2.041-6.614-1.102c-1.045,0.396-2.468,0.689-3.413,0.295C8.101,70.301,4.566,71.54,1,73
				C1,69.333,1,65.667,1,62z"/>
		</g>
	</g>
</g>
</svg>
