<svg xmlns:svg="http://www.w3.org/2000/svg" xmlns="http://www.w3.org/2000/svg" version="1.1" width="1229.3322" height="540.64752" xml:space="preserve"><style>.s0{fill-rule:evenodd;fill:#b4ff00;}.s1{fill:#3a3a3a;}</style><defs><clipPath><path d="M0 600 1200 600 1200 0 0 0 0 600z"/></clipPath><clipPath><path d="M0 600 1200 600 1200 0 0 0 0 600z"/></clipPath></defs><g transform="matrix(1.25,0,0,-1.25,-135.29812,670.74838)"><g clip-path="url(#clipPath18)"><g transform="translate(759.6592,295.9707)"><path d="M0 0C0.018 0.138 0.036 0.273 0.053 0.413-0.31 0.392-0.673 0.374-1.035 0.351-1.033 0.25-1.032 0.147-1.03 0.049-0.687 0.031-0.344 0.016 0 0m-639.086 178.103c-0.092-0.1-0.182-0.199-0.273-0.298 0.187-0.171 0.373-0.342 0.56-0.513 0.09 0.099 0.181 0.199 0.272 0.297-0.187 0.172-0.372 0.342-0.559 0.514m32.303-60.083c0.237 0.197 0.471 0.396 0.707 0.594-0.177 0.195-0.356 0.389-0.533 0.584-0.191-0.169-0.382-0.336-0.571-0.505 0.132-0.224 0.264-0.449 0.397-0.673m42.361-29.135c0.123 0.245 0.247 0.49 0.369 0.735-1.733 0.945-3.466 1.889-5.199 2.835-0.088-0.159-0.176-0.315-0.266-0.474 1.68-1.065 2.811-3.058 5.096-3.096m-7.065 7.146c1.505-1.033 2.597-1.887 3.786-2.572 1.175-0.676 2.406-1.318 3.692-1.723 1.246-0.39 2.188-1.789 3.876-1.34-2.14 2.437-8.585 5.775-11.354 5.635M-31.385-0.725c0.052-0.291 0.103-0.585 0.156-0.874 6.044 0.218 12.09 0.44 18.858 0.684 1.015 0.082 2.807 0.014 4.479 0.427 1.608 0.393 3.428-1.132 5.327 0.958-3.716 0.049-6.967 0.35-10.165 0.074-5.249-0.454-10.462-1.19-15.755-0.811-0.95 0.068-1.932-0.295-2.9-0.458m-364.628-7.143c-0.007 0.154-0.013 0.309-0.019 0.462-0.649 0.028-1.3 0.113-1.945 0.072-0.795-0.052-1.581-0.291-2.373-0.305-4.69-0.073-9.386 0.244-14.068-0.383-1.339-0.178-2.717-0.05-4.075-0.111-5.582-0.253-11.163-0.516-16.742-0.802-0.752-0.038-1.6-0.054-1.902-0.997 0.21-0.17 0.338-0.358 0.443-0.345 4.113 0.485 8.238-0.324 12.386 0.393 3.362 0.584 6.85 0.431 10.28 0.638 5.74 0.345 11.479 0.712 17.217 1.088 0.271 0.015 0.533 0.19 0.798 0.29m371.244 16.98c0.738-0.355 1.204-0.771 1.676-0.779 3.358-0.058 6.722-0.12 10.076-0.003 2.141 0.075 4.266 0.518 6.405 0.671 1.668 0.118 3.35 0.001 5.024 0.067 2.147 0.08 4.291 0.246 6.439 0.358 0.553 0.029 1.17-0.169 1.654 0.013 2.038 0.776 4.07 0.556 6.161 0.302 1.776-0.214 3.541 0.048 5.02 1.295C3.875 11.622-9.845 9.955-23.61 9.87-23.91 9.868-24.211 9.489-24.769 9.112M-275.95-2.004c-5.176 0.164-9.854 0.741-14.449 0.355-7.575-0.637-15.199-1.193-22.633-3.289 0.442-0.3 0.911-0.49 1.36-0.453 0.786 0.071 1.557 0.395 2.338 0.413 3.041 0.074 6.084 0.085 9.126 0.083 1.113 0 2.231-0.191 3.338-0.124 1.585 0.093 3.157 0.373 4.74 0.526 4.923 0.468 9.85 0.896 14.771 1.394 0.351 0.035 0.66 0.496 1.409 1.095m-296.064 90.978c-4.377 3.767-8.709 6.887-12.941 10.117-4.175 3.186-8.371 6.364-13.026 8.959 1.121-1.985 2.243-3.991 3.869-5.424 3.113-2.746 6.488-5.197 9.801-7.711 2.612-1.982 5.282-3.887 7.943-5.802 1.174-0.843 2.433-1.059 4.354-0.139M-429.459 0.767c0.001-0.219 0.003-0.437 0.006-0.657 0.8-0.153 1.595-0.386 2.4-0.433 0.625-0.035 1.29 0.327 1.893 0.232 3.996-0.634 7.912-0.145 11.895 0.345 4.497 0.554 9.072 0.472 13.612 0.67 0.481 0.022 0.957 0.097 1.435 0.134 3.653 0.258 7.305 0.535 10.961 0.754 1.033 0.063 2.163-0.317 3.097-0.02 2.076 0.659 4.081 0.511 6.162 0.197 1.974-0.299 4.819 0.518 6.249 1.82-1.853 0-3.355 0.075-4.848-0.016-3.896-0.228-7.783-0.615-11.681-0.785-5.756-0.25-11.521-0.313-17.277-0.559-3.915-0.17-7.82-0.549-11.733-0.766-3.424-0.192-6.856-0.271-10.281-0.451-0.637-0.032-1.26-0.304-1.89-0.465m141.391 4.432c9.116 0.553 18.06 0.623 26.813 2.857-0.158 0.211-0.243 0.426-0.333 0.428-14.874 0.421-29.694-0.134-44.41-2.502-0.38-0.06-0.748-0.205-1.115-0.328-0.057-0.019-0.097-0.121-0.124-0.193-0.025-0.071-0.023-0.151-0.057-0.393 1.291-1.21 3.007-0.995 4.435-0.613 3.086 0.825 6.195 0.662 9.307 0.735 1.827 0.045 3.656 0.009 5.484 0.009m-348.307 147.035c1.151-3.373 13.151-16.085 18.389-19.666 2.472-0.409 4.812-1.247 6.338-3.125 1.54-1.896 3.356-3.352 5.243-4.816 3.351-2.596 6.634-5.28 9.943-7.929 1.372-1.096 2.725-2.215 4.114-3.288 1.833-1.42 3.675-2.833 5.558-4.186 0.432-0.31 1.046-0.367 1.577-0.539 0.096 0.178 0.192 0.357 0.288 0.536-1.088 0.891-2.168 1.789-3.262 2.671-3.606 2.904-7.257 5.755-10.815 8.716-4.552 3.786-8.978 7.721-13.555 11.475-3.962 3.248-8.086 6.297-12.083 9.501-3.81 3.054-7.496 6.248-10.647 10.009-0.213 0.256-0.604 0.364-1.088 0.641M-290.602-7.354c-0.023 0.163-0.044 0.328-0.067 0.491-2.423 0.156-4.845 0.313-7.268 0.46-0.15 0.009-0.304-0.098-0.462-0.121-1.252-0.197-2.501-0.454-3.763-0.564-4.996-0.433-9.997 0.282-15.032-0.366-3.765-0.484-7.66 0.046-11.497 0.112-0.475 0.009-0.954-0.046-1.428-0.099-1.735-0.204-3.467-0.455-5.207-0.62-4.673-0.444-9.344 0.355-14.07-0.338-3.746-0.548-7.656 0.026-11.492 0.091-0.476 0.008-0.956-0.037-1.429-0.089-1.817-0.205-3.629-0.448-5.446-0.629-3.879-0.387-7.816 0.668-11.668-0.452-0.15-0.044-0.32-0.016-0.479-0.02-4.552-0.107-9.104-0.204-13.656-0.327-0.473-0.013-0.938-0.198-1.413-0.239-1.662-0.154-3.326-0.281-4.99-0.407-0.79-0.057-1.581-0.085-2.373-0.135-1.665-0.102-3.33-0.214-4.996-0.314-0.868-0.051-1.736-0.083-2.603-0.129-1.903-0.105-3.805-0.22-5.71-0.325-0.783-0.042-1.574-0.015-2.352-0.106-1.101-0.125-2.19-0.446-3.29-0.477-3.037-0.082-6.075-0.069-9.112-0.071-8.093-0.007-16.183 0.007-24.275-0.014-1.114-0.002-2.238-0.111-3.34-0.282-0.381-0.061-0.709-0.459-1.105-0.734 0.789-1.28 1.924-0.998 2.896-0.984 8.084 0.119 16.172 0.155 24.25 0.469 5.489 0.214 11.004 0.096 16.465 0.907 0.542 0.08 1.116-0.094 1.671-0.07 1.338 0.056 2.676 0.133 4.01 0.256 0.713 0.066 1.421 0.371 2.123 0.347 2.538-0.093 5.067-0.432 7.567 0.456 0.623 0.222 1.424-0.102 2.14-0.082 1.096 0.031 2.193 0.118 3.284 0.233 0.712 0.075 1.411 0.332 2.119 0.355 6.241 0.187 12.482 0.353 18.724 0.5 1.356 0.031 2.717-0.099 4.07-0.035 2.315 0.109 4.627 0.302 6.939 0.476 4.288 0.322 8.619-0.63 12.884 0.43 0.15 0.037 0.319 0.017 0.478 0.015 3.838-0.064 7.677-0.133 11.515-0.192 0.398-0.005 0.796 0.043 1.192 0.082 2.141 0.207 4.28 0.434 6.423 0.624 4.125 0.363 8.3-0.657 12.401 0.426 0.077 0.022 0.161 0.01 0.241 0.01 2.963 0.032 5.928 0.096 8.891 0.077 1.114-0.008 2.286-0.49 3.329-0.271 4.581 0.963 9.224 0.774 13.842 1.034 0.368 0.02 0.713 0.419 1.069 0.641m-346.946 239.647c3.272-1.665 4.6-4.465 6.697-6.385 1.042 0.396 0.852 1.22 0.837 1.881-0.061 3.12-0.202 6.239-0.274 9.36-0.022 0.985 0.084 1.976 0.157 3.479 2.236-1.56 3.727-3.05 4.956-4.814 0.96-1.376 1.821-2.825 2.855-4.143 0.54-0.687 1.355-1.156 2.258-1.9 0.489 1.328 0.827 2.249 1.29 3.503 1.216-1.035 2.334-1.797 3.212-2.776 1.598-1.782 3.053-3.691 4.568-5.547 4.286-5.249 9.373-9.653 14.778-13.673 8.671-6.448 17.578-12.585 26.132-19.183 5.521-4.259 11.698-7.21 17.847-10.275 7.524-3.754 15.158-7.288 22.637-11.126 4.588-2.355 9.508-3.777 14.246-5.7 2.439-0.99 4.884-2.007 7.209-3.233 5.978-3.151 12.252-5.485 18.725-7.392 4.136-1.22 8.171-2.78 12.255-4.181 0.604-0.207 1.22-0.383 1.838-0.55 2.464-0.666 4.923-1.347 7.397-1.974 2.01-0.511 4.018-1.067 6.061-1.402 6.004-0.986 12.012-1.976 18.044-2.764 5.222-0.681 10.416-1.873 15.7-1.748 6.065 0.143 12.127 0.491 18.019 2.285 3.21 0.977 6.525 1.608 9.804 2.342 0.595 0.134 1.246 0.019 1.964 0.019 1.159-2.589 0.383-5.557 1.477-8.083 3.485-0.554 6.379 1.607 9.704 1.363 1.078-4.083-0.643-8.073 0.161-12.096 2.407-0.844 4.628 1.357 7.21 0.353 0-0.814 0.104-1.67-0.016-2.495-0.772-5.311-1.605-10.614-2.381-15.926-0.11-0.751-0.015-1.532-0.015-2.468l2.651 0c1.516-0.774 1.416-1.793 1.184-2.863-0.407-1.873-0.802-3.75-1.221-5.711 0.724-0.784 1.417-1.537 2.348-2.546 2.597 0.511 5.305 1.043 8.172 1.606 0.149-0.926 0.268-1.666 0.428-2.666 2.694 0.08 5.295-1.013 8.018-0.084 0.736 0.251 1.579 0.272 2.372 0.261 3.838-0.057 7.677-0.163 11.515-0.243 0.398-0.008 0.814-0.026 1.193 0.072 4.735 1.216 9.531 0.734 14.316 0.535 0.556-0.023 1.138-0.138 1.664-0.017 4.907 1.126 9.855 0.751 14.802 0.478 0.477-0.028 1.018-0.182 1.422-0.013 2.079 0.862 4.264 0.741 6.405 0.652 4.195-0.174 8.271 0.615 12.376 1.23 4.663 0.698 9.274 1.848 14.035 1.729 4.72-0.12 9.44-0.408 14.158-0.385 6.322 0.029 12.643 0.44 18.963 0.415 12.655-0.052 25.32-0.704 37.961-0.363 28.047 0.756 56.091 0.158 84.137 0.302 27.974 0.144 55.951 0.019 83.927 0.049 3.829 0.004 7.664 0.16 11.489 0.365 5.266 0.283 10.524 0.671 15.783 1.032 4.534 0.311 9.058 0.781 13.594 0.953 29.397 1.12 58.806 0.282 88.207 0.435 1.579 0.009 3.157-0.354 4.738-0.528 0.474-0.051 0.954-0.051 1.43-0.059 7.926-0.127 15.86-0.07 23.772-0.477 2.707-0.14 5.41-0.241 8.115-0.243 57.152-0.026 114.305-0.036 171.459-0.056 1.26-0.001 2.517-0.091 3.961-0.144 0.313-2.145 0.599-4.086 0.904-6.162 3.375-1.079 6.806 0.021 10.074-0.737 1.151-3.713-0.837-7.426 0.426-11.268l6.897 0c0-1.136 0.097-1.986-0.017-2.805-0.717-5.16-1.483-10.311-2.221-15.467-0.091-0.623-0.1-1.257-0.173-2.208 1.278-0.556 2.546-1.109 4.132-1.799-0.473-2.519-0.954-5.053-1.457-7.722 3.624-1.515 7.243-0.147 10.917-1.072-1.331-4.168-3.558-7.805-5.024-11.894 0.914-0.485 1.722-0.917 2.771-1.476-1.608-4.48-4.655-8.165-6.658-12.849 2.521-0.145 4.68-0.268 6.655-0.381 0.744-1.14 0.226-1.777-0.335-2.373-1.972-2.097-3.962-4.179-6.059-6.387-1.718-0.113-3.535-0.231-5.256-0.344-0.332-0.37-0.624-0.572-0.744-0.848-0.873-2.018-2.577-2.457-4.537-2.458-4.327 0-8.657 0.002-12.985-0.017-1.258-0.006-2.559 0.158-3.825-0.659 0.967-1.778 2.511-2.21 4.237-2.232 2.724-0.032 5.451-0.014 8.175-0.014 6.092-0.002 12.185 0.004 18.275-0.007 0.838-0.002 1.677-0.089 2.811-0.153-1.854-1.601-5.619-3.058-7.701-3.084-2.324-0.029-4.648-0.01-6.974-0.011-1.597-0.001-3.155 0.032-4.649-0.851-0.683-0.4-1.706-0.269-2.576-0.297-2.694-0.088-5.385 0.26-8.026-0.869-1.176-0.503-2.681-0.308-4.037-0.308-44.969-0.015-89.936-0.015-134.904-0.011-2.713 0-5.4 0.182-8.115 0.503-3.064 0.362-6.225-0.178-9.346-0.202C134.626 4.245 127.418 4.181 120.213 4.284 114.13 4.371 108.05 4.663 101.969 4.912 100.138 4.99 98.313 5.232 96.485 5.399 96.166 5.43 95.851 5.494 95.531 5.494 70.533 5.477 45.534 5.378 20.535 5.47 9.468 5.509-1.565 5-12.602 4.347-22.433 3.765-32.266 3.228-42.1 2.729c-1.833-0.092-3.68 0.142-5.518 0.142-35.511 0.01-71.021-0.014-106.531 0.03-5.761 0.006-11.559 0.767-17.27 0.305-5.769-0.464-11.511-0.421-17.261-0.423-25.398-0.012-50.795 0.153-76.192 0.098-6.154-0.014-12.306-0.623-18.461-0.942-3.915-0.202-7.796-0.592-11.677-1.209-2.819-0.447-5.736-0.272-8.609-0.374-0.399-0.014-0.842 0.091-1.189-0.048-2.628-1.051-5.379-0.652-8.085-0.733-7.046-0.204-14.093-0.355-21.139-0.546-5.205-0.142-10.408-0.315-15.612-0.469-10.808-0.324-21.617-0.611-32.422-0.976-7.604-0.255-15.208-0.538-22.804-0.945-7.119-0.382-14.225-0.971-21.341-1.415-5.753-0.362-11.51-0.676-17.269-0.939-5.033-0.229-10.071-0.357-15.45-0.541-0.106-0.492-0.253-1.185-0.417-1.953 2.01-0.863 3.873-0.653 5.657-0.564 4.55 0.228 9.089 0.65 13.636 0.96 3.259 0.223 6.523 0.381 9.783 0.591 1.035 0.066 2.062 0.271 3.097 0.308 3.902 0.143 7.807 0.188 11.707 0.376 2.384 0.115 4.766 0.667 7.136 0.592 5.275-0.165 10.5 0.757 15.767 0.542 1.437-0.06 2.872-0.157 4.309-0.229 0.477-0.024 0.976-0.113 1.431-0.014 4.99 1.072 10.016 0.817 15.049 0.476 0.397-0.026 0.814-0.085 1.192 0.002 4.905 1.111 9.85 0.806 14.8 0.464 0.395-0.027 0.809-0.047 1.191 0.038 4.906 1.088 9.857 0.741 14.804 0.496 0.478-0.024 0.982-0.141 1.43-0.032 4.82 1.16 9.706 0.571 14.571 0.635 2.296 0.031 4.592 0.438 6.88 0.745 3.174 0.427 6.331 0.996 9.512 1.358 2.906 0.329 5.849 0.331 8.747 0.704 10.369 1.335 20.781 0.5 31.171 0.664 10.338 0.166 20.68 0.034 31.021 0.026 10.421-0.008 20.841-0.031 31.262-0.034 48.656-0.025 97.312-0.043 145.968-0.072 3.042-0.002 6.086-0.129 9.126-0.094 1.02 0.012 2.029 0.457 3.053 0.517 6.374 0.38 12.755 0.692 19.131 1.054 5.184 0.293 10.364 0.707 15.551 0.914 23.772 0.956 47.554 0.331 71.332 0.483 4.488 0.03 8.978 0.045 13.467-0.03 1.582-0.026 3.157-0.351 4.736-0.534 0.476-0.054 0.954-0.136 1.428-0.126 3.198 0.057 6.396 0.166 9.594 0.186 0.864 0.004 1.731-0.244 2.595-0.371 0.547-0.081 1.096-0.229 1.643-0.225 3.52 0.02 7.091 0.462 10.549 0.024 4.243-0.535 8.444-0.134 12.659-0.262 4.245-0.13 8.497-0.069 12.744-0.069 52.022-0.01 104.046-0.013 156.068-0.022 2.152 0 4.291 0.148 6.306-1.033 0.747-0.44 1.871-0.314 2.823-0.316 6.814-0.024 13.627-0.006 20.442-0.025 1.167-0.002 2.41 0.171 3.648-0.954-0.557-0.328-0.948-0.711-1.39-0.784-0.782-0.128-1.596-0.084-2.397-0.084-9.22-0.003-18.437-0.002-27.655-0.002-16.262 0-32.526 0.022-48.789-0.012-5.198-0.01-10.395-0.202-15.593-0.227-2.64-0.014-5.282 0.219-7.922 0.227-10.091 0.028-20.183-0.03-30.274 0.034-3.917 0.024-7.85 0.616-11.746 0.39-11.763-0.682-23.525-0.286-35.289-0.26-1.337 0.002-2.676 0.336-4.014 0.504-0.472 0.057-0.949 0.123-1.421 0.117-3.2-0.036-6.432-0.4-9.594-0.072-6.618 0.684-13.242 0.093-19.853 0.431-3.914 0.202-7.822 0.579-11.737 0.686C85.271 0.014 80.471 0.439 75.832-0.203 71.578-0.792 67.38-0.731 63.155-0.767 51.454-0.861 39.752-0.792 28.049-0.877 23.487-0.909 18.923-1.101 14.368-1.359 10.621-1.57 6.891-2.036 3.147-2.292c-1.672-0.112-3.361 0.04-5.042 0.021-0.863-0.009-1.726-0.108-2.585-0.203-0.873-0.098-1.736-0.314-2.606-0.351-4.702-0.202-9.405-0.386-14.108-0.532-2-0.063-4.004-0.014-6.006-0.014-30.059-0.002-60.118-0.022-90.177 0.021-4.479 0.005-8.956 0.421-13.434 0.421-4.557 0.002-9.115-0.343-13.674-0.411-5.043-0.074-10.089-0.005-15.132-0.003-29.98 0.001-59.958-0.002-89.937 0.018-2.39 0.002-4.783 0.172-7.175 0.262-0.159 0.008-0.321 0.052-0.478 0.038-4.125-0.456-8.251-0.911-12.373-1.391-0.259-0.029-0.49-0.297-1.094-0.678 0.789-0.191 1.195-0.368 1.605-0.378 5.198-0.114 10.397-0.214 15.595-0.294 2.404-0.039 4.809-0.037 7.214-0.037 6.892-0.004 13.788-0.093 20.68 0.012 63.234 0.972 126.471 0.053 189.703 0.429 6.559 0.038 13.112 0.635 19.665 1.01 4.472 0.257 8.938 0.643 13.411 0.855 3.172 0.15 6.339 0.191 9.518 0.444 5.79 0.464 11.624 0.427 17.44 0.498 5.852 0.075 11.704 0.029 17.555 0.033 5.851 0.001 11.704-0.002 17.556-0.004 5.851-0.004 11.702-0.005 17.554-0.013 5.851-0.01 11.702-0.004 17.554-0.06 1.103-0.009 2.201-0.294 3.302-0.448 0.471-0.065 0.944-0.183 1.416-0.178 3.279 0.039 6.6 0.46 9.828 0.078 4.473-0.533 8.929-0.085 13.381-0.39 0.08-0.006 0.163 0.01 0.238-0.012 4.105-1.034 8.271-0.332 12.398-0.338 56.032-0.068 112.062-0.063 168.093-0.076l3.549 0c0.459-0.799 0.809-1.406 1.27-2.208 0.842-0.067 1.779-0.2 2.719-0.206 3.847-0.026 7.695-0.043 11.541 0.002 1.494 0.02 2.819-0.318 4.096-1.113 1.221-0.759 2.563-1.322 3.827-2.016 0.526-0.287 0.989-0.684 1.836-1.28-4.266-2.144-8.665-0.089-12.694-1.505 0.495-1.642 1.922-1.091 3.253-1.78 2.315-2.179 4.959-4.692 7.458-7.981-1.606-0.349-2.77-0.599-4.258-0.922 1.727-3.786 4.635-6.53 6.416-10.067-2.39-1.331-5.023 0.104-7.354-1.355 0.281-0.804 0.486-1.555 0.799-2.262 1.337-2.999 2.729-5.976 4.051-8.984 0.369-0.836 0.567-1.745 0.964-2.993-2.359-0.208-4.357-0.384-6.553-0.575 0.155-4.224 2.56-7.646 2.786-11.73-0.606-0.33-1.272-0.696-2.086-1.142 0.485-2.504 0.96-4.969 1.439-7.44-2.8-1.419-5.725 0.162-8.414-1.341 0.297-2.898 0.599-5.813 0.93-9.022-1.733-0.182-3.273-0.345-4.955-0.521-1.458-2.923 0.717-6.058-0.543-9.016-0.817-0.206-1.649-0.417-2.736-0.69-0.106-2.457-0.213-4.898-0.33-7.58-0.984-0.109-1.825-0.252-2.669-0.287-30.435-1.251-60.884-0.41-91.326-0.549-30.46-0.142-60.92-0.01-91.382 0.063-5.363 0.012-10.726 0.319-16.09 0.496-4.397 0.145-8.795 0.25-13.187 0.469-1.982 0.1-3.951 0.444-5.928 0.654-0.634 0.068-1.276 0.109-1.912 0.081-2.557-0.107-5.111-0.353-7.668-0.355-22.045-0.028-44.087-0.022-66.13 0-1.355 0.002-2.71 0.205-4.065 0.282-0.633 0.033-1.278 0.045-1.906-0.032-1.656-0.199-3.3-0.57-4.96-0.661-3.739-0.203-7.487-0.218-11.227-0.421-5.49-0.297-10.975-0.721-16.463-1.031-3.025-0.173-6.126 0.147-9.066-0.413-4.317-0.819-8.619-0.585-12.923-0.585-64.368-0.005-128.734 0.035-193.102 0.064-1.278 0.002-2.556 0-4.122 0-0.43-0.545-0.92-1.166-1.468-1.863-2.414-0.095-4.86-0.192-7.452-0.294-0.45-3.346 0.846-6.292 0.515-9.578-1.561-0.155-3.104-0.311-4.732-0.475-1.488-2.813 0.621-5.772-0.56-8.659-0.765-0.307-1.637-0.658-2.752-1.109-0.106-2.404-0.212-4.847-0.328-7.505-0.819-0.118-1.498-0.267-2.183-0.31-15.843-1.008-31.706-0.447-47.559-0.595-1.274-0.011-2.55 0.195-3.826 0.273-0.635 0.038-1.341 0.198-1.899-0.008-2.256-0.836-4.587-0.612-6.9-0.654-3.045-0.055-6.091-0.092-9.138-0.082-1.195 0.004-2.389 0.167-3.587 0.244-0.634 0.036-1.34 0.232-1.899 0.03-2.652-0.947-5.392-0.675-8.098-0.669-3.999 0.01-7.997 0.178-11.996 0.271-0.398 0.007-0.835 0.051-1.19-0.088-2.24-0.878-4.58-0.645-6.893-0.667-6.012-0.055-12.024-0.084-18.035-0.095-1.037-0.001-2.084 0.266-3.109 0.181-2.05-0.166-4.095-0.45-6.131-0.753-11.968-1.787-23.89-3.847-35.616-6.843-5.805-1.484-11.523-3.349-17.2-5.274-8.798-2.985-17.439-6.464-26.317-9.178-6.057-1.85-11.949-3.995-17.856-6.253-6.17-2.361-12.084-5.108-17.813-8.317-4.955-2.775-9.906-5.562-14.754-8.516-4.712-2.869-9.28-5.974-13.934-8.939-2.159-1.377-4.298-2.815-6.584-3.946-1.626-0.803-3.454-1.324-5.25-1.613-0.972-0.158-2.064 0.435-3.067 0.991-2.213-0.585-4.425-1.171-6.353-1.682-1.471 0.941-1.678 2.084-1.638 3.196 0.126 3.417-0.608 6.882 0.602 10.252 0.22 0.613 0.032 1.375 0.032 2.311-2.796-0.599-5.322-1.14-7.772-1.665-1.031 1.296-1.148 2.561-0.997 3.848 0.334 2.864 0.671 5.73 1.126 8.578 0.171 1.077 0.675 2.101 1.019 3.153 0.77 2.349 1.272 4.731 0.964 7.637-3.377-1.48-6.407-3.194-9.848-2.952-1.091 0.727-1.051 1.661-0.771 2.636 0.885 3.082 1.76 6.166 2.694 9.231 0.181 0.59 0.652 1.085 0.922 1.656 0.351 0.741 0.633 1.516 1.105 2.66-3.434-0.846-6.182-2.275-9.009-2.735-1.026 1.047-0.626 1.869-0.253 2.674 0.504 1.093 1.055 2.161 1.558 3.252 0.234 0.508 0.552 1.037 0.579 1.569 0.194 4.049 2.527 7.112 4.639 10.285 0.442 0.662 0.853 1.346 1.294 2.009 1.539 2.323 3.086 4.641 4.631 6.958 0.088 0.134 0.235 0.242 0.281 0.385 0.779 2.408 2.503 4.005 5.046 5.325-2.213 1.095-4.112 0.539-5.926 0.547-1.97 0.006-3.944 0.457-5.93-0.276-1.776-0.656-3.664-1.005-5.786-1.562-0.373 0.272-1.002 0.737-1.717 1.262-2.408 0-4.892 0.134-7.358-0.029-4.086-0.27-8.165-0.515-12.216 0.231-1.466 0.271-2.88 0.821-4.086 1.176-1.095 2.135-1.028 4.067-1.03 5.984-0.002 1.826-0.001 3.655-0.001 5.54-0.862 0.337-1.43 0.588-2.017 0.781-1.138 0.378-2.325 0.635-3.422 1.103-2.096 0.895-2.965 2.862-2.577 5.124 0.362 2.1 0.542 4.233 0.836 6.346 0.186 1.334 0.436 2.66 0.731 4.434 0.162 0.338 0.527 1.099 1.054 2.201-0.987 0.204-1.719 0.346-2.446 0.513-1.865 0.429-3.764 0.758-5.576 1.351-0.918 0.302-1.674 1.096-2.701 1.803 0.932 3.485 1.81 6.771 2.755 10.303-1.04 0.355-1.838 0.609-2.627 0.893-1.122 0.401-2.307 0.697-3.336 1.268-1.165 0.65-1.404 1.62-0.917 2.891 0.342 0.895 0.847 1.728 1.207 2.618 0.503 1.245 1.256 2.429 0.941 3.897-0.074 0.348 0.112 0.796 0.282 1.145 1.095 2.23 2.103 4.514 3.366 6.647 1.007 1.701 2.301 3.235 3.529 4.795 1.478 1.875 2.019 4.361 4.002 5.925 0.469 0.372 0.552 1.232 0.959 2.224-1.257 0.138-2.162 0.274-3.072 0.328-2.874 0.175-5.75 0.3-8.623 0.481-1.028 0.064-1.895 0.413-1.957 1.84 0.954 1.715 2.638 2.771 4.365 3.773 0.551 0.32 1.254 0.472 1.676 0.909 1.606 1.654 3.561 1.748 5.575 1.27 1.817-0.429 3.023 0.057 4.078 1.623 0.734 1.09 1.882 1.901 2.977 2.966 2.521-0.151 5.032-0.302 7.568-0.457 0.374 1.099 0.675 1.985 1.081 3.176 1.479 0.018 2.971 0.07 4.461 0.042 5.925-0.109 11.851-0.244 17.777-0.368 1.761-0.039 3.523-0.077 5.284-0.118 1.139-0.027 1.139-0.031 2.532 1.157-0.391 1.024-1.254 1.359-2.244 1.387-1.442 0.04-2.884 0.004-4.325-0.026-4.239-0.092-8.477-0.246-12.716-0.262-1.181-0.006-2.396 0.264-3.543 0.592-3.182 0.915-6.345 1.606-9.637 0.531-0.514-0.168-1.114-0.104-1.673-0.106-5.53-0.006-11.062 0-16.593-0.01-1.376-0.002-2.707 0.106-4.1 1.274 1.988 0.274 3.722 0.703 5.46 0.723 9.057 0.104 18.118 0.258 27.17 0.071 3.847-0.077 7.616 0.935 11.434 0.498 2.902-0.334 5.704 0.539 8.574 0.482 0.486-0.011 0.978 0.302 1.638 0.52-0.867 1.357-2.022 1.604-3.221 1.612-2.003 0.018-4.007-0.101-6.01-0.081-1.83 0.016-3.66 0.143-5.491 0.215-0.476 0.019-0.964 0.073-1.428-0.002-6.696-1.072-13.441-0.36-20.16-0.522-0.844-0.019-1.751 0.276-2.528 0.641-0.463 0.216-0.731 0.85-1.386 1.674 1.211 0.135 1.89 0.245 2.572 0.277 3.916 0.185 7.834 0.383 11.752 0.497 1.341 0.04 2.689-0.151 4.034-0.24 0.08-0.006 0.164-0.054 0.236-0.038 3.146 0.719 6.479 0.757 9.464 2.43-0.42 1.119-1.234 1.064-2.025 1.036-7.042-0.252-14.083-0.494-21.122-0.764-1.44-0.055-2.873-0.26-4.312-0.305-2.939-0.093-4.889 1.499-6.413 3.612 0.236 1.547 1.142 1.879 2.277 1.966 1.676 0.133 3.352 0.292 5.024 0.477 0.514 0.057 1.015 0.232 1.657 0.387-1.445 1.119-2.711 2.097-3.975 3.078 0.066 0.177 0.134 0.355 0.199 0.532-1.154 0.146-2.322 0.47-3.461 0.392-1.76-0.121-3.022 0.54-4.288 1.687-1.77 1.605-3.54 3.178-4.817 5.227-0.501 0.804-1.042 1.584-1.625 2.464 1.74 2.547 4.796 1.723 6.912 2.97 0.308 1.226-0.35 2.012-0.99 2.851-0.757 0.998-1.598 1.995-2.073 3.13-1.682 4.013-3.827 7.713-6.49 11.17-1.499 1.949-2.57 4.229-3.809 6.376-0.718 1.246-1.294 2.585-2.1 3.769-1.347 1.98-2.97 3.766-3.627 6.172-0.175 0.642-0.819 1.163-1.271 1.719-1.437 1.766-2.223 3.745-1.664 6.024 0.611 2.492-0.044 4.514-1.772 6.369-2.617 2.807-4.111 6.296-5.442 9.818-0.49 1.297-0.464 2.785-0.383 4.263-1.336 2.548-2.629 5.121-4.02 7.639-1.273 2.303-1.278 4.463-0.04 6.844 0.869 1.67 1.211 3.611 1.811 5.423 0.324 0.982 0.62 1.983 1.057 2.915 1.016 2.172 2.11 4.306 3.268 6.645-0.609 0.948-1.242 1.848-1.787 2.799-1.55 2.703-3.117 5.398-4.564 8.154-0.631 1.2-0.634 2.539 0.475 3.548 2.118 1.925 4.203 3.94 7.419 4.449 2.643-3.059 3.658-7.629 8.216-9.467 0.199 0.686 0.423 1.461 0.683 2.354-5.632 5.559-11.36 10.944-14.243 18.267 0.467 1.446 1.379 1.854 2.494 1.902 2.459 0.107 4.574-0.615 6.04-2.711 1.053-1.506 2.028-3.068 3.093-4.565 0.503-0.706 1.135-1.321 1.724-1.993 0.736 0.212 1.333 0.383 2.14 0.615 0.609-0.64 1.326-1.266 1.89-2.009 1.789-2.364 3.519-4.773 5.277-7.16 1.168-1.586 2.481-3.015 4.236-4.254 0.627 1.898-1.278 3.209-0.471 4.943 2.209-0.173 2.105-2.729 3.665-3.513 0.623-0.088 1.246-0.176 1.856-0.263 0.202-0.174 0.415-0.305 0.559-0.49 2.103-2.726 4.21-5.45 6.293-8.193 2.203-2.896 4.741-5.415 7.864-7.331 1.242-0.761 2.392-1.673 3.584-2.518 0.134 0.128 0.268 0.254 0.401 0.381-0.717 0.998-1.389 2.032-2.161 2.987-3.172 3.925-6.383 7.819-9.558 11.744-0.637 0.786-1.623 1.493-0.734 2.879-0.712-0.033-1.162-0.055-1.966-0.093-1.742 1.996-3.625 4.157-5.512 6.317-0.632 0.724-1.218 1.498-1.914 2.154-5.838 5.518-11.002 11.65-16.195 17.751-1.603 1.886-2.964 3.982-4.368 6.027-0.32 0.466-0.359 1.125-0.59 1.907l2.488 0c-0.553 0.761-1.007 1.388-1.461 2.015-2.726 3.758-5.457 7.512-8.168 11.281-0.324 0.45-0.659 0.953-0.77 1.475-0.072 0.355 0.242 0.791 0.53 1.6 0.711-0.754 1.222-1.205 1.627-1.738 2.374-3.123 4.608-6.362 7.12-9.371 1.892-2.266 4.115-4.258 6.225-6.338 0.305-0.301 0.799-0.411 1.279-0.645 0.593 1.09 0.005 1.705-0.639 2.128-1.516 0.995-2.198 2.477-2.737 4.107-0.554 1.673-1.219 3.309-1.782 4.979-0.525 1.555-1.287 2.882-2.647 3.905-0.669 0.501-1.206 1.307-1.553 2.085-2.052 4.612-4.035 9.255-6.026 13.893-0.151 0.35-0.182 0.751-0.286 1.203 1.534 0.845 2.063-0.358 2.72-1.163 0.641-0.786 1.221-1.624 2.05-2.739 0.615 1.452 0.082 2.392-0.207 3.291-1.406 4.345-2.879 8.671-4.296 13.013-0.283 0.871-0.427 1.786-0.641 2.71 1.451 0.524 2.136-0.335 2.695-0.997 1.392-1.649 2.62-3.435 3.948-5.138 0.82-1.052 1.704-2.055 2.603-3.132 1.09 0.804 0.706 1.609 0.567 2.346-1.086 5.746-2.201 11.484-3.266 17.235-0.194 1.052-0.202 2.139-0.322 3.509 1.312-0.289 2.201-0.486 3.326-0.734 0.718 2.996-0.838 5.772-0.349 8.764 0.428 0.468 0.956 1.045 1.57 1.716-0.194 2.547-0.392 5.139-0.629 8.262" class="s0"/></g></g><g clip-path="url(#clipPath30)"><g transform="translate(471.3057,296.6641)"><path d="m0 0c-6.359 0-11.635-2.182-15.826-6.545-4.192-4.361-6.285-10.064-6.285-17.105 0-7.192 2.093-13.004 6.285-17.442 4.191-4.437 9.467-6.656 15.826-6.656 6.162 0 11.352 2.256 15.566 6.768 4.215 4.511 6.323 10.263 6.323 17.255 0 6.942-2.073 12.633-6.213 17.069C11.535-2.219 6.309 0 0 0m-21.236 47.625 0-39.99c3.656 3.621 7.609 6.338 11.859 8.149 4.25 1.81 8.795 2.716 13.639 2.716 10.525 0 19.468-3.976 26.832-11.928 7.363-7.951 11.045-18.148 11.045-30.593 0-12.002-3.807-22.042-11.416-30.116-7.61-8.074-16.629-12.111-27.055-12.111-4.645 0-8.969 0.824-12.971 2.471-4.004 1.646-7.98 4.338-11.933 8.076l0-8.547-20.25 0 0 111.873 20.25 0z" fill="#3a3a3a"/></g><g transform="translate(562.1631,296.6641)"><path d="m0 0c-6.262 0-11.463-2.219-15.604-6.656-4.14-4.436-6.21-10.127-6.21-17.069 0-6.992 2.107-12.744 6.322-17.255 4.215-4.512 9.402-6.768 15.566-6.768 6.36 0 11.633 2.219 15.824 6.656 4.192 4.438 6.288 10.25 6.288 17.442 0 7.041-2.096 12.744-6.288 17.105C11.707-2.182 6.408 0 0 0m21.311 16.5 20.25 0 0-80.748-20.25 0 0 8.547c-3.959-3.738-7.93-6.43-11.913-8.076-3.982-1.647-8.298-2.471-12.947-2.471-10.439 0-19.469 4.037-27.088 12.111-7.619 8.074-11.427 18.114-11.427 30.116 0 12.445 3.685 22.642 11.056 30.593 7.371 7.952 16.326 11.928 26.865 11.928 4.848 0 9.399-0.904 13.653-2.71 4.254-1.807 8.187-4.516 11.801-8.13l0 8.84z" fill="#3a3a3a"/></g><g transform="translate(616.2891,313.1646)"><path d="m0 0 17.5 0 0-10.227c1.871 4 4.361 7.039 7.467 9.114C28.072 0.961 31.473 2 35.168 2c2.613 0 5.348-0.693 8.207-2.08l-6.279-17.45c-2.366 1.186-4.311 1.78-5.836 1.78-3.106 0-5.729-1.928-7.871-5.782-2.143-3.853-3.213-11.412-3.213-22.677l0.074-3.928 0-32.612-20.25 0L0 0z" fill="#3a3a3a"/></g><g transform="translate(739.3086,296.4102)"><path d="m0 0-8.238-5.121c-7.133 9.416-16.864 14.125-29.194 14.125-9.855 0-18.039-3.156-24.55-9.467-6.512-6.31-9.768-13.975-9.768-22.996 0-5.867 1.498-11.391 4.494-16.566 2.996-5.178 7.106-9.196 12.33-12.055 5.225-2.859 11.08-4.289 17.569-4.289 11.884 0 21.591 4.707 29.119 14.125L0-47.662c-3.863-5.813-9.053-10.322-15.566-13.526-6.514-3.203-13.932-4.806-22.252-4.806-12.782 0-23.381 4.049-31.801 12.148-8.422 8.1-12.631 17.953-12.631 29.561 0 7.803 1.969 15.051 5.906 21.74 3.938 6.691 9.35 11.915 16.235 15.669 6.884 3.753 14.588 5.63 23.107 5.63 5.35 0 10.514-0.812 15.492-2.437 4.977-1.625 9.199-3.74 12.668-6.35C-5.375 7.357-2.428 4.035 0 0" fill="#3a3a3a"/></g><g transform="translate(787.9492,305.1646)"><path d="m0 0c-5.773 0-11.104-1.418-15.988-4.252-4.885-2.834-8.77-6.813-11.657-11.938-2.886-5.123-4.33-10.545-4.33-16.26 0-5.668 1.455-11.09 4.368-16.263 2.91-5.176 6.82-9.204 11.73-12.086 4.91-2.883 10.178-4.325 15.803-4.325 5.674 0 11.053 1.428 16.135 4.288 5.082 2.857 8.994 6.726 11.732 11.605 2.738 4.879 4.107 10.373 4.107 16.484 0 9.315-3.072 17.1-9.214 23.358C16.541-3.131 8.98 0 0 0m41.65 8 0-80.749-10.375 0 0 13.879c-4.349-5.295-9.23-9.265-14.64-11.91-5.41-2.644-11.328-3.969-17.75-3.969-11.414 0-21.162 4.135-29.24 12.409-8.081 8.273-12.12 18.336-12.12 30.189 0 11.606 4.077 21.529 12.229 29.777C-22.094 5.875-12.283 10-0.818 10 5.803 10 11.793 8.602 17.154 5.809 22.516 3.014 27.223-1.204 31.275-6.844L31.275 8 41.65 8z" fill="#3a3a3a"/></g><g transform="translate(846.3242,313.1646)"><path d="m0 0 10.375 0 0-13.954c3.619 5.145 7.338 8.907 11.158 11.282C26.789 0.441 32.318 2 38.121 2c3.916 0 7.635-0.768 11.156-2.301 3.522-1.535 6.399-3.576 8.629-6.123 2.231-2.549 4.166-6.198 5.803-10.948 3.459 6.332 7.783 11.145 12.975 14.436C81.873 0.354 87.459 2 93.441 2c5.586 0 10.516-1.41 14.791-4.227 4.276-2.818 7.452-6.748 9.528-11.791 2.076-5.043 3.115-12.604 3.115-22.686l0-44.045-10.625 0 0 44.02c0 8.645-0.619 14.584-1.854 17.82-1.234 3.237-3.345 5.842-6.333 7.819-2.989 1.976-6.557 2.965-10.706 2.965-5.039 0-9.644-1.483-13.818-4.448-4.174-2.965-7.225-6.916-9.15-11.857C66.463-29.37 65.5-37.62 65.5-49.178l0-31.571-10.375 0 0 41.278c0 9.732-0.607 16.338-1.822 19.822-1.215 3.482-3.332 6.274-6.356 8.373-3.023 2.1-6.615 3.151-10.777 3.151-4.809 0-9.305-1.446-13.492-4.336-4.188-2.891-7.285-6.782-9.293-11.672-2.008-4.889-3.01-12.373-3.01-22.451l0-34.165L0-80.749 0 0z" fill="#3a3a3a"/></g><g transform="translate(1024.8906,305.1646)"><path d="m0 0c-8.963 0-16.51-3.131-22.641-9.389-6.132-6.258-9.197-14.043-9.197-23.358 0-6.111 1.365-11.605 4.1-16.484 2.732-4.879 6.646-8.748 11.744-11.605 5.098-2.86 10.478-4.288 16.142-4.288 5.565 0 10.797 1.442 15.698 4.325 4.898 2.882 8.8 6.91 11.707 12.086 2.906 5.173 4.359 10.595 4.359 16.263 0 5.715-1.441 11.137-4.322 16.26-2.881 5.125-6.76 9.104-11.635 11.938C11.08-1.418 5.762 0 0 0m-41.588 8 10.375 0 0-14.844c4.098 5.64 8.815 9.858 14.147 12.653C-11.734 8.602-5.783 10 0.785 10 12.24 10 22.041 5.875 30.189-2.374c8.149-8.248 12.223-18.171 12.223-29.777 0-11.853-4.037-21.916-12.111-30.189-8.074-8.274-17.813-12.409-29.219-12.409-6.42 0-12.32 1.336-17.703 4.008-5.383 2.672-10.248 6.655-14.592 11.949l0-43.457-10.375 0 0 110.249z" fill="#3a3a3a"/></g><g transform="translate(844.123,339.0972)"><path d="m0 0 0-8.603 2.779 0c1.641 0 2.844 0.16 3.608 0.48 0.763 0.321 1.377 0.821 1.842 1.503 0.462 0.681 0.693 1.418 0.693 2.212 0 0.996-0.324 1.866-0.977 2.608C7.293-1.058 6.398-0.549 5.258-0.274 4.494-0.092 3.164 0 1.268 0L0 0zm0 9.442 0-7.185 1.283 0c1.559 0 2.705 0.145 3.44 0.435 0.734 0.29 1.314 0.748 1.742 1.373 0.428 0.625 0.642 1.32 0.642 2.082 0 1.027-0.359 1.833-1.078 2.418C5.311 9.15 4.168 9.442 2.598 9.442L0 9.442zm-2.197 2.197 4.424 0c1.779 0 3.146-0.211 4.103-0.633C7.285 10.583 8.041 9.935 8.596 9.061 9.148 8.186 9.426 7.215 9.426 6.147 9.426 5.15 9.184 4.243 8.697 3.424 8.211 2.606 7.498 1.942 6.557 1.434 7.723 1.037 8.621 0.572 9.25 0.038c0.627-0.534 1.117-1.18 1.467-1.937 0.349-0.758 0.525-1.579 0.525-2.464 0-1.8-0.66-3.323-1.976-4.568C7.949-10.177 6.182-10.8 3.965-10.8l-6.162 0 0 22.439z" fill="#3a3a3a"/></g><g transform="translate(875.7539,345.9687)"><path d="m0 0-3.846-8.123 7.672 0L0 0zm0.283 4.767 10.465-22.438-2.422 0-3.529 7.382-9.668 0-3.494-7.382-2.502 0 10.601 22.438 0.549 0z" fill="#3a3a3a"/></g><g transform="translate(897.5859,328.2974)"><path d="m0 0 0 22.438 0.488 0 14.934-17.2 0 17.2 2.211 0L17.633 0 17.131 0 2.318 16.991 2.318 0 0 0z" fill="#3a3a3a"/></g><g transform="translate(950.0293,346.9683)"><path d="m0 0-1.74-1.647c-1.25 1.23-2.621 2.163-4.112 2.798-1.488 0.636-2.941 0.954-4.353 0.954-1.76 0-3.436-0.433-5.027-1.297-1.592-0.864-2.825-2.036-3.7-3.516-0.873-1.479-1.31-3.043-1.31-4.69 0-1.688 0.451-3.293 1.357-4.813 0.905-1.52 2.156-2.715 3.752-3.584 1.596-0.87 3.346-1.305 5.248-1.305 2.309 0 4.26 0.651 5.858 1.953 1.595 1.301 2.541 2.989 2.836 5.064l-7.153 0 0 2.166 9.67 0c-0.019-3.468-1.051-6.221-3.088-8.26-2.039-2.039-4.767-3.058-8.183-3.058-4.151 0-7.436 1.413-9.856 4.24-1.861 2.176-2.791 4.693-2.791 7.551 0 2.125 0.533 4.103 1.602 5.934 1.068 1.83 2.533 3.261 4.392 4.294 1.862 1.032 3.967 1.548 6.317 1.548 1.9 0 3.691-0.343 5.369-1.03C-3.234 2.616-1.598 1.515 0 0" fill="#3a3a3a"/></g><g transform="translate(963.3125,350.7358)"><path d="m0 0 2.287 0 0-8.42 8.969 8.42 3.014 0-10.778-10.067 11.617-12.371-2.988 0-9.834 10.451 0-10.451-2.287 0L0 0z" fill="#3a3a3a"/></g><g transform="translate(989.4238,350.7358)"><path d="m0 0 2.242 0 0-9.412 11.424 0 0 9.412 2.242 0 0-22.438-2.242 0 0 10.83-11.424 0 0-10.83-2.242 0L0 0z" fill="#3a3a3a"/></g><g transform="translate(1018.7344,350.7358)"><path d="m0 0 12.859 0 0-2.197-10.617 0 0-7.032 10.526 0 0-2.196-10.526 0 0-8.817 10.526 0 0-2.196L0-22.438 0 0z" fill="#3a3a3a"/></g><g transform="translate(1043.5195,328.2974)"><path d="m0 0 0 22.438 0.486 0 14.934-17.2 0 17.2 2.213 0L17.633 0 17.129 0 2.318 16.991 2.318 0 0 0z" fill="#3a3a3a"/></g><g transform="translate(269.0518,303.6543)"><path d="M0 0C13.164 5.49 13.688 26.417 7.842 37.332 0 51.97-19.794 49.539-33.161 45.717-29.459 56.361-22.658 70.899-10.384 73 1.805 75.086 13.735 67.519 24.335 62.614c9.461-4.378 26.101-9.88 32.936 2.076 2.076 5.046-4.089 9.204-9.493 12.637-5.397 3.427-11.136 6.708-17.136 8.955 129.83 27.54 133.409-244.862-4.037-206.036-9.921 2.797-19.47 6.83-28.653 11.486 12.835-1.066 26.657 0.293 36.929 8.62 8.796 7.128 13.441 22-1.054 25.455-13.025 3.103-27.208-4.828-40.057-5.92-16.175-1.371-29.973-1.778-39.171 10.976 7.123 0.889 12.631 2.785 15.429 4.809 4.837 3.496 9.528 8.396 9.955 14.637 0.82 11.943-8.356 23.13-18.631 28.218-4.752 2.348-10.44 3.186-15.577 1.672-6.609-1.949-8.517-7.656-13.15-12.043-4.533-4.293-8.765-7.435-15.015-8.683-7.285-1.287-14.326 2.213-19.935 6.56-3.071 2.385-5.678 5.272-8.42 8.014 11.71-1.674 27.324-4.693 34.189 8.447 5.516 10.57-1.031 22.589 4.803 33.282 7.491 13.733 26.508 2.974 35.851-2.42C-25.191 7.167-14.52-6.047 0 0" fill="#3a3a3a"/></g><g transform="translate(367.0283,286.7666)"><path d="m0 0c-0.199 2.475-0.325 4.867-0.604 7.242-0.22 1.876-1.002 2.17-2.567 1.095-4.838-3.325-9.67-6.66-14.504-9.99-4.045-2.786-8.102-5.556-12.119-8.38-0.461-0.324-1.025-0.998-0.966-1.431 0.064-0.468 0.734-1.004 1.26-1.23 2.197-0.946 4.446-1.772 6.665-2.67 1.465-0.594 1.83-0.472 2.758 0.852 0.961 1.372 1.904 2.771 2.994 4.038 4.119 4.79 9.473 7.452 15.559 8.757C-0.464-1.49-0.025-0.921 0 0m-42.015 30.815c-1.098 0.006-1.579-0.683-1.335-1.83 0.334-1.559 0.67-3.118 1.045-4.668 1.492-6.156 3.009-12.307 4.498-18.465 0.824-3.408 1.568-6.834 2.432-10.231 0.482-1.897 1.171-2.1 2.804-0.978 6.316 4.341 12.628 8.692 18.939 13.042 2.561 1.765 5.128 3.524 7.671 5.316 1.106 0.779 1.079 1.489-0.016 2.234-0.263 0.179-0.533 0.362-0.824 0.486-2.752 1.167-5.522 2.291-8.262 3.484-8.635 3.761-17.26 7.548-25.893 11.316-0.36 0.157-0.765 0.215-1.059 0.294m-39.574-51.326c8.794 0.314 15.362 4.06 19.346 11.974 0.781 1.551 0.523 2.121-1.084 2.728-5.53 2.089-11.063 4.171-16.597 6.248-1.838 0.69-1.872 0.793-0.393 2.164 1.257 1.166 2.543 2.301 3.815 3.451 2.964 2.679 5.945 5.341 8.884 8.049 1.197 1.101 1.187 1.766-0.056 2.728-6.671 5.158-13.938 6.58-21.876 3.302-3.11-1.284-5.813-3.19-7.92-5.847-5.315-6.704-6.588-14.224-3.252-22.007 3.521-8.213 10.145-12.468 19.133-12.79M3.605-50.175c10.971-0.367 21.291 8.228 21.378 20.98C25.073-16.093 14.235-8.096 4.156-7.922-8.04-7.711-17.122-18.038-17.256-29.094-17.408-41.61-6.26-50.729 3.605-50.175M1.76 19.899c2.037 0 4.074-0.029 6.11 0.015 0.843 0.018 1.142-0.297 1.11-1.122C8.939 17.714 8.962 16.633 8.997 15.554 9.02 14.842 8.722 14.541 8.013 14.526 7.295 14.511 6.58 14.399 5.862 14.361 4.877 14.31 4.372 13.792 4.43 12.826 4.605 9.96 4.81 7.096 5.02 4.232 5.119 2.879 5.251 1.528 5.379 0.178 5.474-0.83 5.788-1.385 7.043-1.508c3.335-0.328 6.512-1.158 9.52-2.863 1.868-1.058 3.809-1.948 5.456-3.358 3.905-3.342 6.808-7.32 8.404-12.29 1.993-6.206 1.915-12.344-0.108-18.476-0.928-2.812-2.318-5.426-4.233-7.705-5.096-6.065-11.385-9.893-19.458-10.563-3.153-0.26-6.263-0.135-9.278 0.624-9.687 2.442-16.527 8.272-19.994 17.715-1.873 5.098-2.057 10.392-0.76 15.685 0.305 1.245-0.105 1.874-1.218 2.306-4.167 1.622-8.313 3.3-12.491 4.896-0.933 0.356-1.387 0.895-1.603 1.858-1.066 4.746-2.171 9.485-3.298 14.216-0.767 3.222-1.609 6.424-2.388 9.642-1.285 5.308-2.545 10.623-3.817 15.935-0.056 0.233-0.121 0.464-0.188 0.695-0.402 1.376-1.212 1.629-2.262 0.677-1.836-1.665-3.657-3.347-5.482-5.025-0.852-0.783-1.678-1.598-2.555-2.351-0.925-0.794-0.896-1.58-0.184-2.495 2.653-3.407 4.374-7.258 5.091-11.5 0.894-5.288 0.706-10.564-1.368-15.562-1.011-2.436-2.444-4.733-3.947-6.911-0.913-1.324-2.323-2.303-3.512-3.434-0.833-0.792-1.592-1.687-2.517-2.351-3.956-2.836-8.405-4.317-13.241-4.836-3.149-0.339-6.257-0.174-9.281 0.567-9.852 2.414-16.792 8.302-20.229 17.912-2.303 6.441-2.08 13.011 0.482 19.341 2.899 7.161 7.768 12.578 15.074 15.519 6.575 2.647 13.273 2.86 20.015 0.71 1.264-0.403 2.422-1.149 3.621-1.751 1.416-0.712 2.781-1.552 4.257-2.097 0.496-0.183 1.398 0.209 1.882 0.615 1.525 1.282 2.937 2.698 4.399 4.057 3.072 2.854 6.15 5.704 9.222 8.559 0.615 0.571 1.239 1.137 1.818 1.744 1.02 1.071 0.828 1.844-0.576 2.261-1.566 0.466-3.144 0.896-4.726 1.303-0.753 0.194-1.085 0.499-0.793 1.34 0.378 1.088 0.659 2.213 0.945 3.332 0.143 0.561 0.363 0.836 1.002 0.65 2.835-0.825 5.66-1.692 8.524-2.4 1.449-0.358 2.019-1.598 2.979-2.446 0.538-0.474 0.961-1.082 1.511-1.539 0.783-0.652 0.622-1.161-0.077-1.722-0.436-0.35-0.841-0.742-1.232-1.142-1.085-1.113-1.005-1.677 0.399-2.298 3.249-1.438 6.514-2.84 9.775-4.252 7.403-3.208 14.809-6.413 22.212-9.621 0.62-0.268 1.257-0.512 1.842-0.844 2.232-1.265 4.648-1.312 7.103-0.92" class="s0"/></g></g></g></svg>

