<?xml version="1.0" encoding="utf-8"?>
<!-- Generator: Adobe Illustrator 18.0.0, SVG Export Plug-In . SVG Version: 6.00 Build 0)  -->
<!DOCTYPE svg PUBLIC "-//W3C//DTD SVG 1.1 Basic//EN" "http://www.w3.org/Graphics/SVG/1.1/DTD/svg11-basic.dtd">
<svg version="1.1" baseProfile="basic" id="Layer_1"
	 xmlns="http://www.w3.org/2000/svg" xmlns:xlink="http://www.w3.org/1999/xlink" x="0px" y="0px" viewBox="633.6 755.1 612.6 42.5"
	 xml:space="preserve">
<g>
	<path fill="none" d="M652.4,796.9c1.2,0,2.3,0,3.6-0.1c5.4-0.5,10.7-1.5,16.1-1.4c18.3,0.3,36.5,1.3,54.7,1.5
		c23.3,0.2,46.7,0.1,70.1,0l0,0c2.7-0.9,5.5-1.2,8.2-1.7c1.6-0.4,3.3-0.8,5-1.2c0.1,0.1,0.2,0.2,0.2,0.3c3.3-1,6.5-2,9.9-2.9
		c1.3,2,2.3,3.7,3.3,5.1c1.6,0,3,0,4.5,0c0.5-0.2,0.9-0.3,1.4-0.5c3.1-1.3,6.3-2.3,9.5-3.7c2.6-1.2,5.5-2.1,8.1-3.4
		c1.4-0.7,3.1-1,4.8-0.7c2.1,0.5,4.2,0.9,6.3,1.3c2.3,0.5,4.6,1.2,6.9,1.1c0.3,0,0.7-0.1,0.9,0c1.1,0.9,2.5,0.8,3.7,1.1
		c1.3,0.4,2.6,0.5,3.9,0.8c1.1,0.2,2.1,0.4,3,0.6c1.7-0.1,3.3-0.1,4.9-0.2c3.1-2.1,6.1-4.2,9.3-6.5c3.1,0.1,6.6,1,10.3,0.7
		c0.2,0,0.5,0.1,0.8,0.2c3.5,1.2,7,2.2,10.4,3.3c3.6-0.8,7.1-1.9,10.6-3.5c0.9-0.4,1.9-0.8,2.8-1.1c1.1-2.5,2.2-5.1,3.4-7.6
		c2.3,1.5,4.6,2.9,6.8,4.2c2.3,1.4,4.8,2.4,6.9,4.1c1.6,1.3,3.4,1.6,5.2,2c1.6,0.4,3.1,0.7,4.7,1.1c1.6,0.4,3.3,0.3,4.7,0.9
		c1.2,0.5,2.2,0.5,3.3,0.5c2.6-3,5.2-6.1,7.7-9c2,0.2,3.6-0.1,5.4,0.6c1.3,0.4,2.7,0,4.1,0.1c1,0.1,1.9,0.3,2.8,0.4
		c0.5-0.4,1-0.9,1.5-1.4c2.3,1.1,4.6,1.5,6.9,1.3c0.5-0.1,1-0.2,1.5-0.2c1.1-0.2,2.1-0.5,3.1-1c4.1-1.6,8.4-2.7,12.5-4.1
		c1.3,1.1,2.5,2.1,3.8,3.3c0.3,0,0.5-0.1,0.8-0.1c1.6-2.5,2.9-4.9,4.3-7.2c0-0.1,0-0.3,0-0.4c0.1,0,0.1,0,0.2,0.1
		c0.1-0.2,0.2-0.4,0.4-0.6c1.6,0.5,3.1,1.1,4.6,1.3c3.3,0.5,6.6,1.2,10,1.9c0.7,0.1,1.5,0.4,2.1,0.6c0.7,0.2,1.5,0.2,2.2,0.4
		c2.8,0.6,5.6,1.8,8.6,1.4c2.7-3,5.5-6.1,8-8.9c3.7,0,7.3-0.2,10.9,0.1c3.6,0.2,7.1-1.1,10.3-0.7c8.8-5.1,17.8-8.8,26.1-13.7
		c0.7,0.9,1.2,1.8,2,2.5c2.1,2.2,4.3,4.4,6.5,6.5c0.7,0.7,1.5,1.3,2.2,1.7c7.5,3.7,14.9,7.5,22.5,11.2c3,1.5,6.1,3.1,9.3,4.2
		c2.2,0.8,4.5,1.8,6.5,2.3c3.9-1,7.6-2,11.2-2.8c0.5,0.5,0.9,1,1.5,1.5c2.5,1.9,5,3.9,7.3,6.2c1.3,1.3,2.6,2.6,4.2,3.5
		c0.2,0.1,0.3,0.2,0.5,0.3c0.3-0.8,0.6-1.6,1-2.4c2.1,1.8,4.2,3.4,6.2,5c1.6-1.7,2.9-3.5,4.4-5.4c1.2-1.5,2.1-3.4,4.1-4.3
		c2.2-1,4.3-2.1,6.4-3.1c0.9-0.4,1.8-0.5,2.3-0.8c3.7,3.2,7.2,6.2,10.9,9.4c1.1-1.4,2.1-2.6,3-3.8c0.2-0.7,0.5-1.4,0.7-2.1
		c0.2,0.1,0.5,0.2,0.7,0.3c0.2-0.2,0.4-0.5,0.6-0.7c0.6,0.1,1.3,0.1,2,0.2c3.5,1.1,7,2.2,10.5,3.3c1.6,0.5,3.3,0.7,4.8,1.3
		c1.5,0.6,2.8,1.7,4.3,2.5c2.5,1.5,4.9,3,7.3,4.5c1.4,0.4,2.7,0.6,4.1,0.6c0.2,0,0.5,0,0.7,0v-41.6H633.9v41.8
		C640.1,796.9,646.3,796.9,652.4,796.9z"/>
	<path fill="#777777" d="M912.5,790.4c-3.5-1.1-7-2.2-10.4-3.3c-0.2-0.1-0.5-0.2-0.8-0.2c-3.6,0.4-7.1-0.6-10.3-0.7
		c-3.2,2.3-6.2,4.4-9.3,6.5c6.2-0.2,12.2-0.5,18.4-0.8C904.2,791.7,908.4,791.3,912.5,790.4z"/>
	<path fill="#777777" d="M989.2,783.1c0.5,0,1-0.1,1.5-0.2C990,782.9,989.6,783,989.2,783.1z"/>
	<path fill="#777777" d="M1184.8,789.8c5.6,0,11,0,16.5,0c1.7,2.2,3.4,4.6,5.4,7.2c1.3-3.6,2.4-6.8,3.6-10.3c-1,1.3-2,2.5-3,3.8
		c-3.6-3.1-7.1-6.2-10.9-9.4c-0.6,0.2-1.6,0.4-2.3,0.8c-2.1,1-4.2,2.2-6.4,3.1c-2,0.9-2.8,2.8-4.1,4.3c-1.5,1.9-2.8,3.7-4.4,5.4
		c1,0.8,2,1.6,2.9,2.3C1183,794.6,1183.9,792.3,1184.8,789.8z"/>
	<path fill="#777777" d="M1015,773.9c-1.4,2.3-2.7,4.7-4.3,7.2c-0.2,0-0.5,0.1-0.8,0.1c1.7,1.4,3.3,2.7,5.1,4.2
		C1015,781.2,1015,777.6,1015,773.9z"/>
	<path fill="#777777" d="M1032.9,780.1c5.6,0.2,10.7,0.5,15.7-2.6c3.3-2.1,6.9-3.4,10.4-5.2c0.7-0.3,1.4-0.5,2.3-0.8
		c-0.5,1.8-0.9,3.1-1.5,5.5c4-1,7.6-1.2,10.6-2.7c8.9-4.6,17.5-9.7,26.4-14.6c9.1,7.6,18,15,26.8,22.5c1.5,1.3,3.3,2.2,5.1,3
		c8.9,3.4,18,6.4,26.7,10.1c4.8,2,9.7,1.8,14.6,1.6c0.6-1.5,1.2-2.9,1.8-4.5c-0.2-0.1-0.3-0.2-0.5-0.3c-1.6-0.9-2.9-2.2-4.2-3.5
		c-2.3-2.2-4.8-4.3-7.3-6.2c-0.5-0.4-1-1-1.5-1.5c-3.7,1-7.4,1.9-11.2,2.8c-2.1-0.7-4.2-1.6-6.5-2.3c-3.1-1.2-6.2-2.7-9.3-4.2
		c-7.5-3.7-14.9-7.4-22.5-11.2c-0.9-0.4-1.6-1-2.2-1.7c-2.2-2.1-4.4-4.4-6.5-6.5c-0.7-0.7-1.3-1.7-2-2.5c-8.3,5-17.4,8.7-26.1,13.7
		c-3.1-0.4-6.6,0.9-10.3,0.7c-3.6-0.2-7.1-0.1-10.9-0.1c-2.6,2.8-5.3,5.9-8,8.9c-3,0.4-5.8-0.8-8.6-1.4c-0.7-0.2-1.5-0.2-2.2-0.4
		c-0.7-0.2-1.5-0.5-2.1-0.6c-3.3-0.7-6.6-1.4-10-1.9c-1.5-0.2-3-0.9-4.6-1.3c-0.1,0.2-0.2,0.4-0.4,0.6c0.5,0.2,0.9,0.3,1.2,0.5
		C1021.1,778.2,1026.6,779.8,1032.9,780.1z"/>
	<path fill="#777777" d="M942.3,795.3c9.4-1.8,18.5-3.7,27.5-5.2c3.1-0.5,5.6-1.7,7.7-3.9c1-1.1,2.1-2.1,3.2-3
		c-1-0.1-1.9-0.3-2.8-0.4c-1.4-0.1-2.8,0.3-4.1-0.1c-1.8-0.7-3.4-0.4-5.4-0.6c-2.5,2.9-5.1,5.9-7.7,9c-1.1,0.1-2.1,0-3.3-0.5
		c-1.5-0.6-3.1-0.5-4.7-0.9c-1.6-0.4-3.1-0.7-4.7-1.1c-1.8-0.4-3.5-0.7-5.2-2c-2.1-1.7-4.6-2.7-6.9-4.1c-2.2-1.3-4.4-2.7-6.8-4.2
		c-1.2,2.6-2.2,5.1-3.4,7.6c0.9-0.3,1.9-0.6,2.7-0.9C933.3,788.5,937.9,792,942.3,795.3z"/>
	<path fill="#777777" d="M804.8,796c1.9-0.5,3.7-1,5.6-1.6c-0.1-0.1-0.2-0.2-0.2-0.3c-1.7,0.4-3.3,0.8-5,1.2
		c-2.7,0.5-5.5,0.9-8.2,1.7l0,0c0.5,0,1,0,1.5,0C800.5,796.9,802.8,796.5,804.8,796z"/>
	<path fill="#777777" d="M859.4,793.4c1.3,0,2.3,0.1,3.4,0c4.7-0.2,9.3-0.4,14-0.5c-1-0.2-2.1-0.4-3-0.6c-1.3-0.2-2.6-0.4-3.9-0.8
		c-1.2-0.3-2.6-0.2-3.7-1.1c-0.2-0.1-0.6,0-0.9,0c-2.3,0.1-4.7-0.6-6.9-1.1c-2.1-0.4-4.2-0.8-6.3-1.3c-1.6-0.4-3.4-0.1-4.8,0.7
		c-2.6,1.5-5.5,2.2-8.1,3.4c-3.1,1.4-6.3,2.3-9.5,3.7c-0.5,0.2-0.9,0.4-1.4,0.5c10.3,0,20.5,0,30.7,0
		C859,795.6,859.1,794.6,859.4,793.4z"/>
	<path fill="#777777" d="M1241,796.3c-2.4-1.5-4.8-3-7.3-4.5c-1.5-0.9-2.8-1.9-4.3-2.5c-1.5-0.7-3.2-0.9-4.8-1.3
		c-3.5-1.1-7-2.2-10.5-3.3c-0.7-0.2-1.3-0.2-2-0.2c-0.2,0.2-0.4,0.5-0.6,0.7c9.4,3.6,18.5,7.2,27.5,10.5
		C1239.7,795.9,1240.4,796.1,1241,796.3z"/>
	<path fill="#AEE7E3" d="M1241,796.3c-0.7-0.2-1.3-0.4-1.9-0.6c-9.1-3.4-18.2-6.9-27.5-10.5c-0.2-0.1-0.5-0.2-0.7-0.3
		c-0.2,0.7-0.5,1.4-0.7,2.1c-1.2,3.3-2.3,6.6-3.6,10.3c-2-2.6-3.7-5-5.4-7.2c-5.5,0-10.9,0-16.5,0c-0.9,2.4-1.8,4.8-2.8,7.4
		c-1-0.8-2-1.6-2.9-2.3c-2-1.6-4-3.2-6.2-5c-0.3,0.9-0.7,1.7-1,2.4c-0.6,1.6-1.2,2.9-1.8,4.5c-5,0.2-9.8,0.4-14.6-1.6
		c-8.8-3.6-17.9-6.6-26.7-10.1c-1.8-0.7-3.6-1.8-5.1-3c-9-7.4-17.9-14.9-26.8-22.5c-8.8,5-17.5,10.1-26.4,14.6
		c-3,1.6-6.6,1.8-10.6,2.7c0.7-2.3,1-3.7,1.5-5.5c-1,0.3-1.7,0.5-2.3,0.8c-3.5,1.7-7.1,3.1-10.4,5.2c-5,3.1-10.2,2.8-15.7,2.6
		c-6.3-0.2-11.8-1.9-16.6-6.1c-0.3-0.2-0.6-0.3-1.2-0.5c-0.1,0-0.1,0-0.2-0.1c0,0.1,0,0.3,0,0.4c0,3.8,0,7.4,0,11.5
		c-1.8-1.5-3.4-2.8-5.1-4.2c-1.3-1.1-2.5-2.1-3.8-3.3c-4.1,1.3-8.3,2.4-12.5,4.1c-1.1,0.4-2.1,0.7-3.1,1c-0.5,0.1-1,0.2-1.5,0.2
		c-2.3,0.2-4.6-0.1-6.9-1.3c-0.5,0.5-1,0.9-1.5,1.4c-1.2,1-2.2,2-3.2,3c-2.1,2.2-4.6,3.4-7.7,3.9c-9.1,1.5-18.2,3.4-27.5,5.2
		c-4.4-3.3-9-6.8-13.7-10.3c-0.9,0.3-1.9,0.6-2.7,0.9c-1,0.3-2,0.7-2.8,1.1c-3.4,1.7-7,2.7-10.6,3.5c-4.1,0.9-8.3,1.3-12.5,1.5
		c-6.2,0.3-12.2,0.6-18.4,0.8c-1.7,0.1-3.3,0.1-4.9,0.2c-4.7,0.2-9.3,0.3-14,0.5c-1.1,0.1-2.1,0-3.4,0c-0.2,1.2-0.4,2.2-0.5,3.1
		c-10.2,0-20.3,0-30.7,0c-1.5,0-3,0-4.5,0c-1-1.4-2.1-3.1-3.3-5.1c-3.3,1-6.6,2.1-9.9,2.9c-1.9,0.6-3.7,1.1-5.6,1.6
		c-2.1,0.5-4.3,1-6.4,1c-0.5,0-1,0-1.5,0c-23.3,0.1-46.7,0.2-70.1,0c-18.3-0.2-36.5-1.2-54.7-1.5c-5.4-0.1-10.7,0.9-16.1,1.4
		c-1.2,0.1-2.3,0.1-3.6,0.1c-6.2,0-12.4,0-18.6,0v0.4h612V797c-0.2,0-0.5,0-0.7,0C1243.8,796.7,1242.4,796.6,1241,796.3z"/>
</g>
</svg>
