<?xml version="1.0" encoding="utf-8"?>
<!-- Generator: Adobe Illustrator 18.0.0, SVG Export Plug-In . SVG Version: 6.00 Build 0)  -->
<!DOCTYPE svg PUBLIC "-//W3C//DTD SVG 1.1//EN" "http://www.w3.org/Graphics/SVG/1.1/DTD/svg11.dtd">
<svg version="1.1" id="Layer_1" xmlns="http://www.w3.org/2000/svg" xmlns:xlink="http://www.w3.org/1999/xlink" x="0px" y="0px"
	 viewBox="633.9 380.2 626.9 43.1" enable-background="new 633.9 380.2 626.9 43.1" xml:space="preserve">
<g>
	<path fill="none" d="M652.9,423c1.2,0,2.4,0,3.7-0.1c5.5-0.5,11-1.5,16.5-1.4c18.7,0.3,37.4,1.3,56,1.5c23.9,0.2,47.8,0.1,71.8,0
		c0,0,0,0,0,0c2.8-0.9,5.6-1.2,8.4-1.7c1.6-0.4,3.4-0.8,5.1-1.2c0.1,0.1,0.2,0.2,0.2,0.3c3.4-1,6.7-2,10.1-3c1.3,2,2.4,3.8,3.4,5.2
		c1.6,0,3.1,0,4.6,0c0.5-0.2,0.9-0.3,1.4-0.5c3.2-1.3,6.5-2.4,9.7-3.8c2.7-1.2,5.6-2.1,8.3-3.5c1.4-0.7,3.2-1,4.9-0.7
		c2.1,0.5,4.3,0.9,6.5,1.3c2.4,0.5,4.7,1.2,7.1,1.1c0.3,0,0.7-0.1,0.9,0c1.1,0.9,2.6,0.8,3.8,1.1c1.3,0.4,2.7,0.5,4,0.8
		c1.1,0.2,2.1,0.4,3.1,0.6c1.7-0.1,3.4-0.1,5-0.2c3.2-2.2,6.2-4.3,9.5-6.7c3.2,0.1,6.8,1,10.6,0.7c0.2,0,0.5,0.1,0.8,0.2
		c3.6,1.2,7.2,2.3,10.7,3.4c3.7-0.8,7.3-1.9,10.9-3.6c0.9-0.4,1.9-0.8,2.9-1.1c1.1-2.6,2.3-5.2,3.5-7.8c2.4,1.5,4.7,3,7,4.3
		c2.4,1.4,4.9,2.5,7.1,4.2c1.6,1.3,3.5,1.6,5.3,2c1.6,0.4,3.2,0.7,4.8,1.1c1.6,0.4,3.4,0.3,4.8,0.9c1.2,0.5,2.3,0.5,3.4,0.5
		c2.7-3.1,5.3-6.2,7.9-9.2c2,0.2,3.7-0.1,5.5,0.6c1.3,0.4,2.8,0,4.2,0.1c1,0.1,1.9,0.3,2.9,0.4c0.5-0.4,1-0.9,1.5-1.4
		c2.4,1.1,4.7,1.5,7.1,1.3c0.5-0.1,1-0.2,1.5-0.2c1.1-0.2,2.1-0.5,3.2-1c4.2-1.6,8.6-2.8,12.8-4.2c1.3,1.1,2.6,2.2,3.9,3.4
		c0.3,0,0.5-0.1,0.8-0.1c1.6-2.6,3-5,4.4-7.4c0-0.1,0-0.3,0-0.4c0.1,0,0.1,0,0.2,0.1c0.1-0.2,0.2-0.4,0.4-0.6
		c1.6,0.5,3.2,1.1,4.7,1.3c3.4,0.5,6.8,1.2,10.2,1.9c0.7,0.1,1.5,0.4,2.2,0.6c0.7,0.2,1.5,0.2,2.3,0.4c2.9,0.6,5.7,1.8,8.8,1.4
		c2.8-3.1,5.6-6.2,8.2-9.1c3.8,0,7.5-0.2,11.2,0.1c3.7,0.2,7.3-1.1,10.5-0.7c9-5.2,18.2-9,26.7-14c0.7,0.9,1.2,1.8,2,2.6
		c2.2,2.3,4.4,4.5,6.7,6.7c0.7,0.7,1.5,1.3,2.3,1.7c7.7,3.8,15.3,7.7,23,11.5c3.1,1.5,6.2,3.2,9.5,4.3c2.3,0.8,4.6,1.8,6.7,2.4
		c4-1,7.8-2,11.5-2.9c0.5,0.5,0.9,1,1.5,1.5c2.6,1.9,5.1,4,7.5,6.3c1.3,1.3,2.7,2.7,4.3,3.6c0.2,0.1,0.3,0.2,0.5,0.3
		c0.3-0.8,0.6-1.6,1-2.5c2.2,1.8,4.3,3.5,6.3,5.1c1.6-1.7,3-3.6,4.5-5.5c1.2-1.5,2.1-3.5,4.2-4.4c2.3-1,4.4-2.2,6.6-3.2
		c0.9-0.4,1.8-0.5,2.4-0.8c3.8,3.3,7.4,6.4,11.2,9.6c1.1-1.4,2.1-2.7,3.1-3.9c0.2-0.7,0.5-1.4,0.7-2.1c0.2,0.1,0.5,0.2,0.7,0.3
		c0.2-0.2,0.4-0.5,0.6-0.7c0.6,0.1,1.3,0.1,2,0.2c3.6,1.1,7.2,2.3,10.8,3.4c1.6,0.5,3.4,0.7,4.9,1.3s2.9,1.7,4.4,2.6
		c2.6,1.5,5,3.1,7.5,4.6c1.4,0.4,2.8,0.6,4.2,0.6c0.2,0,0.5,0,0.7,0v-42.6H633.9V423C640.2,423,646.6,423,652.9,423z"/>
	<path fill="#777777" d="M919.3,416.3c-3.6-1.1-7.2-2.3-10.7-3.4c-0.2-0.1-0.5-0.2-0.8-0.2c-3.7,0.4-7.3-0.6-10.6-0.7
		c-3.3,2.4-6.3,4.5-9.5,6.7c6.3-0.2,12.5-0.5,18.8-0.8C910.8,417.6,915.1,417.2,919.3,416.3z"/>
	<path fill="#777777" d="M997.8,408.8c0.5,0,1-0.1,1.5-0.2C998.7,408.6,998.3,408.7,997.8,408.8z"/>
	<path fill="#777777" d="M1198.2,415.7c5.7,0,11.3,0,16.9,0c1.7,2.3,3.5,4.7,5.5,7.4c1.3-3.7,2.5-7,3.7-10.5c-1,1.3-2,2.6-3.1,3.9
		c-3.7-3.2-7.3-6.3-11.2-9.6c-0.6,0.2-1.6,0.4-2.4,0.8c-2.2,1-4.3,2.3-6.6,3.2c-2,0.9-2.9,2.9-4.2,4.4c-1.5,1.9-2.9,3.8-4.5,5.5
		c1,0.8,2,1.6,3,2.4C1196.4,420.6,1197.3,418.2,1198.2,415.7z"/>
	<path fill="#777777" d="M1024.3,399.4c-1.4,2.4-2.8,4.8-4.4,7.4c-0.2,0-0.5,0.1-0.8,0.1c1.7,1.4,3.4,2.8,5.2,4.3
		C1024.3,406.9,1024.3,403.2,1024.3,399.4z"/>
	<path fill="#777777" d="M1042.6,405.7c5.7,0.2,11,0.5,16.1-2.7c3.4-2.1,7.1-3.5,10.7-5.3c0.7-0.3,1.4-0.5,2.4-0.8
		c-0.5,1.8-0.9,3.2-1.5,5.6c4.1-1,7.8-1.2,10.9-2.8c9.1-4.7,17.9-9.9,27-15c9.3,7.8,18.4,15.4,27.5,23c1.5,1.3,3.4,2.3,5.2,3.1
		c9.1,3.5,18.4,6.6,27.4,10.3c4.9,2,9.9,1.8,15,1.6c0.6-1.5,1.2-3,1.8-4.6c-0.2-0.1-0.3-0.2-0.5-0.3c-1.6-0.9-3-2.3-4.3-3.6
		c-2.4-2.3-4.9-4.4-7.5-6.3c-0.5-0.4-1-1-1.5-1.5c-3.8,1-7.6,1.9-11.5,2.9c-2.1-0.7-4.3-1.6-6.7-2.4c-3.2-1.2-6.3-2.8-9.5-4.3
		c-7.7-3.8-15.3-7.6-23-11.5c-0.9-0.4-1.6-1-2.3-1.7c-2.3-2.2-4.5-4.5-6.7-6.7c-0.7-0.7-1.3-1.7-2-2.6c-8.5,5.1-17.8,8.9-26.7,14
		c-3.2-0.4-6.8,0.9-10.5,0.7c-3.7-0.2-7.3-0.1-11.2-0.1c-2.7,2.9-5.4,6-8.2,9.1c-3.1,0.4-5.9-0.8-8.8-1.4c-0.7-0.2-1.5-0.2-2.3-0.4
		c-0.7-0.2-1.5-0.5-2.2-0.6c-3.4-0.7-6.8-1.4-10.2-1.9c-1.5-0.2-3.1-0.9-4.7-1.3c-0.1,0.2-0.2,0.4-0.4,0.6c0.5,0.2,0.9,0.3,1.2,0.5
		C1030.5,403.8,1036.2,405.4,1042.6,405.7z"/>
	<path fill="#777777" d="M949.8,421.3c9.6-1.8,18.9-3.8,28.2-5.3c3.2-0.5,5.7-1.7,7.9-4c1-1.1,2.2-2.1,3.3-3.1
		c-1-0.1-1.9-0.3-2.9-0.4c-1.4-0.1-2.9,0.3-4.2-0.1c-1.8-0.7-3.5-0.4-5.5-0.6c-2.6,3-5.2,6-7.9,9.2c-1.1,0.1-2.2,0-3.4-0.5
		c-1.5-0.6-3.2-0.5-4.8-0.9c-1.6-0.4-3.2-0.7-4.8-1.1c-1.8-0.4-3.6-0.7-5.3-2c-2.1-1.7-4.7-2.8-7.1-4.2c-2.3-1.3-4.5-2.8-7-4.3
		c-1.2,2.7-2.3,5.2-3.5,7.8c0.9-0.3,1.9-0.6,2.8-0.9C940.6,414.3,945.3,417.9,949.8,421.3z"/>
	<path fill="#777777" d="M809,422c1.9-0.5,3.8-1,5.7-1.6c-0.1-0.1-0.2-0.2-0.2-0.3c-1.7,0.4-3.4,0.8-5.1,1.2
		c-2.8,0.5-5.6,0.9-8.4,1.7c0,0,0,0,0,0c0.5,0,1,0,1.5,0C804.6,423,806.9,422.5,809,422z"/>
	<path fill="#777777" d="M864.9,419.4c1.3,0,2.4,0.1,3.5,0c4.8-0.2,9.5-0.4,14.3-0.5c-1-0.2-2.1-0.4-3.1-0.6c-1.3-0.2-2.7-0.4-4-0.8
		c-1.2-0.3-2.7-0.2-3.8-1.1c-0.2-0.1-0.6,0-0.9,0c-2.4,0.1-4.8-0.6-7.1-1.1c-2.1-0.4-4.3-0.8-6.5-1.3c-1.6-0.4-3.5-0.1-4.9,0.7
		c-2.7,1.5-5.6,2.3-8.3,3.5c-3.2,1.4-6.5,2.4-9.7,3.8c-0.5,0.2-0.9,0.4-1.4,0.5c10.6,0,21,0,31.4,0
		C864.5,421.6,864.6,420.6,864.9,419.4z"/>
	<path fill="#777777" d="M1255.8,422.3c-2.5-1.5-4.9-3.1-7.5-4.6c-1.5-0.9-2.9-1.9-4.4-2.6s-3.3-0.9-4.9-1.3
		c-3.6-1.1-7.2-2.3-10.8-3.4c-0.7-0.2-1.3-0.2-2-0.2c-0.2,0.2-0.4,0.5-0.6,0.7c9.6,3.7,18.9,7.4,28.2,10.8
		C1254.5,421.9,1255.2,422.1,1255.8,422.3z"/>
	<path fill="#E3E3E3" d="M1255.8,422.3c-0.7-0.2-1.3-0.4-1.9-0.6c-9.3-3.5-18.6-7.1-28.2-10.8c-0.2-0.1-0.5-0.2-0.7-0.3
		c-0.2,0.7-0.5,1.4-0.7,2.1c-1.2,3.4-2.4,6.8-3.7,10.5c-2-2.7-3.8-5.1-5.5-7.4c-5.6,0-11.2,0-16.9,0c-0.9,2.5-1.8,4.9-2.9,7.6
		c-1-0.8-2-1.6-3-2.4c-2-1.6-4.1-3.3-6.3-5.1c-0.3,0.9-0.7,1.7-1,2.5c-0.6,1.6-1.2,3-1.8,4.6c-5.1,0.2-10,0.4-15-1.6
		c-9-3.7-18.3-6.8-27.4-10.3c-1.8-0.7-3.7-1.8-5.2-3.1c-9.2-7.6-18.3-15.3-27.5-23c-9,5.1-17.9,10.3-27,15
		c-3.1,1.6-6.8,1.8-10.9,2.8c0.7-2.4,1-3.8,1.5-5.6c-1,0.3-1.7,0.5-2.4,0.8c-3.6,1.7-7.3,3.2-10.7,5.3c-5.1,3.2-10.4,2.9-16.1,2.7
		c-6.5-0.2-12.1-1.9-17-6.2c-0.3-0.2-0.6-0.3-1.2-0.5c-0.1,0-0.1,0-0.2-0.1c0,0.1,0,0.3,0,0.4c0,3.9,0,7.6,0,11.8
		c-1.8-1.5-3.5-2.9-5.2-4.3c-1.3-1.1-2.6-2.2-3.9-3.4c-4.2,1.3-8.5,2.5-12.8,4.2c-1.1,0.4-2.1,0.7-3.2,1c-0.5,0.1-1,0.2-1.5,0.2
		c-2.4,0.2-4.7-0.1-7.1-1.3c-0.5,0.5-1,0.9-1.5,1.4c-1.2,1-2.3,2-3.3,3.1c-2.1,2.3-4.7,3.5-7.9,4c-9.3,1.5-18.6,3.5-28.2,5.3
		c-4.5-3.4-9.2-7-14-10.6c-0.9,0.3-1.9,0.6-2.8,0.9c-1,0.3-2,0.7-2.9,1.1c-3.5,1.7-7.2,2.8-10.9,3.6c-4.2,0.9-8.5,1.3-12.8,1.5
		c-6.3,0.3-12.5,0.6-18.8,0.8c-1.7,0.1-3.4,0.1-5,0.2c-4.8,0.2-9.5,0.3-14.3,0.5c-1.1,0.1-2.2,0-3.5,0c-0.2,1.2-0.4,2.3-0.5,3.2
		c-10.4,0-20.8,0-31.4,0c-1.5,0-3.1,0-4.6,0c-1-1.4-2.1-3.2-3.4-5.2c-3.4,1-6.8,2.1-10.1,3c-1.9,0.6-3.8,1.1-5.7,1.6
		c-2.1,0.5-4.4,1-6.6,1c-0.5,0-1,0-1.5,0c-23.9,0.1-47.8,0.2-71.8,0c-18.7-0.2-37.4-1.2-56-1.5c-5.5-0.1-11,0.9-16.5,1.4
		c-1.2,0.1-2.4,0.1-3.7,0.1c-6.4,0-12.7,0-19.1,0v0.4h626.9v-0.5c-0.2,0-0.5,0-0.7,0C1258.7,422.8,1257.2,422.6,1255.8,422.3z"/>
</g>
</svg>
