<svg xmlns="http://www.w3.org/2000/svg" version="1.1" x="0" y="0" viewBox="633.9 380.2 626.9 43.1" enable-background="new 633.9 380.2 626.9 43.1" xml:space="preserve"><path fill="none" d="M652.9 423c1.2 0 2.4 0 3.7-0.1 5.5-0.5 11-1.5 16.5-1.4 18.7 0.3 37.4 1.3 56 1.5 23.9 0.2 47.8 0.1 71.8 0 0 0 0 0 0 0 2.8-0.9 5.6-1.2 8.4-1.7 1.6-0.4 3.4-0.8 5.1-1.2 0.1 0.1 0.2 0.2 0.2 0.3 3.4-1 6.7-2 10.1-3 1.3 2 2.4 3.8 3.4 5.2 1.6 0 3.1 0 4.6 0 0.5-0.2 0.9-0.3 1.4-0.5 3.2-1.3 6.5-2.4 9.7-3.8 2.7-1.2 5.6-2.1 8.3-3.5 1.4-0.7 3.2-1 4.9-0.7 2.1 0.5 4.3 0.9 6.5 1.3 2.4 0.5 4.7 1.2 7.1 1.1 0.3 0 0.7-0.1 0.9 0 1.1 0.9 2.6 0.8 3.8 1.1 1.3 0.4 2.7 0.5 4 0.8 1.1 0.2 2.1 0.4 3.1 0.6 1.7-0.1 3.4-0.1 5-0.2 3.2-2.2 6.2-4.3 9.5-6.7 3.2 0.1 6.8 1 10.6 0.7 0.2 0 0.5 0.1 0.8 0.2 3.6 1.2 7.2 2.3 10.7 3.4 3.7-0.8 7.3-1.9 10.9-3.6 0.9-0.4 1.9-0.8 2.9-1.1 1.1-2.6 2.3-5.2 3.5-7.8 2.4 1.5 4.7 3 7 4.3 2.4 1.4 4.9 2.5 7.1 4.2 1.6 1.3 3.5 1.6 5.3 2 1.6 0.4 3.2 0.7 4.8 1.1 1.6 0.4 3.4 0.3 4.8 0.9 1.2 0.5 2.3 0.5 3.4 0.5 2.7-3.1 5.3-6.2 7.9-9.2 2 0.2 3.7-0.1 5.5 0.6 1.3 0.4 2.8 0 4.2 0.1 1 0.1 1.9 0.3 2.9 0.4 0.5-0.4 1-0.9 1.5-1.4 2.4 1.1 4.7 1.5 7.1 1.3 0.5-0.1 1-0.2 1.5-0.2 1.1-0.2 2.1-0.5 3.2-1 4.2-1.6 8.6-2.8 12.8-4.2 1.3 1.1 2.6 2.2 3.9 3.4 0.3 0 0.5-0.1 0.8-0.1 1.6-2.6 3-5 4.4-7.4 0-0.1 0-0.3 0-0.4 0.1 0 0.1 0 0.2 0.1 0.1-0.2 0.2-0.4 0.4-0.6 1.6 0.5 3.2 1.1 4.7 1.3 3.4 0.5 6.8 1.2 10.2 1.9 0.7 0.1 1.5 0.4 2.2 0.6 0.7 0.2 1.5 0.2 2.3 0.4 2.9 0.6 5.7 1.8 8.8 1.4 2.8-3.1 5.6-6.2 8.2-9.1 3.8 0 7.5-0.2 11.2 0.1 3.7 0.2 7.3-1.1 10.5-0.7 9-5.2 18.2-9 26.7-14 0.7 0.9 1.2 1.8 2 2.6 2.2 2.3 4.4 4.5 6.7 6.7 0.7 0.7 1.5 1.3 2.3 1.7 7.7 3.8 15.3 7.7 23 11.5 3.1 1.5 6.2 3.2 9.5 4.3 2.3 0.8 4.6 1.8 6.7 2.4 4-1 7.8-2 11.5-2.9 0.5 0.5 0.9 1 1.5 1.5 2.6 1.9 5.1 4 7.5 6.3 1.3 1.3 2.7 2.7 4.3 3.6 0.2 0.1 0.3 0.2 0.5 0.3 0.3-0.8 0.6-1.6 1-2.5 2.2 1.8 4.3 3.5 6.3 5.1 1.6-1.7 3-3.6 4.5-5.5 1.2-1.5 2.1-3.5 4.2-4.4 2.3-1 4.4-2.2 6.6-3.2 0.9-0.4 1.8-0.5 2.4-0.8 3.8 3.3 7.4 6.4 11.2 9.6 1.1-1.4 2.1-2.7 3.1-3.9 0.2-0.7 0.5-1.4 0.7-2.1 0.2 0.1 0.5 0.2 0.7 0.3 0.2-0.2 0.4-0.5 0.6-0.7 0.6 0.1 1.3 0.1 2 0.2 3.6 1.1 7.2 2.3 10.8 3.4 1.6 0.5 3.4 0.7 4.9 1.3s2.9 1.7 4.4 2.6c2.6 1.5 5 3.1 7.5 4.6 1.4 0.4 2.8 0.6 4.2 0.6 0.2 0 0.5 0 0.7 0v-42.6H633.9V423C640.2 423 646.6 423 652.9 423z"/><path fill="#777777" d="M919.3 416.3c-3.6-1.1-7.2-2.3-10.7-3.4 -0.2-0.1-0.5-0.2-0.8-0.2 -3.7 0.4-7.3-0.6-10.6-0.7 -3.3 2.4-6.3 4.5-9.5 6.7 6.3-0.2 12.5-0.5 18.8-0.8C910.8 417.6 915.1 417.2 919.3 416.3z"/><path fill="#777777" d="M997.8 408.8c0.5 0 1-0.1 1.5-0.2C998.7 408.6 998.3 408.7 997.8 408.8z"/><path fill="#777777" d="M1198.2 415.7c5.7 0 11.3 0 16.9 0 1.7 2.3 3.5 4.7 5.5 7.4 1.3-3.7 2.5-7 3.7-10.5 -1 1.3-2 2.6-3.1 3.9 -3.7-3.2-7.3-6.3-11.2-9.6 -0.6 0.2-1.6 0.4-2.4 0.8 -2.2 1-4.3 2.3-6.6 3.2 -2 0.9-2.9 2.9-4.2 4.4 -1.5 1.9-2.9 3.8-4.5 5.5 1 0.8 2 1.6 3 2.4C1196.4 420.6 1197.3 418.2 1198.2 415.7z"/><path fill="#777777" d="M1024.3 399.4c-1.4 2.4-2.8 4.8-4.4 7.4 -0.2 0-0.5 0.1-0.8 0.1 1.7 1.4 3.4 2.8 5.2 4.3C1024.3 406.9 1024.3 403.2 1024.3 399.4z"/><path fill="#777777" d="M1042.6 405.7c5.7 0.2 11 0.5 16.1-2.7 3.4-2.1 7.1-3.5 10.7-5.3 0.7-0.3 1.4-0.5 2.4-0.8 -0.5 1.8-0.9 3.2-1.5 5.6 4.1-1 7.8-1.2 10.9-2.8 9.1-4.7 17.9-9.9 27-15 9.3 7.8 18.4 15.4 27.5 23 1.5 1.3 3.4 2.3 5.2 3.1 9.1 3.5 18.4 6.6 27.4 10.3 4.9 2 9.9 1.8 15 1.6 0.6-1.5 1.2-3 1.8-4.6 -0.2-0.1-0.3-0.2-0.5-0.3 -1.6-0.9-3-2.3-4.3-3.6 -2.4-2.3-4.9-4.4-7.5-6.3 -0.5-0.4-1-1-1.5-1.5 -3.8 1-7.6 1.9-11.5 2.9 -2.1-0.7-4.3-1.6-6.7-2.4 -3.2-1.2-6.3-2.8-9.5-4.3 -7.7-3.8-15.3-7.6-23-11.5 -0.9-0.4-1.6-1-2.3-1.7 -2.3-2.2-4.5-4.5-6.7-6.7 -0.7-0.7-1.3-1.7-2-2.6 -8.5 5.1-17.8 8.9-26.7 14 -3.2-0.4-6.8 0.9-10.5 0.7 -3.7-0.2-7.3-0.1-11.2-0.1 -2.7 2.9-5.4 6-8.2 9.1 -3.1 0.4-5.9-0.8-8.8-1.4 -0.7-0.2-1.5-0.2-2.3-0.4 -0.7-0.2-1.5-0.5-2.2-0.6 -3.4-0.7-6.8-1.4-10.2-1.9 -1.5-0.2-3.1-0.9-4.7-1.3 -0.1 0.2-0.2 0.4-0.4 0.6 0.5 0.2 0.9 0.3 1.2 0.5C1030.5 403.8 1036.2 405.4 1042.6 405.7z"/><path fill="#777777" d="M949.8 421.3c9.6-1.8 18.9-3.8 28.2-5.3 3.2-0.5 5.7-1.7 7.9-4 1-1.1 2.2-2.1 3.3-3.1 -1-0.1-1.9-0.3-2.9-0.4 -1.4-0.1-2.9 0.3-4.2-0.1 -1.8-0.7-3.5-0.4-5.5-0.6 -2.6 3-5.2 6-7.9 9.2 -1.1 0.1-2.2 0-3.4-0.5 -1.5-0.6-3.2-0.5-4.8-0.9 -1.6-0.4-3.2-0.7-4.8-1.1 -1.8-0.4-3.6-0.7-5.3-2 -2.1-1.7-4.7-2.8-7.1-4.2 -2.3-1.3-4.5-2.8-7-4.3 -1.2 2.7-2.3 5.2-3.5 7.8 0.9-0.3 1.9-0.6 2.8-0.9C940.6 414.3 945.3 417.9 949.8 421.3z"/><path fill="#777777" d="M809 422c1.9-0.5 3.8-1 5.7-1.6 -0.1-0.1-0.2-0.2-0.2-0.3 -1.7 0.4-3.4 0.8-5.1 1.2 -2.8 0.5-5.6 0.9-8.4 1.7 0 0 0 0 0 0 0.5 0 1 0 1.5 0C804.6 423 806.9 422.5 809 422z"/><path fill="#777777" d="M864.9 419.4c1.3 0 2.4 0.1 3.5 0 4.8-0.2 9.5-0.4 14.3-0.5 -1-0.2-2.1-0.4-3.1-0.6 -1.3-0.2-2.7-0.4-4-0.8 -1.2-0.3-2.7-0.2-3.8-1.1 -0.2-0.1-0.6 0-0.9 0 -2.4 0.1-4.8-0.6-7.1-1.1 -2.1-0.4-4.3-0.8-6.5-1.3 -1.6-0.4-3.5-0.1-4.9 0.7 -2.7 1.5-5.6 2.3-8.3 3.5 -3.2 1.4-6.5 2.4-9.7 3.8 -0.5 0.2-0.9 0.4-1.4 0.5 10.6 0 21 0 31.4 0C864.5 421.6 864.6 420.6 864.9 419.4z"/><path fill="#777777" d="M1255.8 422.3c-2.5-1.5-4.9-3.1-7.5-4.6 -1.5-0.9-2.9-1.9-4.4-2.6s-3.3-0.9-4.9-1.3c-3.6-1.1-7.2-2.3-10.8-3.4 -0.7-0.2-1.3-0.2-2-0.2 -0.2 0.2-0.4 0.5-0.6 0.7 9.6 3.7 18.9 7.4 28.2 10.8C1254.5 421.9 1255.2 422.1 1255.8 422.3z"/><path fill="#E3E3E3" d="M1255.8 422.3c-0.7-0.2-1.3-0.4-1.9-0.6 -9.3-3.5-18.6-7.1-28.2-10.8 -0.2-0.1-0.5-0.2-0.7-0.3 -0.2 0.7-0.5 1.4-0.7 2.1 -1.2 3.4-2.4 6.8-3.7 10.5 -2-2.7-3.8-5.1-5.5-7.4 -5.6 0-11.2 0-16.9 0 -0.9 2.5-1.8 4.9-2.9 7.6 -1-0.8-2-1.6-3-2.4 -2-1.6-4.1-3.3-6.3-5.1 -0.3 0.9-0.7 1.7-1 2.5 -0.6 1.6-1.2 3-1.8 4.6 -5.1 0.2-10 0.4-15-1.6 -9-3.7-18.3-6.8-27.4-10.3 -1.8-0.7-3.7-1.8-5.2-3.1 -9.2-7.6-18.3-15.3-27.5-23 -9 5.1-17.9 10.3-27 15 -3.1 1.6-6.8 1.8-10.9 2.8 0.7-2.4 1-3.8 1.5-5.6 -1 0.3-1.7 0.5-2.4 0.8 -3.6 1.7-7.3 3.2-10.7 5.3 -5.1 3.2-10.4 2.9-16.1 2.7 -6.5-0.2-12.1-1.9-17-6.2 -0.3-0.2-0.6-0.3-1.2-0.5 -0.1 0-0.1 0-0.2-0.1 0 0.1 0 0.3 0 0.4 0 3.9 0 7.6 0 11.8 -1.8-1.5-3.5-2.9-5.2-4.3 -1.3-1.1-2.6-2.2-3.9-3.4 -4.2 1.3-8.5 2.5-12.8 4.2 -1.1 0.4-2.1 0.7-3.2 1 -0.5 0.1-1 0.2-1.5 0.2 -2.4 0.2-4.7-0.1-7.1-1.3 -0.5 0.5-1 0.9-1.5 1.4 -1.2 1-2.3 2-3.3 3.1 -2.1 2.3-4.7 3.5-7.9 4 -9.3 1.5-18.6 3.5-28.2 5.3 -4.5-3.4-9.2-7-14-10.6 -0.9 0.3-1.9 0.6-2.8 0.9 -1 0.3-2 0.7-2.9 1.1 -3.5 1.7-7.2 2.8-10.9 3.6 -4.2 0.9-8.5 1.3-12.8 1.5 -6.3 0.3-12.5 0.6-18.8 0.8 -1.7 0.1-3.4 0.1-5 0.2 -4.8 0.2-9.5 0.3-14.3 0.5 -1.1 0.1-2.2 0-3.5 0 -0.2 1.2-0.4 2.3-0.5 3.2 -10.4 0-20.8 0-31.4 0 -1.5 0-3.1 0-4.6 0 -1-1.4-2.1-3.2-3.4-5.2 -3.4 1-6.8 2.1-10.1 3 -1.9 0.6-3.8 1.1-5.7 1.6 -2.1 0.5-4.4 1-6.6 1 -0.5 0-1 0-1.5 0 -23.9 0.1-47.8 0.2-71.8 0 -18.7-0.2-37.4-1.2-56-1.5 -5.5-0.1-11 0.9-16.5 1.4 -1.2 0.1-2.4 0.1-3.7 0.1 -6.4 0-12.7 0-19.1 0v0.4h626.9v-0.5c-0.2 0-0.5 0-0.7 0C1258.7 422.8 1257.2 422.6 1255.8 422.3z"/></svg>
