<svg xmlns="http://www.w3.org/2000/svg" version="1.1" x="0px" y="0px" width="1024px" height="1024px" viewBox="0 0 1024 1024" enable-background="new 0 0 1024 1024" xml:space="preserve"><defs><filter filterUnits="userSpaceOnUse" x="167.436" y="220.581" width="722.499" height="631.27"><feColorMatrix type="matrix" values="-1 0 0 0 1  0 -1 0 0 1  0 0 -1 0 1  0 0 0 1 0" color-interpolation-filters="sRGB" result="source"/><feFlood result="back" style="flood-color:white;flood-opacity:1"/><feBlend in="source" in2="back" mode="normal"/></filter></defs><mask maskUnits="userSpaceOnUse" x="167.436" y="220.581" width="722.499" height="631.27"><g filter="url(#Adobe_OpacityMaskFilter)"/></mask><g opacity="0.5" mask="url(#SVGID_1_)"><path d="M732.212 838.843c-1.996 0.107-3.993 0.216-5.99 0.322 -1.648-0.139-3.298-0.416-4.943-0.397 -51.488 0.592-102.977 1.173-154.465 1.839 -66.485 0.861-132.969 1.8-199.453 2.685 -7.438 0.099-14.876 0.078-22.798 0.114 -1.414-105.203-2.821-209.86-4.245-315.733 -16.64 11.784-32.182 22.794-47.922 33.942 -41.838-59.04-83.341-117.604-124.959-176.333 1.354-1.048 2.349-1.912 3.431-2.645 24.538-16.618 48.906-33.494 73.667-49.772 52.143-34.276 101.976-72.094 156.707-102.411 0.275-0.152 0.461-0.467 0.688-0.706 11.649-0.629 23.3-1.257 34.949-1.886 0.336 16.264 5.371 30.93 16.195 43.078 21.731 24.389 49.245 32.051 80.644 25.488 33.525-7.007 57.318-33.569 60.073-65.723 0.207-2.419 0.281-4.85 0.386-6.696 10.802-0.582 21.173-0.547 31.373-1.846 12.288-1.563 22.409 2.631 32.953 8.294 70.843 38.053 141.929 75.65 212.934 113.403 1.835 0.976 3.619 2.046 5.628 3.187C841.843 410.2 806.896 472.865 771.815 535.77c-14.438-8.047-28.407-15.83-43.134-24.038 0.243 23.016 0.416 44.669 0.711 66.32 1.064 78.308 2.194 156.615 3.225 234.923C732.729 821.595 732.358 830.22 732.212 838.843z"/><path fill-rule="evenodd" clip-rule="evenodd" fill="none" d="M713.297 850.576c0.674-8.599 1.573-17.186 1.988-25.796 3.77-78.224 7.439-156.454 11.173-234.68 1.033-21.629 2.186-43.251 3.353-66.238 14.196 9.094 27.663 17.72 41.58 26.636 38.869-60.639 77.59-121.045 116.612-181.923 -1.936-1.26-3.651-2.438-5.424-3.524 -68.558-42.032-137.207-83.914-205.585-126.235 -10.179-6.299-20.021-11.105-32.384-10.296 -10.261 0.672-20.609 0-31.427-0.08 -0.217 1.835-0.44 4.257-0.795 6.66 -4.721 31.925-30.095 56.979-63.986 61.92 -31.744 4.627-58.735-4.706-78.931-30.381 -10.06-12.789-14.187-27.735-13.525-43.988 144.662 1.073 289.327 2.146 433.988 3.218 -1.548 208.661-3.095 417.321-4.643 625.982C827.96 851.426 770.63 851 713.297 850.576z"/><path fill-rule="evenodd" clip-rule="evenodd" fill="none" d="M420.947 222.39c-0.241 0.225-0.446 0.527-0.729 0.663 -56.486 26.907-108.542 61.601-162.687 92.62 -25.712 14.73-51.069 30.082-76.578 45.166 -1.125 0.666-2.172 1.466-3.586 2.43 37.942 61.167 75.779 122.165 113.922 183.657 16.394-10.164 32.582-20.2 49.912-30.943 -5.065 105.762-10.072 210.309-15.106 315.399 7.909 0.448 15.333 0.926 22.763 1.283 66.414 3.188 132.831 6.326 199.244 9.54 51.433 2.488 102.859 5.063 154.286 7.627 1.645 0.08 3.273 0.459 4.91 0.699 -178.328-1.322-356.656-2.645-534.985-3.967 1.547-208.661 3.095-417.321 4.642-625.982C258.285 221.184 339.616 221.787 420.947 222.39z"/></g><path fill="#FFFFFF" d="M699.018 842.989c-2 0-4 0-6 0 -1.639-0.228-3.27-0.594-4.914-0.663 -51.446-2.179-102.891-4.369-154.34-6.474 -66.435-2.718-132.873-5.358-199.31-8.05 -7.432-0.302-14.859-0.723-22.771-1.113 4.248-105.126 8.473-209.707 12.748-315.504 -17.25 10.873-33.362 21.03-49.68 31.316C236.15 481.295 197.858 420.583 159.46 359.7c1.408-0.974 2.448-1.782 3.568-2.456 25.396-15.274 50.637-30.814 76.239-45.737 53.912-31.422 105.707-66.504 161.99-93.833 0.283-0.138 0.485-0.441 0.725-0.668 11.667 0 23.333-0.001 35-0.002 -0.54 16.258 3.699 31.174 13.854 43.886 20.387 25.523 47.448 34.654 79.156 29.79 33.854-5.193 59.04-30.437 63.521-62.396 0.337-2.406 0.542-4.829 0.745-6.666 10.818 0 21.172 0.594 31.428-0.155 12.355-0.901 22.234 3.832 32.458 10.054 68.693 41.81 137.654 83.177 206.524 124.695 1.78 1.073 3.505 2.238 5.448 3.484 -38.565 61.167-76.834 121.862-115.248 182.788 -13.984-8.811-27.515-17.337-41.778-26.323 -0.996 22.995-1.986 44.625-2.857 66.261 -3.149 78.253-6.234 156.508-9.419 234.758C700.463 825.794 699.628 834.387 699.018 842.989z"/><path fill-rule="evenodd" clip-rule="evenodd" fill="none" d="M699.018 842.989c0.61-8.603 1.445-17.195 1.796-25.809 3.185-78.25 6.27-156.505 9.419-234.758 0.871-21.636 1.861-43.266 2.857-66.261 14.264 8.986 27.794 17.513 41.778 26.323 38.414-60.926 76.683-121.621 115.248-182.788 -1.943-1.246-3.668-2.411-5.448-3.484 -68.87-41.518-137.831-82.885-206.524-124.695 -10.224-6.222-20.103-10.955-32.458-10.054 -10.256 0.749-20.609 0.154-31.428 0.155 -0.203 1.837-0.408 4.26-0.745 6.666 -4.481 31.959-29.667 57.203-63.521 62.396 -31.708 4.864-58.769-4.267-79.156-29.79 -10.155-12.712-14.394-27.628-13.854-43.886 144.666-0.008 289.333-0.017 434-0.025 0.013 208.667 0.024 417.333 0.036 626C813.686 842.982 756.352 842.986 699.018 842.989z"/><path fill-rule="evenodd" clip-rule="evenodd" fill="none" d="M401.982 217.006c-0.24 0.227-0.442 0.531-0.725 0.668 -56.283 27.328-108.079 62.41-161.99 93.833 -25.602 14.922-50.842 30.463-76.239 45.737 -1.12 0.674-2.16 1.482-3.568 2.456 38.398 60.883 76.689 121.595 115.291 182.801 16.318-10.286 32.43-20.443 49.68-31.316 -4.275 105.797-8.5 210.378-12.748 315.504 7.912 0.391 15.339 0.812 22.771 1.113 66.437 2.691 132.875 5.332 199.31 8.05 51.449 2.104 102.894 4.295 154.34 6.474 1.645 0.069 3.275 0.436 4.914 0.663 -178.334 0.011-356.666 0.021-535 0.031 -0.012-208.667-0.024-417.333-0.036-626C239.315 217.016 320.648 217.011 401.982 217.006z"/><path fill="none" d="M199.017 817.019c-0.011-188.667-0.022-377.333-0.033-566 210.667-0.013 421.333-0.024 632-0.037 0.012 188.667 0.022 377.333 0.033 566C620.351 816.994 409.683 817.006 199.017 817.019zM341.848 801.585c109.492 4.608 218.296 9.187 327.63 13.788 4.987-118.109 9.946-235.556 14.95-354.078 21.966 13.905 43.098 27.284 64.512 40.841 27.285-43.017 54.294-85.6 81.394-128.325 -0.954-0.768-1.538-1.34-2.214-1.768 -62.33-39.54-124.662-79.071-187.019-118.566 -1.071-0.679-2.415-1.288-3.64-1.304 -7.664-0.105-15.336-0.164-22.992 0.116 -1.23 0.046-3.246 1.711-3.464 2.893 -3.21 17.347-13.422 29.852-27.346 39.687 -37.18 26.261-97.747 26.703-135.279 0.932 -14.46-9.929-25.318-22.562-28.612-40.541 -0.225-1.23-2.526-2.884-3.932-2.956 -6.317-0.32-12.676-0.417-18.985-0.021 -3.143 0.196-6.636 0.949-9.246 2.596 -57.906 36.556-115.712 73.271-173.534 109.96 -4.475 2.839-8.926 5.715-13.767 8.817 27.296 43.021 54.375 85.699 81.539 128.511 24.938-15.799 49.31-31.239 74.604-47.265C351.557 571.053 346.72 685.896 341.848 801.585z"/><path fill-rule="evenodd" clip-rule="evenodd" fill="#3A3A3A" d="M341.848 801.585c4.872-115.688 9.709-230.532 14.6-346.683 -25.295 16.026-49.667 31.466-74.604 47.265 -27.164-42.812-54.243-85.49-81.539-128.511 4.841-3.102 9.292-5.978 13.767-8.817 57.822-36.69 115.627-73.404 173.534-109.96 2.61-1.647 6.103-2.4 9.246-2.596 6.309-0.395 12.668-0.299 18.985 0.021 1.406 0.071 3.707 1.725 3.932 2.956 3.294 17.979 14.152 30.612 28.612 40.541 37.533 25.771 98.1 25.329 135.279-0.932 13.924-9.835 24.136-22.339 27.346-39.687 0.218-1.182 2.233-2.847 3.464-2.893 7.656-0.28 15.328-0.222 22.992-0.116 1.225 0.016 2.568 0.625 3.64 1.304 62.356 39.496 124.688 79.027 187.019 118.566 0.676 0.428 1.26 1 2.214 1.768 -27.1 42.725-54.108 85.308-81.394 128.325 -21.414-13.557-42.546-26.936-64.512-40.841 -5.004 118.522-9.963 235.969-14.95 354.078C560.144 810.771 451.34 806.193 341.848 801.585z"/><path fill="#FFFFFF" d="M502.446 466.559c13.164-5.49 13.688-26.417 7.842-37.332 -7.842-14.639-27.636-12.207-41.003-8.386 3.702-10.644 10.503-25.182 22.777-27.283 12.188-2.086 24.119 5.481 34.719 10.387 9.461 4.378 26.101 9.88 32.936-2.076 2.076-5.046-4.089-9.204-9.492-12.637 -5.397-3.428-11.137-6.708-17.137-8.955 129.83-27.54 133.409 244.862-4.036 206.036 -9.922-2.797-19.471-6.83-28.653-11.486 12.835 1.066 26.657-0.293 36.929-8.619 8.796-7.129 13.441-22-1.054-25.455 -13.025-3.104-27.208 4.828-40.058 5.92 -16.175 1.371-29.973 1.777-39.171-10.977 7.123-0.889 12.632-2.785 15.43-4.809 4.837-3.496 9.527-8.396 9.955-14.637 0.819-11.943-8.356-23.131-18.632-28.219 -4.752-2.348-10.439-3.186-15.576-1.672 -6.609 1.949-8.518 7.656-13.15 12.043 -4.533 4.293-8.765 7.436-15.015 8.684 -7.285 1.287-14.326-2.213-19.936-6.561 -3.07-2.385-5.678-5.271-8.42-8.014 11.71 1.674 27.324 4.693 34.189-8.447 5.516-10.57-1.031-22.589 4.803-33.282 7.491-13.733 26.508-2.974 35.851 2.42C477.255 459.392 487.927 472.605 502.446 466.559z"/><g display="none"><g display="inline"><path fill="#3A3A3A" d="M565.793 523.924c7.4-10.73 11.312-23.293 11.312-36.33 0-12.752-3.747-25.081-10.835-35.653l0 0c-1.477-2.203-4.46-2.791-6.663-1.314s-2.791 4.46-1.314 6.663l0 0c6.023 8.984 9.208 19.464 9.208 30.304 0 11.08-3.325 21.758-9.613 30.879l0 0c-1.507 2.184-0.957 5.174 1.227 6.68S564.288 526.109 565.793 523.924L565.793 523.924z"/></g><g display="inline"><path fill="#3A3A3A" d="M584.339 536.682c9.983-14.486 15.261-31.461 15.261-49.088 0-17.236-5.059-33.891-14.63-48.166l0 0c-1.477-2.204-4.461-2.792-6.663-1.314 -2.204 1.478-2.792 4.46-1.314 6.663l0 0c8.507 12.687 13.003 27.493 13.003 42.817 0 15.672-4.69 30.76-13.565 43.637l0 0c-1.505 2.186-0.954 5.174 1.229 6.68S582.833 538.865 584.339 536.682L584.339 536.682z"/></g><g display="inline"><path fill="#3A3A3A" d="M594.836 432.833c10.88 16.227 16.631 35.162 16.631 54.761 0 20.037-6.001 39.334-17.353 55.807l0 0c-1.505 2.184-0.955 5.174 1.229 6.68 2.184 1.504 5.174 0.953 6.679-1.23l0 0c12.462-18.082 19.048-39.264 19.048-61.256 0-21.51-6.312-42.296-18.257-60.11l0 0c-1.478-2.203-4.46-2.791-6.663-1.314C593.947 427.647 593.359 430.63 594.836 432.833L594.836 432.833z"/></g></g><path fill-rule="evenodd" clip-rule="evenodd" fill="#3A3A3A" d="M602.183 463.547c2.037 0 4.074 0.029 6.11-0.015 0.844-0.018 1.142 0.297 1.11 1.122 -0.042 1.078-0.019 2.159 0.017 3.238 0.023 0.712-0.275 1.013-0.984 1.027 -0.718 0.016-1.433 0.127-2.15 0.165 -0.984 0.052-1.49 0.569-1.432 1.535 0.175 2.866 0.379 5.73 0.589 8.594 0.1 1.354 0.231 2.704 0.359 4.055 0.095 1.008 0.409 1.562 1.665 1.686 3.334 0.328 6.511 1.158 9.52 2.863 1.867 1.058 3.809 1.948 5.455 3.357 3.906 3.343 6.809 7.32 8.404 12.29 1.993 6.206 1.915 12.345-0.107 18.477 -0.928 2.812-2.318 5.426-4.234 7.705 -5.095 6.064-11.385 9.893-19.457 10.562 -3.153 0.261-6.263 0.136-9.277-0.624 -9.688-2.441-16.527-8.271-19.995-17.715 -1.872-5.098-2.057-10.392-0.759-15.685 0.305-1.245-0.105-1.874-1.219-2.307 -4.168-1.622-8.313-3.3-12.49-4.896 -0.934-0.356-1.389-0.896-1.604-1.858 -1.066-4.746-2.172-9.484-3.298-14.216 -0.767-3.222-1.609-6.424-2.388-9.642 -1.285-5.309-2.546-10.623-3.818-15.936 -0.055-0.233-0.12-0.464-0.188-0.694 -0.401-1.376-1.212-1.63-2.262-0.678 -1.836 1.665-3.656 3.348-5.482 5.025 -0.852 0.783-1.678 1.598-2.555 2.351 -0.925 0.794-0.896 1.58-0.184 2.495 2.652 3.407 4.373 7.258 5.09 11.5 0.895 5.288 0.707 10.564-1.367 15.562 -1.012 2.436-2.444 4.732-3.947 6.911 -0.912 1.323-2.323 2.303-3.512 3.434 -0.833 0.792-1.592 1.688-2.518 2.351 -3.955 2.837-8.404 4.317-13.24 4.837 -3.148 0.339-6.257 0.174-9.281-0.567 -9.852-2.414-16.792-8.302-20.229-17.912 -2.303-6.441-2.08-13.011 0.482-19.341 2.899-7.161 7.768-12.579 15.074-15.52 6.575-2.647 13.272-2.859 20.015-0.709 1.265 0.403 2.422 1.148 3.621 1.751 1.416 0.711 2.781 1.552 4.258 2.097 0.495 0.183 1.396-0.209 1.881-0.615 1.525-1.282 2.938-2.698 4.399-4.056 3.072-2.854 6.149-5.704 9.222-8.56 0.615-0.571 1.24-1.137 1.818-1.744 1.02-1.071 0.828-1.844-0.576-2.261 -1.566-0.466-3.144-0.896-4.727-1.303 -0.752-0.194-1.084-0.499-0.792-1.34 0.378-1.089 0.659-2.214 0.944-3.332 0.144-0.562 0.363-0.836 1.002-0.65 2.835 0.825 5.66 1.692 8.523 2.4 1.449 0.358 2.02 1.598 2.98 2.446 0.537 0.475 0.961 1.082 1.511 1.54 0.783 0.651 0.622 1.161-0.077 1.722 -0.436 0.35-0.842 0.741-1.232 1.142 -1.084 1.113-1.004 1.677 0.399 2.298 3.249 1.438 6.515 2.839 9.774 4.252 7.404 3.208 14.809 6.413 22.213 9.621 0.619 0.269 1.257 0.512 1.842 0.844C597.312 463.893 599.728 463.939 602.183 463.547zM604.027 533.621c10.971 0.367 21.291-8.228 21.379-20.979 0.09-13.103-10.748-21.1-20.827-21.273 -12.196-0.211-21.278 10.116-21.413 21.172C583.016 525.057 594.162 534.175 604.027 533.621zM518.834 503.957c8.793-0.313 15.362-4.06 19.346-11.974 0.781-1.551 0.523-2.121-1.084-2.729 -5.529-2.089-11.062-4.171-16.598-6.248 -1.838-0.689-1.871-0.793-0.393-2.163 1.258-1.166 2.543-2.302 3.815-3.451 2.964-2.68 5.944-5.341 8.884-8.049 1.197-1.102 1.188-1.767-0.056-2.729 -6.671-5.158-13.938-6.58-21.876-3.302 -3.11 1.284-5.813 3.189-7.92 5.847 -5.315 6.704-6.588 14.224-3.252 22.007C503.222 499.38 509.846 503.636 518.834 503.957zM558.408 452.631c-1.099-0.006-1.58 0.684-1.335 1.83 0.333 1.56 0.669 3.119 1.045 4.668 1.491 6.156 3.009 12.308 4.497 18.466 0.824 3.407 1.568 6.834 2.433 10.23 0.482 1.897 1.171 2.101 2.804 0.979 6.316-4.342 12.628-8.692 18.939-13.042 2.561-1.766 5.127-3.524 7.671-5.316 1.105-0.779 1.079-1.489-0.017-2.234 -0.263-0.179-0.532-0.361-0.824-0.485 -2.751-1.167-5.521-2.291-8.261-3.484 -8.636-3.761-17.261-7.548-25.894-11.316C559.106 452.768 558.702 452.71 558.408 452.631zM600.423 483.446c-0.199-2.475-0.325-4.867-0.604-7.242 -0.22-1.876-1.002-2.17-2.566-1.095 -4.838 3.325-9.67 6.66-14.504 9.99 -4.045 2.786-8.102 5.556-12.119 8.38 -0.461 0.324-1.025 0.998-0.966 1.431 0.063 0.468 0.733 1.004 1.259 1.23 2.198 0.945 4.447 1.771 6.666 2.67 1.465 0.594 1.83 0.472 2.758-0.853 0.961-1.372 1.904-2.771 2.994-4.038 4.119-4.79 9.473-7.451 15.559-8.757C599.959 484.937 600.398 484.367 600.423 483.446z"/></svg>
