<svg xmlns:svg="http://www.w3.org/2000/svg" xmlns="http://www.w3.org/2000/svg" version="1.1" width="635.65" height="635" xml:space="preserve"><style>.s0{opacity:0.5;}.s1{fill:#000;}.s2{fill-opacity:0.49803922;fill:#000;}.s3{fill:#fff;}.s4{fill:#3a3a3a;}</style><g transform="matrix(1.25,0,0,-1.25,-352.28418,979.84201)"><g transform="translate(28.201877,19.114762)"><g clip-path="url(#clipPath110)"><g transform="matrix(0.99548433,0.09492599,-0.09492599,0.99548433,611.77907,264.25606)" class="s2"><path d="m0 0c-21.61 1.34-43.23 2.56-64.83 4.04-25.09 1.71-50.16 3.69-75.24 5.47-22.26 1.58-44.53 3.13-66.81 4.54-12.61 0.8-22.6 5.82-28.09 17.57-1.77 3.8-2.26 8.28-2.88 12.51-1.13 7.68-1.07 15.63-3 23.08-8.04 31.12-16.57 62.11-25.14 93.09-0.73 2.66-2.59 5.35-4.64 7.26-23.91 22.23-39.83 48.7-45.34 81.32-3.31 19.61-4.9 38.98 0.41 58.43 6.01 22 13.45 43.28 28.91 60.84 1.75 1.98 2.44 5.05 3.17 7.74 7.07 26.16 23.96 44.73 45.51 59.96 33.88 23.95 72.7 32.98 112.87 38.31 2.5 0.33 5.23 1.9 7.06 3.7 10.45 10.22 22.21 17.29 36.78 20.81 17.46 4.2 33.45 0.91 49.06-5.95 10.84-4.76 19.3-12.85 26.23-22.54 1.4-1.95 3.77-3.77 6.04-4.42 24.86-7.11 49.64-14.57 72.03-27.85 23.55-13.97 44.72-30.61 59.19-54.69 7.03-11.7 11.21-24.03 13.09-37.41 0.51-3.67 1.96-7.35 3.65-10.69 17.86-35.22 23.4-71.45 12.45-110.23-8.48-30.03-24.61-54.32-48.14-74.2-1.02-0.86-1.95-1.93-3.13-2.48-9.02-4.19-12.79-12.22-16.35-20.86C81.58 99.9 69.75 72.7 58.44 45.3 56.39 40.32 55.03 34.79 54.68 29.43 53.37 9.43 40.17-2.52 19.95-1.32 13.3-0.93 6.65-0.44 0 0" class="s2"/></g><g mask="url(#mask126)"><g clip-path="url(#clipPath146)" opacity="0.5"><g mask="url(#mask154)"><g transform="matrix(489,0,0,501,273.14746,262)"><image width="1" height="1" transform="matrix(1,0,0,-1,0,1)" mask="url(#mask166)"/></g></g></g></g><g transform="translate(572.6377,259.9219)"><path d="m0 0c-21.61 1.34-43.23 2.56-64.83 4.04-25.09 1.71-50.16 3.69-75.24 5.47-22.26 1.58-44.53 3.13-66.81 4.54-12.61 0.8-22.6 5.82-28.09 17.57-1.77 3.8-2.26 8.28-2.88 12.51-1.13 7.68-1.07 15.63-3 23.08-8.04 31.12-16.57 62.11-25.14 93.09-0.73 2.66-2.59 5.35-4.64 7.26-23.91 22.23-39.83 48.7-45.34 81.32-3.31 19.61-4.9 38.98 0.41 58.43 6.01 22 13.45 43.28 28.91 60.84 1.75 1.98 2.44 5.05 3.17 7.74 7.07 26.16 23.96 44.73 45.51 59.96 33.88 23.95 72.7 32.98 112.87 38.31 2.5 0.33 5.23 1.9 7.06 3.7 10.45 10.22 22.21 17.29 36.78 20.81 17.46 4.2 33.45 0.91 49.06-5.95 10.84-4.76 19.3-12.85 26.23-22.54 1.4-1.95 3.77-3.77 6.04-4.42 24.86-7.11 49.64-14.57 72.03-27.85 23.55-13.97 44.72-30.61 59.19-54.69 7.03-11.7 11.21-24.03 13.09-37.41 0.51-3.67 1.96-7.35 3.65-10.69 17.86-35.22 23.4-71.45 12.45-110.23-8.48-30.03-24.61-54.32-48.14-74.2-1.02-0.86-1.95-1.93-3.13-2.48-9.02-4.19-12.79-12.22-16.35-20.86C81.58 99.9 69.75 72.7 58.44 45.3 56.39 40.32 55.03 34.79 54.68 29.43 53.37 9.43 40.17-2.52 19.95-1.32 13.3-0.93 6.65-0.44 0 0" fill="#fff"/></g><g transform="translate(513.5732,599.835)"><path d="m0 0c-0.71 6.36-1.18 11.97-2.09 17.52-0.17 1.01-2.02 2.29-3.25 2.47-1.73 0.26-3.79-0.01-5.35-0.77-1.23-0.6-2.79-2.35-2.72-3.49 0.33-5.44 1.16-10.84 1.9-16.9C-7.73-0.79-4.33-0.44 0 0m135.2 14.68c-3.15 5.28-6 10.28-9.14 15.08-0.52 0.79-2.66 1.38-3.5 0.96-2.89-1.43-5.55-3.36-8.6-5.29 3.67-6.01 7.06-11.55 10.58-17.33 3.87 2.39 7.07 4.36 10.66 6.58M107.11 4c-4.16 5.86-7.93 11.18-11.85 16.71-4.34-3.12-8.03-5.79-11.96-8.61 4.17-5.81 7.9-11.02 11.88-16.56 4.07 2.89 7.68 5.45 11.94 8.47m8.12-29.46c6.05-3.56 11.7-6.89 17.62-10.37 2.84 4.81 5.36 9.06 8.2 13.85-6.03 3.53-11.67 6.84-17.66 10.36-2.83-4.8-5.33-9.05-8.15-13.84m-208.51 94.93c1.25-4.77 2.31-9.22 3.66-13.59 0.23-0.73 1.83-1.67 2.56-1.5 5.75 1.32 11.44 2.89 17.54 4.49-1.16 4.64-1.97 8.85-3.37 12.86-0.36 1.03-2.74 2.19-3.92 1.95-5.17-1.03-10.24-2.56-16.47-4.2m-39.76-23.05c1.2-5.52 2.2-10.54 3.47-15.48 0.2-0.77 1.75-1.88 2.46-1.73 5.94 1.2 11.83 2.65 17.91 4.06-1.16 5.34-1.98 9.92-3.25 14.38-0.31 1.11-2.24 2.69-3.17 2.53-5.68-0.97-11.29-2.38-17.43-3.76M18.16-9.99c4.54-5.52 8.62-10.48 12.98-15.78 5.25 4.27 10.07 8.18 15.1 12.27C41.67-7.89 37.61-2.9 33.32 2.38 28.15-1.84 23.42-5.7 18.16-9.99m-168.23 19.19c5.41-4.73 10.25-8.96 15.4-13.46 4.97 5.67 9.53 10.86 14.38 16.38-5.25 4.64-10.06 8.88-15.29 13.5-4.89-5.54-9.48-10.73-14.5-16.41M76.35 66.49C73.15 60.07 70.3 54.36 67.23 48.22 75.36 44.19 82.98 40.42 90.92 36.5c3.18 6.36 6.03 12.06 9.11 18.23-8.05 4-15.57 7.73-23.68 11.76M-71.22 46.45c-3.18-6.21-6.15-12.02-9.33-18.25 9.45-4.83 18.27-9.34 27.54-14.08 2.91 5.68 5.66 10.78 8.08 16.04 0.37 0.8-0.5 2.95-1.37 3.41-8.04 4.32-16.2 8.41-24.92 12.88M31.19 42C28.97 35.29 26.93 29.11 24.74 22.52 36.06 18.76 46.6 15.18 57.22 11.89c0.82-0.25 2.86 1.25 3.3 2.34 1.67 4.17 2.74 8.57 4.36 12.75 1.07 2.77 0.22 3.81-2.42 4.65C52.32 34.88 42.25 38.31 31.19 42m-36.39 21.95c15.26-0.28 30.55 10.23 35.29 24.65 0.89 2.7 1.02 5.97 0.44 8.76-3.2 15.35-17.55 27.73-33.06 28.9-16.74 1.26-32.97-8.52-38.4-23.68-1.15-3.22-1.35-7.31-0.52-10.63 4.17-16.67 18.73-27.68 36.26-28m-219.86-127.8c0.88 29.89 10.29 54.37 29.03 75.18 1.06 1.17 2.08 2.75 2.28 4.25 3.24 23.91 17.69 40.04 36.76 52.83 27.07 18.16 57.59 26.49 89.48 30.47 8.73 1.09 15.9 1.62 20.01 12.3 4.44 11.55 15.2 18.93 27.14 22.84 20.42 6.69 42.8-1 54.44-20.33 2.92-4.85 4.02-10.76 6.4-15.99 0.8-1.75 2.77-3.73 4.55-4.16 20.99-4.99 41.33-11.73 60.52-21.66 21.56-11.16 41-24.9 54.25-45.94 6.65-10.56 9.95-22.06 10.4-34.51 0.08-2.15 1-4.51 2.19-6.35 43.26-67.33 4.95-155.94-73.78-170.11-27.86-5.01-54.03 0.21-78.09 15.21-3.06 1.91-5.3 1.91-8.6 0.47-24.31-10.59-47.99-9.2-70.63 4.8-2.97 1.84-5.08 1.89-8.14 0.45-69.31-32.56-150.19 13.52-157.66 89.75-0.4 4.14-0.44 8.31-0.54 10.48" fill="#3a3a3a"/></g><g transform="translate(425.7896,305.001)"><path d="m0 0c-9.7 0.62-18.79 1.06-27.83 1.96-0.99 0.1-2.44 2.8-2.47 4.32-0.41 20.64-0.67 41.28-0.84 61.92-0.11 13.29-0.02 26.59-0.02 40.43 5.95 0.51 12.16 1.03 19.34 1.65C-7.88 73.53-3.98 37.13 0 0" fill="#3a3a3a"/></g><g transform="translate(434.4238,419.4854)"><path d="m0 0c1.68 0.55 3.15 0.67 4.17 1.41 8.66 6.23 16.52 2.3 24.17-2.05 1.23-0.7 2.16-3.16 2.07-4.74-0.9-16.3-2.02-32.58-3.11-48.86-1.29-19.28-2.61-38.56-3.93-57.83-0.09-1.3-0.25-2.6-0.36-3.73-0.54-0.31-0.82-0.6-1.1-0.61-9.58-0.48-9.62-0.48-10.61 8.78C7.58-73.22 3.9-38.78 0.22-4.34 0.08-3.03 0.08-1.71 0 0" fill="#3a3a3a"/></g><g transform="translate(525.79,298.0918)"><path d="m0 0c-6.14 0.4-11.58 0.75-17.62 1.14 0 2.13-0.11 4.06 0.02 5.97 2.34 34.88 4.8 69.75 6.98 104.64 0.27 4.32 1.6 6.64 5.87 7.62 4.16 0.96 7.77 4.11 12.52 0.51 2.73-2.07 3.47-3.81 3.16-6.91C9.18 95.75 7.56 78.51 5.94 61.27 4.24 43.04 2.6 24.8 0.91 6.56 0.73 4.6 0.37 2.65 0 0" fill="#3a3a3a"/></g><g transform="translate(600.0664,401.6904)"><path d="M0 0C12.77 2.74 24.57 5.27 36.91 7.91 36.33 6.41 35.74 4.8 35.08 3.21 24.01-23.01 12.92-49.23 1.88-75.46c-1.55-3.68-2.84-7.46-4.32-11.17-3.08-7.71-8.05-13.62-16.76-17.48C-12.65-68.59-6.27-33.99 0 0" fill="#3a3a3a"/></g><g transform="translate(546.5488,296.9961)"><path d="m0 0c3.46 36.9 6.88 73.4 10.33 110.22 7.72-1.71 14.65-3.24 22.27-4.92C31.51 99.06 30.46 92.74 29.31 86.45 24.23 58.8 19.07 31.16 14.08 3.49 13.46 0.08 12.27-1.61 8.56-0.91 5.99-0.42 3.35-0.34 0 0" fill="#3a3a3a"/></g><g transform="translate(341.0098,428.4355)"><path d="m0 0c10.36-3.73 20.4-7.18 30.25-11.1 1.27-0.51 2.17-3.48 2.21-5.34 0.36-16.16 0.48-32.32 0.69-48.48 0.19-14.33 0.41-28.65 0.6-42.98 0.02-1.08-0.09-2.17-0.14-3.25-0.49-0.18-0.99-0.36-1.48-0.54-1.96 4.04-4.61 7.89-5.77 12.15C17.57-67.42 9.08-35.22 0.51-3.04 0.26-2.11 0.19-1.12 0 0" fill="#3a3a3a"/></g><g transform="translate(508.376,663.7842)"><path d="m0 0c-17.53 0.32-32.09 11.32-36.26 28-0.83 3.32-0.63 7.41 0.52 10.63 5.43 15.16 21.67 24.94 38.4 23.68C18.18 61.13 32.53 48.76 35.73 33.41 36.31 30.62 36.17 27.34 35.29 24.65 30.55 10.23 15.27-0.28 0 0" fill="#fff"/></g><g transform="translate(544.7666,641.835)"><path d="m0 0c11.06-3.69 21.13-7.12 31.27-10.36 2.64-0.84 3.49-1.88 2.42-4.65-1.62-4.19-2.69-8.59-4.36-12.75-0.44-1.1-2.48-2.6-3.3-2.34-10.62 3.3-21.16 6.88-32.48 10.64C-4.27-12.89-2.22-6.71 0 0" fill="#fff"/></g><g transform="translate(442.3481,646.2871)"><path d="m0 0c8.72-4.46 16.88-8.55 24.92-12.87 0.87-0.47 1.74-2.61 1.37-3.41-2.41-5.26-5.17-10.36-8.08-16.04-9.27 4.74-18.09 9.25-27.54 14.08C-6.15-12.02-3.18-6.21 0 0" fill="#fff"/></g><g transform="translate(589.9258,666.3203)"><path d="m0 0c8.11-4.03 15.63-7.76 23.68-11.76-3.09-6.17-5.94-11.87-9.11-18.23-7.94 3.93-15.56 7.7-23.69 11.72C-6.06-12.13-3.2-6.42 0 0" fill="#fff"/></g><g transform="translate(363.5083,609.0381)"><path d="M0 0C5.02 5.68 9.6 10.87 14.5 16.41 19.72 11.8 24.53 7.55 29.78 2.91 24.94-2.61 20.38-7.8 15.4-13.46 10.25-8.96 5.41-4.73 0 0" fill="#fff"/></g><g transform="translate(531.7344,589.8477)"><path d="M0 0C5.26 4.29 9.99 8.15 15.16 12.36 19.45 7.09 23.51 2.1 28.07-3.51 23.05-7.6 18.23-11.51 12.98-15.78 8.62-10.48 4.54-5.52 0 0" fill="#fff"/></g><g transform="translate(380.5259,646.2539)"><path d="m0 0c6.14 1.38 11.75 2.79 17.43 3.76 0.93 0.16 2.85-1.43 3.17-2.53 1.27-4.46 2.09-9.05 3.25-14.38-6.08-1.41-11.97-2.86-17.91-4.06-0.71-0.14-2.26 0.96-2.46 1.74C2.2-10.54 1.2-5.52 0 0" fill="#fff"/></g><g transform="translate(420.2881,669.3018)"><path d="m0 0c6.23 1.64 11.3 3.17 16.47 4.2 1.18 0.24 3.56-0.92 3.92-1.95 1.4-4.01 2.21-8.22 3.37-12.86-6.09-1.59-11.79-3.16-17.54-4.49-0.73-0.17-2.34 0.77-2.56 1.5C2.31-9.22 1.25-4.77 0 0" fill="#fff"/></g><g transform="translate(628.7988,574.3721)"><path d="M0 0C2.82 4.78 5.33 9.04 8.15 13.84 14.15 10.32 19.79 7.01 25.81 3.48 22.98-1.32 20.46-5.57 17.62-10.37 11.7-6.89 6.05-3.56 0 0" fill="#fff"/></g><g transform="translate(620.6846,603.8301)"><path d="m0 0c-4.26-3.02-7.87-5.58-11.94-8.47-3.98 5.54-7.71 10.75-11.88 16.56 3.93 2.83 7.62 5.49 11.96 8.62C-7.93 11.18-4.16 5.86 0 0" fill="#fff"/></g><g transform="translate(648.7695,614.5107)"><path d="m0 0c-3.59-2.22-6.79-4.19-10.66-6.58-3.53 5.77-6.91 11.32-10.58 17.33 3.06 1.93 5.71 3.86 8.6 5.29 0.85 0.42 2.98-0.16 3.5-0.96C-6 10.28-3.15 5.28 0 0" fill="#fff"/></g><g transform="translate(513.5732,599.835)"><path d="m0 0c-4.33-0.44-7.73-0.79-11.52-1.18-0.73 6.05-1.57 11.46-1.9 16.9-0.07 1.15 1.49 2.89 2.72 3.49 1.57 0.76 3.62 1.03 5.35 0.77 1.22-0.18 3.08-1.45 3.25-2.46C-1.18 11.97-0.71 6.36 0 0" fill="#fff"/></g></g></g></g></svg>

