<svg xmlns="http://www.w3.org/2000/svg" version="1.1" x="0" y="0" viewBox="0 421.5 612 58.5" enable-background="new 0 421.5 612 58.5" xml:space="preserve"><g display="none"><rect y="402.6" display="inline" fill="#3A3A3A" width="612" height="92.1"/></g><path fill="none" d="M0.7 421.1v11.6c1.2 0.3 2.2 0.9 3.2 1.5 0.8 0.6 1.6 0.9 2.6 0.8 1.7-0.1 3.3 0.3 5 0.4 1.6 0.2 3.1 0.2 4.6 0.2 1.1-1 2.4-1.6 3.4-2.6 0.6-0.6 1.5-0.6 2.3-0.3 0.9 0.3 1.7 0.6 2.4 0.8 1.2-0.2 2-0.8 2.8-1.4 1.5-1.3 3.4-1.7 5.3-2 0.2 0.8 0.2 1.5 0.6 2.1 0.5-0.2 0.9-0.4 1.3-0.6 0.9-0.4 1.7-0.9 2.2-1.8 0.9-1.5 2.3-2.5 3.3-3.9 0.1-0.1 0.3-0.1 0.6-0.2 0.5 1.3 1.5 2.1 2.3 3.2 0.2 0.2 0.3 0.6 0.3 0.9 0.1 0.9 0.2 1.8 0.3 2.6 1 1.5 2.5 1.3 3.9 1.4 1.2 0.8 2.6 1.5 3.4 2.8 0.8 1.3 1.9 2.5 2.4 4 0.2 0.8 0.7 1.4 1.2 2.3 0.7 0.2 1.2 0.7 2 1 0.9-0.9 1.9-1.7 2.7-2.7 1.4-1.6 3.2-2.7 5.4-3 1.2-1.8 2.4-3.6 4.1-5.1 0.8 0.2 0.9 0.9 1.1 1.6 0.3 0.7 0.3 1.5 0.9 2.1 0.8 0.8 1.6 1.6 2.2 2.4 0.6-0.3 0.5-1.2 1.2-1.4 1.9 1.1 2.5 3.2 4.1 4.6 0.2 0.9 0.7 1.8 1.7 2.3 0.4 0.2 0.7 0.6 1 0.9 0.6 0.6 1.2 1.1 2.1 1.2 0.6-0.2 1.3-0.4 2-0.6 4.4 2.4 9.1 4.2 13.6 6.4 0.7-0.3 1.3-0.6 1.9-0.8s1-0.8 1.7-0.9c2.4 0.9 3.2 0.7 4.6-1.4 0.9-1.4 2-2.7 3.2-3.8 0.3-1.1 0.8-2.2 1.4-3.2 0.9-1.5 2.5-2.2 4.3-2.3 1.2-0.1 2-0.6 2.6-1.6 0.2-0.3 0.3-0.5 0.5-0.8 1-0.5 1.9-1 2.9-1.4 1.6-0.8 2.9-1.8 3.5-3.6 0.1-0.4 0.4-0.7 0.6-1.1 0.7-0.3 1.4-0.7 2.1-1 0.7 0.2 1.4 0.4 2.1 0.2 0.6-0.4 1.1-0.9 1.3-1.7 0.4-2.1 2-3.3 3.3-4.6 0.6-0.1 0.9 0 1.3 0.1 0.5 0.2 1 0.2 1.5-0.1 1.4-0.8 2.9-1.5 3.9-2.8 0.2-0.1 0.3-0.1 0.4-0.1 0.4 0.9 0.8 1.9 1.2 2.9 1.4 0.8 2.4 2.1 3.6 3.2 1-0.7 0-1.8 0.5-2.6 0.4 0 0.5 0.2 0.5 0.5 0.6 1.9 2 3.4 2.9 5.2 0.2 0.4 0.6 0.7 1 0.9 0.8 0.4 1.5 0.8 2.3 1.3 0.5 0.3 1.1 0.3 1.6 0.3 0.7-0.1 1.3 0.1 2 0.5 0.2 0.3 0.5 0.7 0.9 1.2 0.6-0.1 1.3-0.2 2-0.1 0.6 0.3 0.7 1.3 1.8 1.3 0.6-0.1 0.9-1 1.9-1.4 0.9 0 2.1 0 3.3 0 0.7-0.6 1.3-1.1 2.2-1.3 1.1-0.3 1.9-0.2 2.6 0.6 1 1 2.3 1.7 3.5 2.4 1.5 0.9 3.1 1.2 4.8 1.1 1.6-0.2 3 0.2 4.4 0.9 0.4 0.2 0.9 0.3 1.3 0.4 1.2 0.2 2.2 0.6 2.9 1.7 0.5 0.9 1.5 1.3 2.6 1.3 1.1 0 2.1 0.1 3.2-0.4 1.6 1.4 2.1 3.4 2.9 5.3 1.7 1.4 2.7 3.6 4.5 5.1 0.1-0.3 0.2-0.5 0.3-0.7 0.1-0.2 0.1-0.5 0.5-0.7 0.6 0.7 1.3 1.4 1.9 2.2 0.3 0.5 0.7 0.9 1.1 1.3 0.6 0.6 1 1.3 1.3 2 0.5 1.2 0.9 2.4 1.8 3.2 0.6 0 1 0.1 1.5 0.1 1.6 1.3 3.4 2.5 3.8 4.8 1.3-0.1 2.5-0.4 3.6-0.7 2-0.6 4.5 0.5 5.4 2.4 0.1 0.1 0.2 0.2 0.2 0.4 0.7-0.2 1.4-0.3 2.1-0.5 0.2 0.1 0.3 0.2 0.5 0.3 1.3 0.9 2.6 1 4 0.3 1.4-0.7 2.9-1.3 4.4-1.6 3-0.7 1.9-0.7 5.1 0.1 0.1 0 0.3-0.1 0.5-0.2 1.6-0.7 3.2-1.1 4.9-1.6 1.6-0.4 3-1.2 4.5-1.8 0.4-0.2 0.7-0.4 1.3-0.4 1.6 1.5 3.2 3.1 4.8 4.4 1 0.4 2 0.2 2.9 0.1 0.8 1 1 2.3 2.2 3 0.9 0.3 2.1 0.6 3.1 1.3 0.5 0.3 0.9 0.4 1.5 0.3 0.9-0.1 1.8 0.2 2.6 0.6 1.6 0.9 3.4 1.1 5.1 1.4 0.8 0.2 1.6 0.4 2.4 0.4 0.3 0.4 0.6 0.9 0.9 1.3 0.9 0.2 1.6 1.1 2.6 1.6 0.9-0.3 1.7-0.1 2.5 0.5 0.7 0.4 1.4 0.7 2.1 1.1 0.6 0.3 1.1 0.4 1.8 0.3 0.8-0.5 1.3-1.3 2.1-2 0.7-0.2 1.4-0.1 2.2-0.4 0.8-0.4 1.5-0.8 2.1-1.4 0.4-0.5 0.9-0.9 1.6-1.2 0.8-0.4 1.6-1 2.2-1.6 0.9-0.9 1.9-1.1 3.1-0.8 1.6 0.4 3.1 0.2 4.6-0.7 1-0.6 1.8-1.1 2.1-2.1 0.9-0.6 1.7-1 2.5-1.6 0.9-0.6 1.9-0.9 2.9-0.5 0.8 0.3 1.5 0.1 2.2-0.3 0.4-0.4 0.6-0.9 0.6-1.5 0.1-2.2 1.2-4 1.9-6 0-0.1 0.2-0.1 0.3-0.1 0.5 0.3 0.1 0.9 0.3 1.3 0.2 0.4 0.6 0.7 1 1 0.5 0 0.9-0.2 1.4-0.5 0.7-2.4 3.1-3.5 4.2-5.6 0.3 0 0.6-0.1 0.7 0 1.2 0.7 2.6 0.9 3.9 1.2 0.3 0.1 0.6 0.2 0.9 0.3 1 0.7 2 1.2 3.2 1.3 0.8 0.1 1.4 0.7 2.3 0.9 2.6 0.4 5.1 0.6 7.6-0.6 0.1-0.1 0.3-0.1 0.6-0.1 1.2 0.6 2.3 1.7 3.9 1.2 0.3-0.1 0.6-0.4 0.9-0.9 0-0.9 0-1.9 0-3 0-0.9 0.2-1.8 0.6-2.7 0.8-1.7 1.4-3.4 1.9-5.1 0.2-0.4 0.2-0.9 0.4-1.3 0.8-0.8 1.5-1.6 2.3-2.4 1.1 0.6 1.6 1.9 3 2.2 0.7-0.1 1.4-0.3 1.9-0.9 0.9-0.2 1.8-0.1 2.7 0.3 0.6 0.3 1.3 0.4 1.9 0.1 1.2 0.9 2.6 0.9 3.9 1.5 1.7 0.8 3.4 1.8 5 2.9 1.4 0.9 1.4 1 3.1 1 1.5 1 3.1 1.3 4.9 0.7 0.7-0.2 1.4-0.1 2.1-0.1 0.8 0 1.6 0 2.3-0.5 0.6 0.2 0.8 0.7 1.3 1.1 1 0.1 2.3 0 3.2 0.6 0.9 0 1.5-0.5 2.1-0.8 1.5-0.9 2.9-0.9 4.5 0 1.2 0.7 2.6 1.3 3.9 1.7 0.6 0.2 1.3 0.4 1.9 0.4 0.6 0 1.3 0.3 1.9 0.6 0.5 0.2 0.9 0.5 1.4 0.7 1.4-0.3 2.7-1.7 4.3-0.5 0.3 0.5 0.6 1.1 0.9 1.7 1.1 0.9 2.4 1.1 3.6 0.6 1.8 0.2 3.4 0.7 5 1.3 2 0.7 2.2 0.7 3.9-0.7 1.3 0.1 2.6 0.8 3.9 0.6 1.6-0.5 2.9-1.3 3.7-2.8 1.2 0.5 2.1 1.3 3.1 1.2 3.5-1.7 7-3.4 10.6-5 0.7 0.4 1.5 0.9 2.5 0.8 0.7-0.7 1.7-1.2 2.8-1.4 0.6-0.1 1.2-0.2 1.8 0.1 1.9 0.7 3.8 0.7 5.5-0.6 0.1-1.5-0.6-3-0.9-4.6 1-1.6 0.2-3.4 0.1-5.1 -0.1-0.9-0.2-1.7 0.2-2.5 0.6-1.5 1.2-3 2-4.4 0.2 0 0.3-0.1 0.3 0 1 1.1 2.2 1.5 3.7 1.5 1 0 2.1 0.4 3.2 0.8 0.6-0.1 1.3-0.3 2-0.8 0.4-0.6 0.8-1.1 1.2-1.7 0.6-0.3 1.3-0.2 1.8-0.7 0.9-1.1 1.1-2.5 1.8-3.6 0.8-0.3 1.6-0.2 2.5-0.2 1.2 1.2 3.2 1.1 4.4 2.4 0.9 0.3 1.3-0.3 1.5-0.4 0.7-0.2 1 0 1.3 0.2 1.3 0.5 2.7 0.9 4 1.3 0.7 0.2 1.5 0.4 2.1 0.9 0.4 0.4 0.9 0.3 1.5 0.1 0.4-0.5 0.8-1.1 1.2-1.6 1.2-0.5 2.1 0.6 2.9 0.5 0.8-0.2 1-0.7 1.6-0.9 0.9 0 1.8-0.2 2.7 0.2 0.2 0.1 0.6 0.1 0.9 0.1 1.2-0.1 2.2 0 3 0.9 0.9-0.2 1.3-0.8 1.8-1.1 0.6-0.2 1 0.3 1.4 0.2 0.8-0.3 0.9-1.1 1.6-1.5 1.3 0.6 2.7 1.3 4 2 1.4 0.8 3 1.3 4.5 1.8 1.1 0.4 2.2 0.8 3.1 1.6 1.3 1.1 3.2 0.9 4.6-0.3 1-0.9 1.8-2 2.5-3.1 0.6-0.9 1.2-1.7 1.7-2.5 0.3-0.5 0.7-0.9 1.2-1.3 0.5 0 1.1-0.1 1.7-0.1 0.8-0.5 1.2-1.2 1.6-1.9 0.8-0.6 1.7-0.8 2.7-1.2 1.5 0.7 3.1 1.2 4.5 2.1 0.6 0.3 1.1 0.7 1.5 1.3 0.5 0.8 1.3 1.2 2.6 1.8 0.6-0.1 1-0.5 1.4-0.8 0.7-0.2 1.3 0.1 1.9 0.4 1.7 0.8 3.3 1.6 4.9 2.3 0.6-0.2 0.8-0.7 1.1-1.1 0.3-0.1 0.7-0.2 1-0.3 1.4 0.3 2.2 1.9 3.9 1.7 1-1.6 2.9-1.8 4.5-2.3 1.6-0.5 3.4-0.3 4.7 1.1 0.1 0.2 0.3 0.2 0.6 0.4 1.1-1 2.7-1.3 3.7-2.5 1.7 0.7 2.8 0.1 3.8-1.3 1.2-1.5 2.5-2.9 3.6-4.6 1.3 1.2 2.6 2.2 3.9 3 0.8 0.2 1.5 0 2.1-0.2 1.2 0.3 2.2 0.7 3.1 1.4 0.4 0.3 0.9 0.5 1.3 0.7 1.4 0.5 2.6 1.2 3.7 2.1 0.4 0.3 0.9 0.5 1.3 0.7 1.8 0.6 3.6 1.4 4.8 3.1 0.9-0.3 1.6-0.5 2.5-0.2 0.6 1.1 1.8 1.9 2.6 3.1 0.6 0.3 1.3 0.5 2 0.6 1.1 0.8 1.5 1.9 2.2 2.9 0.7 0.7 1.9 0.7 2.5 1.5 1.3 0.1 2.6-0.2 3.5 0.9 0.6 0 1.2 0.1 1.7 0.1 0 2.1 0 4.3 0 6.4 -0.1 0-0.1 0-0.2-0.1 0 10.9 0 21.8 0 32.8h0.6v-59.4H0.7z"/><path fill="none" d="M221 469.5c-0.1 0-0.2 0-0.3 0C220.8 469.5 220.9 469.5 221 469.5z"/><path fill="#FF7F00" d="M609.7 446.2c-0.8-0.8-1.8-1.3-2.7-2 -1.1-0.8-1.9-2-3.2-2.6 -1.1-0.6-2.1-1.3-3.4-1.1 -0.8-0.5-1.5-1-2.4-1.4 -1.2-0.5-2-1.6-3-2.3 -0.9-0.6-1.8-1.1-2.9-1.2 -0.3 0-0.7-0.1-1-0.2 -0.7-0.1-1.3-0.2-1.9 0.2 -0.8 0.5-1.6 0.3-2.5 0.1 -1.2-0.3-2.3-0.7-3.2-1.5 -0.7-0.2-1.3-0.1-1.9-0.3 -0.9-0.3-1.8 0.1-2.7 0.4 -0.9 0.3-1.8 0.4-2.8 0.2 -1.4-0.4-2.8-0.6-4.3-1.1 -0.9-0.4-1.9-0.3-2.8 0.1 -1.1 0.4-2.1 0.9-3.8 0.8 -1.9-0.7-4.3-1.1-6.9-1 -0.7 0-1.4-0.3-2.1-0.3 -1.4-0.2-2.8 0-4.2 0.6 -1.6 0.6-3.2 1.2-4.7 1.8 -0.5 0.2-0.9 0.5-1.4 0.8 -1.5-1.1-3.1-2.1-4.1-3.8 -0.6-0.9-1.4-1.4-2.4-1.8 -0.9-0.3-1.7-0.7-2.3-1.4 -0.6-0.8-1.7-0.9-2.6-0.9 -0.9 0-1.7 0.1-2.5 0.2 -1.3 0-2.5 0.2-3.8 0.4 -1.8 1.1-3.3 2.6-4.7 4.2 -0.3 0.3-0.5 0.7-0.9 0.9 -1.2 0.6-1.8 1.9-3 2.5 -0.5 0.2-0.8 0.7-1.1 1.2 -0.4 0.8-1 1.4-1.8 1.7 -0.7 0.2-1.3-0.2-1.9-0.3 -2.1-0.6-4.2-0.7-6.3-1.1 -0.8-0.2-1.5-0.3-2.2-0.7 -1.9-0.9-3.9-1.2-5.9-1.2 -0.9 0-1.8 0.1-2.7 0 -1.6-0.3-3.1 0.5-4.6 0.7 -0.8 0.1-1.6 0.2-2.2 0.5 -0.9 0-1.3-0.5-1.9-0.8 -1.4-0.3-2.6 0-3.8 0.8 -0.9 0.6-1.9 1-3 0.2 -0.3-0.2-0.8-0.2-1.2-0.2 -1.2-0.1-2.4 0.1-3.6-0.2 -0.9-0.2-1.7 0.2-2.4 0.6 -1.3 0.8-2.7 0.9-4.2 0.9 -0.2 0-0.3 0-0.5 0 -1.1 0.3-2.1 0.2-3.2-0.1 -0.7-0.2-1.5-0.4-2.3-0.6 -1.2 0.3-2.4 0.7-3.5 0.6 -0.6 0.2-0.6 0.7-0.8 1 -0.4 0.7-0.6 1.4-1 2.1 -0.9 1.3-1.4 2.7-1.2 4.2 -0.3 0.4-0.6 0.8-0.9 1.2 0.1 0.9-0.4 1.7-0.3 2.6 -0.5 0.8-1.3 0.8-2 1.3 -0.2 0.9-0.8 1.3-1.8 1.6 -1.2 0.3-2.4 0.6-3.5 1.1 -0.9-0.1-1.6-0.4-2.4-0.8 -1.4 0.8-2.9 0.6-4.4 0.3 -0.7-0.1-1.4-0.1-2.1 0.2 -1.7 0.9-3.5 1.6-5.3 2.3 -1.2 0.4-2.4 0.9-3.5 1.8 -0.7 0.6-1.7 0.8-2.6 1.1 -1.8 0.6-3.7 0.7-5.5 1.1 -1.3 0.3-2.4 0.7-3.5 1.5 -0.3 0.2-0.6 0.3-0.9 0.4 -0.7-0.3-1.4-0.6-2-1.1 -0.7-0.6-1.7-0.6-2.5-1 -0.8-0.3-1.6-0.6-2.4-0.9 -0.3-0.1-0.6-0.3-0.9-0.3 -1.4 0.1-2.8-0.4-4.3-0.4 -0.5-0.3-1-0.6-1.6-0.9 -1.1 0.5-2.1 0-3.2-0.2 -2.6 0.6-5.1 0.6-7.6-0.4 -1.1-0.4-2.2-0.3-3.3-0.3 -0.9 0-1.6-0.1-2.4-0.4 -2.4-1.1-4.9-1.6-7.6-1.3 -0.7 0.1-1.4 0-2.1-0.4 -0.7-0.4-1.6-0.2-2.2-0.6 -0.8 0.1-1.3 0.5-1.9 0.8 -0.8 0.4-1.6 0.8-2.5 1.1 -0.9 0.3-1.8 0.3-2.7-0.1 -0.4-0.2-0.8-0.2-1.2-0.2 -1.4 0-2.7-0.2-4.1-0.6 -0.7-0.2-1.4-0.4-2.1-0.8 -1.5-0.8-3.1-1-4.7-0.8 -0.6 0.1-1.2 0.4-1.6 0.9 -1.2 1.7-3.1 2.5-4.8 3.7 -0.6 0.4-1.2 0.8-1.8 1 -1.1 1.8-3.1 2.7-4.1 4.4 -1.9 0.4-3.6 0.4-5.4-0.3 -0.8-0.3-1.7-0.5-2.7-0.5 -0.6 0-1.2-0.1-1.8-0.4 -1.5-0.7-3-0.7-4.7-0.4 -1.3-0.1-2.6-0.7-3.7-1.7 -0.6-0.5-1.2-0.6-2-0.7 -1.8-0.2-3.6 0.1-5.5 0.1 -0.3 0.8-0.5 1.5-0.8 2.2 -0.5 0.4-1.1 0.6-1.7 0.8 -0.6 0.2-1.1 0.3-1.6 0.4 -0.8 0.6-1.4 1.3-1.7 2.3 -0.2 0.7-0.8 1.2-1.4 1.5 -1.3 0.6-2.2 1.6-3 2.8 -0.3 0.1-0.6 0.2-1 0.4 -0.5 0.2-1.1 0.3-1.5 0.7 -1.5 1.6-3.7 2.1-5.4 3.3 -0.6 0.4-1.4 0.2-2.2 0.4 -2.4 2.5-5.4 3.4-8.8 2.9 -1.8 1-3.4 1.9-5 2.8 -1.4 0.8-2.8 0.8-4.3 0.2 -1-0.5-2-0.6-3.1-0.8 -0.8-0.2-1.6-0.4-2.2-0.9 -0.5-0.3-1-0.6-1.5-1 -1.7-1.4-3.5-2.1-5.8-1.7 -0.2 0-0.3 0-0.5 0 -0.2 0-0.4-0.1-0.6-0.1 -2.2-0.8-4.6-0.9-6.4-2.3 -1.3-0.2-2.3 0.4-3.5 0.3 -0.4-0.3-0.5-0.9-0.8-1.3 -0.3-0.6-0.6-1-1.3-1.3 -2.8-1.3-5.6-1.7-8.7-1.5 -1.7 0.1-3.5 0.2-5.2 0.3 -0.5 0-1.1-0.1-1.6-0.3 -0.5-0.2-1-0.2-1.5-0.3 -0.9-1.3-1.9-2.4-4.2-2.1 -0.5 0.2-1.5 0.4-2.5 0.3 -0.5 0-0.9 0-1.3 0.2 -2.1 1-4.2 1.7-6.2 2.9 -0.9 0.6-1.9 0.7-2.9 0.2 -0.5-0.2-1-0.3-1.5-0.4 -0.1 0-0.2 0-0.3 0 -0.9-0.1-1.9 0.1-2.9 0.3 -1.2-0.6-2.2-1.7-3.4-2.4 -1.4-0.9-2.4-2-2.7-3.7 -0.2-1-1-1.7-2.1-2 -1.5-0.4-2.5-1.2-3.1-2.6 -0.3-0.7-0.8-1.3-1.5-1.7 -2.9-1.8-5.9-3.2-9.3-3.7 -1.3-0.2-2.6-0.6-3.9-0.6 -0.8-0.5-1.3-1.2-1.6-2 -0.2-0.6-0.6-1.2-1.1-1.6 -2.2-1.5-3-3.6-3.1-6.1 0-0.2 0-0.4-0.1-0.6 0-0.1 0-0.1-0.1-0.4 -0.4-0.3-0.9-0.8-1.5-1.2 -2.5-0.8-5.2-1.4-8-1.2 -1.8 0.1-3.6 0.3-5.3 1.2 -0.6 0.3-1.2 0.5-1.9 0.2 -1.7-0.9-3.5-0.9-5.3-0.3 -1.4 0.4-2.9 0.6-4.2 1.3 -0.6 0.3-1.2 0-1.8 0.5 -1.3-0.9-2.8-1.4-4.1-2 -1.7-0.7-3.4-0.6-5 0.1 -0.4 0.2-0.9 0.3-1.3 0.5 -0.6 0.2-1.3 0.3-2 0 -1.6-0.7-3.4-0.9-5-1 -1.3-0.1-2.3-0.7-3.5-0.9 -0.3-0.1-0.7-0.2-1-0.2 -1.2 0.2-2.2-0.3-3.2-0.7 -2.1-0.9-4.1-0.7-6.2 0.1 -2.5 0.9-4.9 2.1-7.2 3.3 -0.8 0.4-1.6 0.6-2.5 0.7 -1.8 0.2-2.8 1.2-2.9 2.9 0 0.5 0 0.9 0 1.3 -0.6 0.5-1.3 0.8-2 0.9 -2 0.4-3.5 1.6-4.6 3.2 -1.1 1.5-2.1 3.2-3.8 4.1 -1.8 0.9-3.5 1.9-5.4 2.5 -0.3 0.1-0.6 0.2-0.9 0.3 -1 0.5-2.1 0.5-3.1-0.1 -1.3-0.7-2.6-1.3-4.2-1.2 -0.5 0-1.1-0.3-1.7-0.4 -1.8 0.3-3.3-0.2-4.3-1.9 -0.9-1.5-2.1-2.5-4-2.7 -0.9 0.6-2.1-0.4-3.1 0.2 -1.4-0.6-1.4-2.3-2.7-3 -0.9-0.2-2 0.1-3.1-0.1 -0.7-0.9-1.4-1.9-2.2-2.9 -0.1-0.1-0.1-0.3-0.2-0.4 -1-0.9-1.7-2-2-3.3 -0.8-0.2-1.4-0.1-2.1 0.3 -1.8 0.9-3.5 1.8-5.4 2.4 -1.2 0.4-2.3 1-3.4 1.7 -0.5 0.1-0.9 0.2-1.3-0.2 -0.7-0.6-1.6-0.7-2.4-0.9 -1.2-0.2-2.3-0.7-3.4-1.3 -1-0.5-2-0.6-3.1-0.1 -1.3 0.6-2.8 0.8-4.3 1.2 -0.3 0.1-0.7 0.1-1.1 0 -2-0.5-4-1.1-5.8-2.1 -0.7-0.4-1.4-0.6-2.2-0.6 -1.3 0-2.7 0-4 0 -1.8 0-3.5-0.2-5.3-0.6 -0.9-0.2-1.7 0-2.5 0.6 -1-0.6-1.3-1.7-2.1-2.4 -2.4-0.3-4.7 1.1-7.5 0.3 -0.9-0.6-2.2-0.5-3.5 0 -1.1 0.4-2.2 0.8-3.3 1.2 -0.8 0.3-1.6 0.4-2.4-0.1 -0.3-0.1-0.7-0.3-1.1-0.4v39.1H612c0-10.9 0-21.8 0-32.8C611.1 447.4 610.4 446.9 609.7 446.2z"/><path fill="#FFFFFF" d="M4.1 441.8c1.1-0.4 2.2-0.8 3.3-1.2 1.4-0.5 2.7-0.6 3.5 0 2.8 0.8 5.1-0.6 7.5-0.3 0.9 0.7 1.1 1.8 2.1 2.4 0.8-0.5 1.6-0.7 2.5-0.6 1.7 0.4 3.5 0.6 5.3 0.6 1.3 0 2.7 0 4 0 0.8 0 1.5 0.2 2.2 0.6 1.8 1 3.8 1.6 5.8 2.1 0.3 0.1 0.7 0.1 1.1 0 1.4-0.4 2.9-0.5 4.3-1.2 1.1-0.5 2.1-0.4 3.1 0.1 1.1 0.5 2.2 1 3.4 1.3 0.8 0.2 1.7 0.3 2.4 0.9 0.4 0.3 0.9 0.2 1.3 0.2 1-0.7 2.2-1.3 3.4-1.7 1.9-0.6 3.6-1.6 5.4-2.4 0.7-0.3 1.3-0.4 2.1-0.3 0.3 1.3 1 2.4 2 3.3 0.1 0.1 0.1 0.3 0.2 0.4 0.7 1 1.5 1.9 2.2 2.9 1.1 0.2 2.1-0.1 3.1 0.1 1.3 0.7 1.3 2.4 2.7 3 1-0.6 2.2 0.4 3.1-0.2 2 0.2 3.2 1.2 4 2.7 0.9 1.7 2.5 2.3 4.3 1.9 0.6 0.2 1.2 0.5 1.7 0.4 1.6-0.1 2.9 0.5 4.2 1.2 1 0.5 2.1 0.6 3.1 0.1 0.3-0.1 0.6-0.2 0.9-0.3 1.9-0.6 3.6-1.6 5.4-2.5 1.7-0.9 2.7-2.5 3.8-4.1 1.2-1.6 2.6-2.8 4.6-3.2 0.7-0.2 1.3-0.4 2-0.9 0-0.4 0-0.9 0-1.3 0.1-1.8 1.1-2.7 2.9-2.9 0.9-0.1 1.7-0.3 2.5-0.7 2.4-1.2 4.7-2.4 7.2-3.3 2.1-0.8 4.1-0.9 6.2-0.1 1 0.4 2.1 0.9 3.2 0.7 0.3 0 0.7 0.1 1 0.2 1.2 0.2 2.3 0.8 3.5 0.9 1.7 0.1 3.4 0.3 5 1 0.6 0.2 1.3 0.2 2 0 0.4-0.2 0.9-0.3 1.3-0.5 1.7-0.7 3.3-0.9 5-0.1 1.4 0.6 2.8 1.1 4.1 2 0.6-0.4 1.2-0.2 1.8-0.5 1.3-0.7 2.8-0.9 4.2-1.3 1.8-0.5 3.6-0.6 5.3 0.3 0.7 0.3 1.3 0.2 1.9-0.2 1.7-0.9 3.5-1.1 5.3-1.2 2.8-0.2 5.4 0.4 8 1.2 0.6 0.5 1.1 0.9 1.5 1.2 0.1 0.3 0.1 0.3 0.1 0.4 0 0.2 0.1 0.4 0.1 0.6 0.2 2.5 0.9 4.7 3.1 6.1 0.6 0.4 0.9 1 1.1 1.6 0.3 0.9 0.8 1.5 1.6 2 1.3 0 2.6 0.4 3.9 0.6 3.4 0.5 6.4 1.9 9.3 3.7 0.7 0.4 1.2 1 1.5 1.7 0.6 1.4 1.6 2.3 3.1 2.6 1.1 0.3 1.9 0.9 2.1 2 0.3 1.7 1.3 2.8 2.7 3.7 1.2 0.8 2.2 1.8 3.4 2.4 1-0.2 2-0.3 2.9-0.3 0.1 0 0.2 0 0.3 0 0.5 0.1 1 0.2 1.5 0.4 1 0.4 2 0.3 2.9-0.2 2-1.2 4.1-1.9 6.2-2.9 0.5-0.2 0.9-0.3 1.3-0.2 1 0.1 2-0.1 2.5-0.3 2.2-0.2 3.3 0.8 4.2 2.1 0.6 0.1 1 0.1 1.5 0.3 0.5 0.2 1.1 0.3 1.6 0.3 1.7-0.1 3.5-0.2 5.2-0.3 3-0.2 5.9 0.3 8.7 1.5 0.6 0.3 0.9 0.7 1.3 1.3 0.2 0.5 0.3 1.1 0.8 1.3 1.2 0.1 2.3-0.6 3.5-0.3 1.8 1.4 4.3 1.5 6.4 2.3 0.2 0.1 0.4 0.1 0.6 0.1 0.2 0 0.3 0 0.5 0 2.2-0.4 4.1 0.4 5.8 1.7 0.5 0.4 1 0.7 1.5 1 0.7 0.5 1.4 0.8 2.2 0.9 1 0.2 2.1 0.4 3.1 0.8 1.4 0.6 2.9 0.6 4.3-0.2 1.7-0.9 3.3-1.8 5-2.8 3.4 0.5 6.4-0.4 8.8-2.9 0.8-0.2 1.6 0.1 2.2-0.4 1.7-1.2 3.9-1.7 5.4-3.3 0.4-0.4 1-0.5 1.5-0.7 0.3-0.1 0.7-0.2 1-0.4 0.8-1.2 1.7-2.2 3-2.8 0.6-0.3 1.3-0.8 1.4-1.5 0.3-1 0.9-1.7 1.7-2.3 0.5-0.1 1-0.2 1.6-0.4 0.6-0.2 1.1-0.4 1.7-0.8 0.3-0.7 0.5-1.4 0.8-2.2 1.9 0 3.6-0.3 5.5-0.1 0.7 0.1 1.4 0.2 2 0.7 1.1 0.9 2.4 1.5 3.7 1.7 1.7-0.3 3.2-0.4 4.7 0.4 0.6 0.3 1.1 0.4 1.8 0.4 0.9 0 1.9 0.2 2.7 0.5 1.7 0.7 3.5 0.7 5.4 0.3 1-1.7 3-2.6 4.1-4.4 0.6-0.2 1.2-0.6 1.8-1 1.7-1.1 3.6-1.9 4.8-3.7 0.4-0.5 0.9-0.8 1.6-0.9 1.7-0.2 3.3 0 4.7 0.8 0.7 0.4 1.4 0.6 2.1 0.8 1.3 0.4 2.7 0.6 4.1 0.6 0.4 0 0.8 0.1 1.2 0.2 0.9 0.4 1.7 0.3 2.7 0.1 0.9-0.3 1.7-0.7 2.5-1.1 0.6-0.3 1.1-0.7 1.9-0.8 0.6 0.3 1.5 0.1 2.2 0.6 0.7 0.4 1.4 0.4 2.1 0.4 2.6-0.2 5.1 0.2 7.6 1.3 0.7 0.3 1.5 0.4 2.4 0.4 1.1 0 2.2-0.1 3.3 0.3 2.5 1 5 1 7.6 0.4 1 0.2 2.1 0.7 3.2 0.2 0.6 0.3 1.1 0.6 1.6 0.9 1.5 0 2.8 0.5 4.3 0.4 0.3 0 0.6 0.2 0.9 0.3 0.8 0.4 1.6 0.6 2.4 0.9 0.8 0.4 1.8 0.4 2.5 1 0.6 0.5 1.3 0.8 2 1.1 0.3-0.1 0.7-0.2 0.9-0.4 1-0.8 2.2-1.2 3.5-1.5 1.8-0.4 3.7-0.5 5.5-1.1 0.9-0.3 1.9-0.6 2.6-1.1 1-0.9 2.3-1.4 3.5-1.8 1.8-0.6 3.6-1.3 5.3-2.3 0.6-0.3 1.3-0.4 2.1-0.2 1.5 0.2 3 0.5 4.4-0.3 0.8 0.4 1.6 0.7 2.4 0.8 1.1-0.4 2.3-0.7 3.5-1.1 1-0.3 1.7-0.7 1.8-1.6 0.7-0.5 1.5-0.6 2-1.3 -0.2-0.8 0.3-1.7 0.3-2.6 0.3-0.4 0.6-0.7 0.9-1.2 -0.3-1.5 0.3-2.9 1.2-4.2 0.4-0.6 0.7-1.4 1-2.1 0.2-0.4 0.2-0.8 0.8-1 1.2 0.1 2.4-0.3 3.5-0.6 0.8 0.2 1.5 0.4 2.3 0.6 1 0.3 2.1 0.5 3.2 0.1 0.2-0.1 0.3 0 0.5 0 1.5 0 2.9-0.2 4.2-0.9 0.7-0.4 1.6-0.9 2.4-0.6 1.2 0.3 2.4 0.2 3.6 0.2 0.4 0 0.9 0 1.2 0.2 1 0.8 2.1 0.4 3-0.2 1.1-0.9 2.4-1.1 3.8-0.8 0.5 0.3 1 0.8 1.9 0.8 0.6-0.3 1.4-0.4 2.2-0.5 1.5-0.3 3-1 4.6-0.7 0.9 0.2 1.8 0 2.7 0 2.1 0 4 0.3 5.9 1.2 0.7 0.3 1.4 0.5 2.2 0.7 2.1 0.4 4.2 0.5 6.3 1.1 0.6 0.2 1.3 0.5 1.9 0.3 0.8-0.4 1.4-1 1.8-1.7 0.3-0.5 0.6-1 1.1-1.2 1.2-0.6 1.9-1.9 3-2.5 0.3-0.2 0.6-0.6 0.9-0.9 1.4-1.6 2.9-3.1 4.7-4.2 1.3-0.3 2.5-0.4 3.8-0.4 0.8 0 1.7-0.2 2.5-0.2 1 0.1 2 0.1 2.6 0.9 0.6 0.8 1.4 1.1 2.3 1.4 1 0.3 1.9 0.8 2.4 1.8 1 1.7 2.6 2.6 4.1 3.8 0.5-0.3 0.9-0.6 1.4-0.8 1.5-0.6 3.1-1.1 4.7-1.8 1.3-0.6 2.7-0.7 4.2-0.6 0.7 0.1 1.4 0.4 2.1 0.3 2.5-0.1 4.9 0.3 6.9 1 1.7 0.1 2.7-0.4 3.8-0.8 0.9-0.3 2-0.4 2.8-0.1 1.4 0.6 2.8 0.8 4.3 1.1 1 0.2 1.9 0.1 2.8-0.2 0.9-0.3 1.7-0.7 2.7-0.4 0.6 0.2 1.2 0.1 1.9 0.3 0.9 0.8 2 1.2 3.2 1.5 0.9 0.2 1.7 0.4 2.5-0.1 0.6-0.4 1.3-0.3 1.9-0.2 0.3 0.1 0.7 0.2 1 0.2 1.1 0.1 2 0.6 2.9 1.2 1 0.7 1.8 1.8 3 2.3 0.9 0.4 1.6 0.9 2.4 1.4 1.3-0.2 2.3 0.6 3.4 1.1 1.3 0.6 2.1 1.8 3.2 2.6 0.9 0.7 1.9 1.2 2.7 2 0.7 0.7 1.4 1.2 2.3 1.5 0.1 0 0.1 0 0.2 0.1 0-2.1 0-4.3 0-6.4 -0.6 0-1.1-0.1-1.7-0.1 -0.9-1.1-2.2-0.8-3.5-0.9 -0.6-0.7-1.8-0.7-2.5-1.5 -0.6-1-1.1-2.2-2.2-2.9 -0.7-0.1-1.4-0.2-2-0.6 -0.7-1.2-1.9-2-2.6-3.1 -0.9-0.2-1.7-0.1-2.5 0.2 -1.3-1.6-3-2.4-4.8-3.1 -0.5-0.2-0.9-0.4-1.3-0.7 -1.1-0.9-2.3-1.6-3.7-2.1 -0.5-0.2-0.9-0.4-1.3-0.7 -0.9-0.7-1.9-1.1-3.1-1.4 -0.6 0.3-1.3 0.4-2.1 0.2 -1.3-0.9-2.6-1.8-3.9-3 -1.1 1.7-2.4 3.1-3.6 4.6 -1 1.3-2.2 1.9-3.8 1.3 -1 1.2-2.6 1.5-3.7 2.5 -0.3-0.2-0.5-0.2-0.6-0.4 -1.3-1.4-3.1-1.6-4.7-1.1 -1.6 0.5-3.4 0.7-4.5 2.3 -1.7 0.1-2.5-1.4-3.9-1.7 -0.3 0.1-0.6 0.2-1 0.3 -0.3 0.4-0.5 0.9-1.1 1.1 -1.6-0.7-3.2-1.5-4.9-2.3 -0.6-0.3-1.2-0.6-1.9-0.4 -0.4 0.3-0.8 0.7-1.4 0.8 -1.3-0.6-2.1-1.1-2.6-1.8 -0.4-0.6-0.9-0.9-1.5-1.3 -1.4-0.9-3-1.4-4.5-2.1 -1 0.3-1.9 0.6-2.7 1.2 -0.4 0.7-0.8 1.4-1.6 1.9 -0.5 0-1.1 0.1-1.7 0.1 -0.5 0.4-0.9 0.8-1.2 1.3 -0.6 0.9-1.1 1.7-1.7 2.5 -0.7 1.1-1.5 2.2-2.5 3.1 -1.4 1.2-3.3 1.5-4.6 0.3 -0.9-0.8-2-1.2-3.1-1.6 -1.5-0.5-3.1-1-4.5-1.8 -1.3-0.8-2.7-1.4-4-2 -0.7 0.4-0.8 1.3-1.6 1.5 -0.4 0.1-0.8-0.4-1.4-0.2 -0.4 0.3-0.9 0.9-1.8 1.1 -0.8-0.9-1.8-0.9-3-0.9 -0.3 0-0.7 0.1-0.9-0.1 -0.9-0.4-1.8-0.2-2.7-0.2 -0.6 0.2-0.8 0.7-1.6 0.9 -0.8 0-1.7-1-2.9-0.5 -0.4 0.5-0.8 1.1-1.2 1.6 -0.6 0.2-1.1 0.2-1.5-0.1 -0.6-0.5-1.3-0.7-2.1-0.9 -1.4-0.4-2.7-0.8-4-1.3 -0.3-0.1-0.7-0.3-1.3-0.2 -0.3 0.1-0.7 0.7-1.5 0.4 -1.1-1.3-3.2-1.1-4.4-2.4 -0.9 0-1.7-0.1-2.5 0.2 -0.7 1.1-0.9 2.5-1.8 3.6 -0.5 0.5-1.2 0.4-1.8 0.7 -0.4 0.6-0.8 1.2-1.2 1.7 -0.6 0.5-1.3 0.6-2 0.8 -1.1-0.4-2.1-0.8-3.2-0.8 -1.5 0.1-2.7-0.4-3.7-1.5 0-0.1-0.2 0-0.3 0 -0.8 1.4-1.4 2.9-2 4.4 -0.3 0.8-0.3 1.7-0.2 2.5 0.2 1.7 0.9 3.5-0.1 5.1 0.4 1.6 1 3.1 0.9 4.6 -1.7 1.3-3.6 1.3-5.5 0.6 -0.6-0.2-1.2-0.2-1.8-0.1 -1.1 0.2-2 0.7-2.8 1.4 -1 0.1-1.8-0.4-2.5-0.8 -3.5 1.7-7 3.3-10.6 5 -1.1 0.1-2-0.7-3.1-1.2 -0.8 1.5-2.1 2.3-3.7 2.8 -1.3 0.2-2.6-0.5-3.9-0.6 -1.7 1.4-1.9 1.4-3.9 0.7 -1.6-0.6-3.2-1.1-5-1.3 -1.3 0.6-2.5 0.3-3.6-0.6 -0.3-0.6-0.7-1.2-0.9-1.7 -1.7-1.2-2.9 0.2-4.3 0.5 -0.5-0.2-0.9-0.4-1.4-0.7 -0.6-0.3-1.2-0.6-1.9-0.6 -0.7 0-1.3-0.2-1.9-0.4 -1.3-0.4-2.7-0.9-3.9-1.7 -1.5-0.9-3-0.9-4.5 0 -0.6 0.3-1.2 0.8-2.1 0.8 -0.9-0.7-2.2-0.6-3.2-0.6 -0.6-0.4-0.8-0.9-1.3-1.1 -0.7 0.5-1.5 0.5-2.3 0.5 -0.7 0-1.5-0.2-2.1 0.1 -1.7 0.6-3.3 0.4-4.9-0.7 -1.7 0-1.6-0.1-3.1-1 -1.6-1-3.2-2.1-5-2.9 -1.3-0.6-2.7-0.6-3.9-1.5 -0.6 0.3-1.3 0.2-1.9-0.1 -0.9-0.4-1.8-0.5-2.7-0.3 -0.5 0.6-1.2 0.9-1.9 0.9 -1.4-0.3-1.9-1.6-3-2.2 -0.8 0.8-1.5 1.6-2.3 2.4 -0.1 0.4-0.2 0.8-0.4 1.3 -0.6 1.7-1.2 3.5-1.9 5.1 -0.4 0.9-0.6 1.7-0.6 2.7 0 1.1 0 2.1 0 3 -0.3 0.6-0.6 0.8-0.9 0.9 -1.6 0.5-2.7-0.6-3.9-1.2 -0.2 0-0.4 0-0.6 0.1 -2.4 1.2-5 1-7.6 0.6 -0.8-0.1-1.5-0.8-2.3-0.9 -1.2-0.2-2.2-0.6-3.2-1.3 -0.2-0.2-0.6-0.2-0.9-0.3 -1.3-0.4-2.7-0.5-3.9-1.2 -0.2-0.1-0.4 0-0.7 0 -1.2 2-3.5 3.2-4.2 5.6 -0.5 0.2-1 0.4-1.4 0.5 -0.4-0.3-0.8-0.6-1-1 -0.2-0.4 0.1-0.9-0.3-1.3 -0.1 0-0.2 0-0.3 0.1 -0.7 2-1.8 3.8-1.9 6 0 0.6-0.2 1.1-0.6 1.5 -0.7 0.5-1.4 0.6-2.2 0.3 -1-0.4-2-0.2-2.9 0.5 -0.8 0.6-1.6 1-2.5 1.6 -0.2 1.1-1.1 1.6-2.1 2.1 -1.5 0.8-3 1.1-4.6 0.7 -1.2-0.3-2.2-0.1-3.1 0.8 -0.6 0.6-1.4 1.2-2.2 1.6 -0.6 0.3-1.1 0.7-1.6 1.2 -0.6 0.7-1.3 1.1-2.1 1.4 -0.7 0.3-1.5 0.2-2.2 0.4 -0.8 0.6-1.3 1.5-2.1 2 -0.7 0.1-1.3 0-1.8-0.3 -0.7-0.4-1.4-0.7-2.1-1.1 -0.8-0.5-1.6-0.8-2.5-0.5 -0.9-0.5-1.6-1.3-2.6-1.6 -0.3-0.5-0.6-0.9-0.9-1.3 -0.8 0-1.6-0.3-2.4-0.4 -1.7-0.3-3.5-0.5-5.1-1.4 -0.8-0.4-1.7-0.7-2.6-0.6 -0.5 0.1-1-0.1-1.5-0.3 -1-0.6-2.1-0.9-3.1-1.3 -1.3-0.7-1.4-2-2.2-3 -0.9 0-1.9 0.2-2.9-0.1 -1.7-1.3-3.3-3-4.8-4.4 -0.6 0-0.9 0.3-1.3 0.4 -1.5 0.6-2.9 1.4-4.5 1.8 -1.7 0.4-3.3 0.9-4.9 1.6 -0.2 0.1-0.4 0.1-0.5 0.2 -3.2-0.8-2.1-0.8-5.1-0.1 -1.5 0.3-3 0.9-4.4 1.6 -1.4 0.7-2.7 0.6-4-0.3 -0.2-0.1-0.3-0.2-0.5-0.3 -0.7 0.2-1.4 0.3-2.1 0.5 -0.1-0.2-0.2-0.3-0.2-0.4 -0.9-1.9-3.4-3-5.4-2.4 -1.2 0.3-2.4 0.6-3.6 0.7 -0.4-2.3-2.2-3.5-3.8-4.8 -0.5 0-0.9-0.1-1.5-0.1 -0.9-0.9-1.3-2.1-1.8-3.2 -0.3-0.8-0.8-1.4-1.3-2 -0.4-0.4-0.7-0.8-1.1-1.3 -0.6-0.8-1.3-1.5-1.9-2.2 -0.4 0.2-0.4 0.5-0.5 0.7 -0.1 0.2-0.2 0.5-0.3 0.7 -1.8-1.5-2.8-3.7-4.5-5.1 -0.8-1.9-1.3-3.9-2.9-5.3 -1 0.4-2.1 0.3-3.2 0.4 -1.1 0-2.1-0.4-2.6-1.3 -0.6-1.2-1.7-1.5-2.9-1.7 -0.5-0.1-0.9-0.2-1.3-0.4 -1.4-0.7-2.9-1-4.4-0.9 -1.7 0.2-3.4-0.2-4.8-1.1 -1.2-0.7-2.5-1.4-3.5-2.4 -0.7-0.8-1.6-0.9-2.6-0.6 -0.9 0.3-1.5 0.8-2.2 1.3 -1.2 0-2.4 0-3.3 0 -0.9 0.4-1.3 1.3-1.9 1.4 -1.1 0-1.2-1-1.8-1.3 -0.7-0.1-1.3 0-2 0.1 -0.3-0.5-0.6-0.9-0.9-1.2 -0.7-0.5-1.3-0.6-2-0.5 -0.6 0-1.1 0-1.6-0.3 -0.8-0.5-1.5-0.9-2.3-1.3 -0.4-0.2-0.8-0.5-1-0.9 -0.9-1.8-2.2-3.3-2.9-5.2 -0.1-0.2-0.1-0.5-0.5-0.5 -0.5 0.8 0.5 1.9-0.5 2.6 -1.3-1.1-2.3-2.4-3.6-3.2 -0.4-1-0.8-1.9-1.2-2.9 -0.1 0-0.2 0-0.4 0.1 -1 1.3-2.5 2.1-3.9 2.8 -0.5 0.2-1 0.2-1.5 0.1 -0.3-0.1-0.7-0.2-1.3-0.1 -1.3 1.3-2.9 2.4-3.3 4.6 -0.2 0.7-0.6 1.3-1.3 1.7 -0.7 0.2-1.4 0.1-2.1-0.2 -0.7 0.4-1.4 0.7-2.1 1 -0.2 0.4-0.5 0.7-0.6 1.1 -0.6 1.7-2 2.8-3.5 3.6 -0.9 0.5-1.9 0.9-2.9 1.4 -0.2 0.2-0.3 0.5-0.5 0.8 -0.6 1-1.3 1.5-2.6 1.6 -1.7 0.1-3.3 0.8-4.3 2.3 -0.6 0.9-1.1 2.1-1.4 3.2 -1.3 1.1-2.3 2.4-3.2 3.8 -1.4 2.1-2.2 2.4-4.6 1.4 -0.7 0.1-1.1 0.7-1.7 0.9s-1.2 0.5-1.9 0.8c-4.4-2.2-9.1-4-13.6-6.4 -0.7 0.2-1.4 0.4-2 0.6 -0.9-0.1-1.5-0.6-2.1-1.2 -0.3-0.4-0.6-0.7-1-0.9 -1-0.5-1.5-1.4-1.7-2.3 -1.6-1.5-2.2-3.5-4.1-4.6 -0.6 0.2-0.5 1-1.2 1.4 -0.6-0.9-1.4-1.7-2.2-2.4 -0.6-0.6-0.6-1.3-0.9-2.1 -0.2-0.6-0.3-1.3-1.1-1.6 -1.7 1.5-2.9 3.3-4.1 5.1 -2.2 0.3-4 1.3-5.4 3 -0.8 0.9-1.8 1.7-2.7 2.7 -0.7-0.3-1.3-0.9-2-1 -0.4-0.8-0.9-1.5-1.2-2.3 -0.5-1.5-1.6-2.7-2.4-4 -0.8-1.3-2.2-1.9-3.4-2.8 -1.4-0.1-2.9 0.1-3.9-1.4 -0.1-0.8-0.2-1.7-0.3-2.6 0-0.3-0.1-0.6-0.3-0.9 -0.8-1.1-1.8-1.9-2.3-3.2 -0.3 0.1-0.5 0.2-0.6 0.2 -1 1.4-2.4 2.4-3.3 3.9 -0.5 0.9-1.3 1.4-2.2 1.8 -0.4 0.2-0.8 0.4-1.3 0.6 -0.4-0.6-0.4-1.3-0.6-2.1 -2 0.2-3.8 0.7-5.3 2 -0.8 0.7-1.6 1.2-2.8 1.4 -0.7-0.2-1.6-0.5-2.4-0.8 -0.8-0.3-1.7-0.2-2.3 0.3 -1 1-2.2 1.6-3.4 2.6 -1.5 0-3 0-4.6-0.2 -1.7-0.2-3.3-0.6-5-0.4 -1 0.1-1.8-0.2-2.6-0.8 -1-0.6-2-1.3-3.2-1.5v8.7c0.4 0.1 0.7 0.2 1.1 0.4C2.5 442.1 3.3 442.1 4.1 441.8z"/></svg>
